<svg xmlns="http://www.w3.org/2000/svg" width="30" height="31"><path fill-rule="evenodd" d="M26.3 30.967H3.7c-2 0-3.7-1.682-3.7-3.662V7.885c0-1.98 1.7-3.662 3.7-3.662h4.441V2.09A1.15 1.15 0 0 1 9.296.947c.638 0 1.155.511 1.155 1.143v2.133h9.098V2.09c0-.632.517-1.143 1.155-1.143s1.155.511 1.155 1.143v2.133H26.3c2 0 3.7 1.682 3.7 3.662v19.42c0 1.98-1.7 3.662-3.7 3.662zm1.4-22.221H2.3v18.559c0 .792.6 1.386 1.4 1.386h22.6c.8 0 1.4-.594 1.4-1.386V8.746zm-8.151 11.147h2.31v2.286h-2.31v-2.286zm0-4.635h2.31v2.287h-2.31v-2.287zm-5.704 4.635h2.31v2.286h-2.31v-2.286zm0-4.635h2.31v2.287h-2.31v-2.287zm-5.704 4.635h2.31v2.286h-2.31v-2.286zm0-4.635h2.31v2.287h-2.31v-2.287z"/></svg>
