<svg xmlns="http://www.w3.org/2000/svg" width="27" height="27">
    <path fill="#FFF" fill-rule="evenodd" d="M23.67 26.998H3.33c-1.8 0-3.33-1.512-3.33-3.292V6.246c0-1.78 1.53-3.292 3.33-3.292h3.997V1.036c0-.568.466-1.028 1.04-1.028.574 0 1.039.46 1.039 1.028v1.918h8.188V1.036c0-.568.466-1.028 1.04-1.028.573 0 1.039.46 1.039 1.028v1.918h3.997c1.8 0 3.33 1.512 3.33 3.292v17.46c0 1.78-1.53 3.292-3.33 3.292zm1.26-19.977H2.07v16.685c0 .712.54 1.246 1.26 1.246h20.34c.72 0 1.26-.534 1.26-1.246V7.021zm-7.336 10.021h2.079v2.055h-2.079v-2.055zm0-4.167h2.079v2.056h-2.079v-2.056zm-5.134 4.167h2.08v2.055h-2.08v-2.055zm0-4.167h2.08v2.056h-2.08v-2.056zm-5.133 4.167h2.079v2.055H7.327v-2.055zm0-4.167h2.079v2.056H7.327v-2.056z"/>
</svg>
