<svg xmlns="http://www.w3.org/2000/svg" width="61" height="78">
	<path d="M20.543 17.598c-.242.188.286.445.239.431.019.763-.09 1.551.165 1.939.161.24.662.42.749.187.085-.232.465-.707.55-.787.158-.145.019-.275-.114-.135-.276.299-.429.161-.631-.035-.098-.114-.135-1.183-.065-1.216 0 0 .505-.075.626-.075.094 0 .086-.296-.012-.296-.151 0-.602.003-.628-.069-.056-.147.09-.868.115-1.192.021-.229-.099-.302-.159-.089-.065.211-.549 1.123-.835 1.337m1.335-2.729c.294-.028.766.155 1.291.111.625-.046 1.114-1.035.845-1.805-.251-.73-1.048-.602-1.584-.779-.493-.135-.698-.452-.16-.814.633-.419 1.417.253 1.493.392.116.215.212.209.212-.067.017-.606-.038-.263-.096-.833-.02-.203-.165-.221-.178-.025-.014.198-.251.139-.429.139-.181-.005-.708-.087-1.164.17-.29.173-.953.705-.582 1.342.217.372 1.491.675 1.807.888.319.215.39.758.086 1.012-.379.307-1.409.048-1.568-.138a1.27 1.27 0 0 1-.332-.705c-.044-.28-.273-.256-.273 0 0 .255.058 1.131.104 1.336.041.216.25.143.269-.018.024-.151.122-.195.259-.206m1.455.84c-.114.23-.299.441-.635.599.205.183.471.417.648.535.201-.229.387-.443.62-.667-.231-.048-.498-.165-.633-.467m-3.175-.336c.214-.175.371-.472.459-.541.165-.137.029-.282-.11-.148-.111.113-.402-.147-.414-.165-.095-.112-.233-1.599-.169-1.632 0 0 .925-.117 1.046-.116.092.008.104-.292.005-.296-.15 0-.855.098-.881.028-.038-.16-.134-.688.098-1.145.109-.196-.003-.39-.075-.186-.082.207-.661 1.128-1.036 1.279-.305.127-.27.199-.074.249.156.032.318.222.288.22-.03.764-.104 1.704.129 2.104.147.251.551.513.734.349m-2.555 1.57c-.233.224-.416.431-.758.705.159.185.428.421.452.743.02.322.008 1.824.028 2.199.25 0 .205.026.634.01-.042-.255-.007-2.204-.007-2.482.161-.157.184-.182.368-.321.133.116.443.188.443.397 0 .21.061 1.135-.011 1.475-.09.419-.05.719.17 1.139.167-.192.79-.639.926-.751.133-.116.064-.206-.109-.157-.184.041-.217.078-.217-.042 0-.225-.087-1.239-.1-1.886-.023-.651-.333-.842-.511-.931-.182.207-.588.467-.831.679-.183-.138-.273-.449-.477-.777m-2.458.441c.108.284.454.821.61.915-.269.277-.928.735-1.113.866-.338-.431-.519-1.137.503-1.781m-1.161 1.322c-.16 1.219.964 1.945 1.505 2.18a5.71 5.71 0 0 1 .682-1.053c.206-.246-.021-.311-.205-.121-.249.278-.992.014-1.189-.355.359-.277 1.294-1.076 1.701-1.417-.268-.257-.684-.899-.748-1.266-.363.249-1.563.766-1.746 2.032m-.308-5.862c-.434.681-.671 1.749.08 2.373.353.304.646.541 1.368.408.143-.293.206-.391.46-.725-.497.08-.881-.012-1.244-.293-.747-.594-.516-1.549-.296-1.874.403-.613.977.261 1.08.383.132-.165.363-.396.587-.579-.222-.3-.405-.58-.556-.762-.477.177-1.18.615-1.479 1.069m3.471-1.81c-.058-.075-.167-.196-.172-.345 0-.102.012-1.151.012-1.28 0-.123-.241-.111-.241 0-.012.188.015.502-.147.762-.449.709-1.305 1.002-1.907.129-.204-.288-.253-.725-.279-1.04-.04-.417.269-.957.287-1.005.765-1.026 1.827-.265 1.913.15.057.28.118.62.118.799-.007.119.244.108.249-.016l.007-1.814c.005-.102-.203-.135-.206 0-.012.251-.156.27-.342.209-.388-.119-1.246-.308-1.745-.013-.438.264-1.111.882-1.099 1.662.013 1.28.486 1.388 1.035 1.735.514.309 1.225.107 1.874-.086.257-.072.289.096.413.282.21.288.38.104.23-.129m.367 3.679c-.002.094 0 .175.002.259-.091.024-.193.047-.32.112-.174-.15-.992-.425-.455-.866.328.199.455.044.773-.157.002.283 0 .55 0 .652m-.004-.87c-.472.313-.622.304-.946-.072-.162-.189-.147-.551-.073-.686.147-.235.403-.471.526-.468.106.005.485.478.459.685.02.113.028.324.034.541m-.034-1.761c-.422.038-1.033.544-1.215.98-.073.173.031.799.109.869.055.05.099.083.147.121-.278.267-.538.491-.53.882.012.377.305.714.684.891.203-.317.52-.511.859-.593.028.303.097.523.29.674.139-.157.695-.65.802-.761.118-.113.03-.245-.107-.113-.081.079-.28-.036-.339-.132 0-.17 0-1.906.072-1.984-.252-.28-.491-.867-.772-.834m3.072-4.246c.166-.165-.011-.286-.159-.14-.11-.135-.391-.432-.541-.612-.16.135-.526.359-.731.477-.159-.187-.357-.187-.676-.443-.178.138-.571.432-.781.695.372.11.652.133.676.458.014.265-.028 1.903-.005 2.205.199.044.442.024.726.009.022-.234.011-2.288.011-2.517.107-.061.218-.118.27-.172.118.091.35.437.537.554.145-.111.514-.349.673-.514m1.125.723c-.246-.809-.154-1.089.337-1.487.111.276.392.478.549.575-.277.276-.708.775-.886.912m1.595.998c-.972.251-1.427-.548-1.525-.759.393-.412 1.062-1.086 1.469-1.427-.269-.253-.38-.674-.858-.709-.417.009-1.39.494-1.56 1.757-.164 1.212.949 1.867 1.831 1.903.294 0 .661-.388.843-.479.391-.196.246-.391-.2-.286m2.737-1.474l-.405.334a1.038 1.038 0 0 1-.325.016c-.332-.047-.493-.303-.646-.51-.159-.216.251-.394.452-.373.204.029.655.276.924.533m-.701.953c.222.104.446.207.691.353.355.208.173.597-.21.777-.388.183-1.083-.332-1.191-.542.142-.126.41-.342.71-.588m1.671-1.398c-.27-.191-.564-.649-1.215-.678-.654-.027-1.392.579-1.632.958-.318.503.072.943.488 1.27-.266.235-.635.593-.977.922.136.151.885.514 1.305.502.636-.016 1.224-.351 1.586-.647.661-.534.431-1.104-.241-1.505a.534.534 0 0 0-.19-.064c.417-.337.781-.639.876-.758m.807 3.883l-.396-.42-.4.367.008.505.244.258h.248l.296-.276v-.434zm-.177-2.851c-.153-.008-.394.423.531.388.145-.005.252-.342-.531-.388m-.011.567c-.159-.01-.4.287.528.386.144.016.337-.332-.528-.386m.602 6.35l.343-.376c-.384-.073-.384-.049-.589-.237l.015-1.815-.335-.504-.18.023-.771.729c-.207.19-.022.281.21.07l.398.249.014 1.712c.041.204.217.271.463.531l.432-.382zm-2.36 3.229c.287.2.451.173.813.139-.015.199-.029.383-.029.466 0 .087.036.159.06.234-.186.067-.425.109-.608.203-.167-.151-.779-.58-.236-1.042m.828-.056c-.313.006-.582-.092-.923-.399-.065-.057-.126-.454-.052-.584.15-.244.15-.319.281-.316.102 0 .732.387.698.595.025.149.013.43-.004.704m-1.09-.152c-.278.295-.484.617-.481 1.024.014.389.14.772.525.947.342-.256.78-.569 1.203-.65.207.256.526.426.717.577.132-.162.554-.511.671-.621.111-.115 0-.278-.117-.126-.09.139-.387.038-.473-.104 0-.165-.153-1.908-.085-1.987-.246-.281-.669-.913-.954-.881-.415.042-1.035.651-1.168.847-.101.15.03.867.11.935.021.016.032.021.052.039m-1.107-4.141c.259.75.868.988 1.323 1.026.135-.259.386-.652.525-.833.204-.276-.005-.442-.147-.123-.111.247-.701-.022-.914-.232-.288-.275-.466-.992-.238-1.243.231-.257.564-.14.991-.153.282-.012.342-.279.39-.415a7.328 7.328 0 0 1-.607-.348c-.275.179-.701.548-.884.704-.229.197-.698.884-.439 1.617m-.168 5.456l.336-.38c-.377-.071-.202-.068-.401-.256l-.012-1.567-.489-.734-.186.026-.767.732c-.203.182-.024.271.212.069l.508.27.012 1.658c.042.205.221.254.468.514l.319-.332zm6.393 9.045s.309-.343.308-.589c-.001-.332-.308-.573-.308-.573.264.075.89.437 1.114.587l-1.114.575zm1.964-.605v-.046c-.686-.1-1.225-.592-1.854-.834-.869-.338-1.79.348-1.79.457 0 .241.247.363.95-.09-.551.652.075 1.185.075 1.185-.229-.038-.556-.115-.765-.235-.042.235.275.321.426.424 1.166.487 1.933-.659 2.958-.861m7.887-10.931c-.179.186-.492.398-.786.731.243.021.445.076.561.312.121.235.019 1.231.036 1.618.02.37.24.45.529.758.288-.074 1.093-.417 1.364-.608-.024.306.354.648.577.716.15-.166.313-.258.533-.47-.215-.145-.186-.165-.267-.457-.063-.28.015-1.347.022-1.8a3.354 3.354 0 0 0-.735-.8c-.203.187-.475.441-.794.784.238-.032.706.065.728.268.014.265.053.841 0 1.289-.053.452-1.241.245-1.257-.06-.027-.311.061-1.21.067-1.637-.168-.266-.267-.408-.578-.644m.593-3.506c.087-.449.395-.632.536-.767.2.226.401.483.701.483.293.001.599-.137.693-.259-.241-.201-.794-.795-.904-.907-.28.16-1.494.803-1.597 1.547-.148 1.099.193 1.316.664 1.919.265.345.708.359.91.305.217-.152 1.012-.924 1.1-1.021.08-.093-.035-.181-.134-.085-.098.091-.06.131-.191.152-.135.023-.676.117-.991-.053-.392-.212-.905-.709-.787-1.314m-3.388-.118c.029.739-.347 1.515-.757 1.866.708-.188.801-.619 1.188-1.127.213.322.612.715.902.882.204-.136.783-.803.91-.94-.417-.113-1.224-.55-1.425-1.009-.158-.344-.12-.505.038-.773.14.19 1.121.649 1.561-.119-.482-.179-.915-.504-1.062-.764-.13.109-.561.588-.803.741-.056-.262-.453-.548-.773-.608-.104.116-.861.705-1.206.877-.107.053-.066.29.083.229.14-.063.374-.244.644-.376.313.125.668.449.7 1.121m-.139 3.552c-.289.146.386.42.341.408-.009.783-.164 2.061.1 2.467.161.248.531.411.778.314.238-.098.542-.585.631-.663.177-.134.026-.278-.121-.138-.145.138-.541.038-.594-.101-.041-.148-.091-1.854-.022-1.889 0 0 .476-.011.602-.006.101 0 .108-.311.01-.311-.174-.001-.558-.037-.58-.106-.057-.161.013-.683.112-.893.102-.213-.093-.306-.169-.099-.079.222-.579.76-1.088 1.017m-2.735.513c.163-.255.266-.305.395-.305.118.006.571.327.547.54.023.139.027.43.026.727-.339.041-.578.082-.959-.245-.07-.058-.09-.587-.009-.717m.204 1.145c.25.142.375.055.762.012-.002.248-.008.471-.01.594-.17.124-.379.23-.621.354-.191-.162-.471-.299-.131-.96m-.312-.233c-.21.203-.584.728-.576 1.115.006.397.192.776.417.991.383-.273.623-.65 1.26-.9.079.301.289.349.537.542.149-.165.691-.847.81-.964.12-.118.052-.238-.119-.118-.171.118-.288.044-.573-.269.01-.169-.02-1.56.046-1.638-.26-.286-.498-.678-.806-.645-.447.038-1.014.833-1.155 1.041-.112.149.005.719.089.79.029.028.044.032.07.055m-2.606-2.64c.015.375.149 3.607.11 4.056-.026.256.311.527.617.742.149-.186.474-.668.743-.872.158-.134.048-.22-.074-.171-.241.116-.486.025-.509-.258-.022-.288-.022-3.071 0-3.469-.187 0-.712-.013-.887-.028m-.228-2.344c.014 1.321.528 1.431 1.115 1.777.556.323 1.491.256 2.191.07.266-.08.409-.097.401.137 0 .148.201.116.201.007l.009-1.339c0-.14-.196-.117-.196 0 0 .187 0 .242-.177.504-.482.73-1.688.7-2.335-.191-.221-.304-.421-.711-.166-.788.255-.078 1.031.087 1.544.13.307.018 1.016.095 1.106.148.079.057.199.136.199-.024.006-.154.006-.664.006-.82 0-.153-.115-.08-.202-.027-.088.064-.844.193-1.147.247-.305.06-1.243.135-1.49.052-.252-.087-.169-.606.056-.904.654-.882 1.975-.823 2.452-.086.164.257.164.317.164.509 0 .116.19.129.19 0a75.82 75.82 0 0 0 .015-1.57c0-.102-.191-.142-.191 0 0 .097-.21.154-.417.097-.41-.13-1.605.057-2.138.356-.473.278-1.2.914-1.19 1.715m5.081-7.676c-.243-.031-1.047.037-1.337.085-.29.044-.29.189-.048.22.24.023.286.075.413.407.116.334-.463 1.846-.608 2.199-.169-.258-.784-1.64-.784-1.828 0-.134.272-.268.388-.302.227-.072.222-.231.05-.265-.48-.07-2.174-.223-2.473-.26-.216-.018-.315.238-.052.238.271.006.553-.076.85.369.342.503 1.414 2.863 1.671 3.853.126-.209 1.197-3.383 1.259-3.721.077-.328.302-.649.617-.744.325-.089.295-.233.054-.251m1.451.574l.318-.283v-.452l-.429-.425-.425.369.009.522.264.269h.263zm.49 4.14l.565-.75c-.41-.074-.58-.151-.866-.484l.012-1.867-.578-.59-.198.023-.905.812c-.094.144.149.144.27-.025l.658.385.029 1.805c.05.215.225.426.486.691h.527zm3.76-3.198c-.174 0-1.331.025-1.361-.044-.085-.252-.106-.56.093-.99.099-.214-.093-.302-.167-.086-.073.208-.653 1.027-1.255 1.292-.31.125.378.416.33.403-.003.788.107 1.97.272 2.447.102.281.415.74.631.6.14-.09.442-.704.538-.78.167-.14.003-.379-.136-.237-.155.14-.286-.075-.329-.22-.051-.139-.193-1.877-.121-1.908 0 0 1.368-.171 1.505-.171.093 0 .097-.306 0-.306m2.104 3.366c-.187.013-.352.063-.591.181-.198-.164-.709-.797-.332-1.501-.052-.034-.106-.063-.156-.096.347.2.753.374 1.072.48-.003.282-.012.535-.012.626 0 .119.009.217.019.31m-.005-1.108c-.361-.132-1.071-.474-1.33-.693-.068-.054-.075-.087.009-.223.164-.249.351-.469.482-.458.112 0 .835.398.812.604.025.147.029.458.027.77m.441 1.888l.732-.819s-.325-.259-.519-.503c0-.169 0-1.809.071-1.898-.55-.503-.952-.566-1.19-.533-.445.068-.902.652-1.047.848-.105.154-.078.35 0 .423.089.074.204.147.325.222-.02-.01-.039-.024-.06-.034-.209.201-.513.78-.503 1.172.004.395.352.967.585 1.179.258-.202.64-.545 1.201-.656.061.275.19.444.405.599m.025 4.334c-.188-.093-.876-.635-1.033-1.052-.207-.561-.207-1.18.376-1.542.455.171.986.629 1.033 1.047.065.548-.088 1.194-.376 1.547m.619-.22c.2-.371.494-.969.475-1.426-.026-.558-.363-1.39-1.166-1.663-1.018.37-1.648 1.192-1.676 2.165-.019.569.454 1.739 1.432 1.748.3-.297.618-.61.935-.824m.962 2.834c-.121-.145-.447-.424-.74-.634a5.28 5.28 0 0 1-.733.514c-.163-.189-.38-.452-.712-.712-.2.14-.776.676-1.019.817.35.01.874.129.892.462.012.27-.018 1.957 0 2.264.215.049.468.024.781.008.015-.238.009-2.183.015-2.419.104-.061.228-.12.288-.174.121.09.488.523.702.638.145-.111.526-.454.693-.615.178-.179-.014-.294-.167-.149m0-3.566c.131.04.37.077.616.096.154.019.103-.244-.015-.294a2.12 2.12 0 0 0-.55-.102c-.177 0-.26.236-.051.3m.622-.783a1.996 1.996 0 0 0-.562-.099c-.168 0-.258.243-.049.301.133.038.382.085.62.095.162.016.11-.246-.009-.297m4.166 41.364c-.324 1.63-.875 3.14-1.834 4.545-.671.997-.944-.939-.366-2.812.821-.335 1.642-.987 2.2-1.733m-.914.331c-2.142 2.161-5.355 1.377-7.888 2.537-2.294.857-3.956 3.026-6.362 3.575-.708.233-.824.594-.373.583.264-.009 1.731 1.558 4.077.35.783-.405 3.217-1.791 3.629-1.869-1.318 1.283-1.979 2.428-3.156 3.106-.721.414-3.656 1.49-6.584.908-1.297-.257-2.295.966-1.965.939.695-.19 1.473-.094 1.941.532.85.682 2.081 1.53 3.14.266.352-.421 2.033-1.313 3.612.327-1.68-.09-1.513 3.001-4.697 2.639-1.179-.009-3.783-2.766-4.524-1.914-1.316 1.513 2.828 2.949 1.034 4.85-1.621 1.719-3.557-1.367-3.557-1.367 1.011.433 2.877.713 2.055-.969-.326-.669-.946-1.268-.946-2.503-.142-.614-3.851 4.886-6.304 2.402-.964-.977-2.916-3.12-4.684-3.933 4.682-.407 5.396 1.509 5.62 1.817 1.498 2.065 2.882-.032 3.201-.398.488-.57 1.178-1.354.934-1.471-1.817-.881-3.893-1.068-5.443-.341 3.319-4.665 5.901-.297 5.901-.297.364.232-.093-2.767-3.375-2.933-2.05-.102-3.855 1.784-5.268 1.783-1.15-.003-4.635-2.41-5.455-4.548 2.029 1.552 4.615 2.441 6.227 1.458 3.031-1.846 6.848.939 7.03.607-.848-.678-2.775-3.322-7.98-1.815-2.019 1.186-2.87-.879-4.11-.915 2.109-1.915 3.571-.939 4.308-.883.175 0-.879-.886-1.619-.967-5.751-.612-9.394-2.23-9.394-2.23-.03 0 .479-1.186 2.951-.328 0 0-2.216-1.39-2.198-3.172.072-1.101.592-2.279-.231-3.195 3.338-.141.968 4.62 3.311 5.846.05.021-.69-1.135.353-2.035.484 1.399 1.676 2.122 2.514 2.35.197-.111.439-.539.439-.539-.881-1.493-.997-3.229-.76-5.222l.035-.018c.19.009.511.684.736 1.179.487 1.071.476 2.613 1.446 3.883.537.701.869 1.398 1.351 1.737.209-.496.055-1.349.022-1.575-.109-.808-.605-2.224.746-3.476.632 1.867 1.492 1.324 1.609 2.219.161 1.254.108 1.056-.018 2.018.065 1.327 1.243 1.7 2.289 2.548 2.36 1.312 3.926 2.025 4.953 3.704.501-2.837-6.987-3.403-6.022-8.88-.1-2.187.267-2.37-1.248-3.705 3.004.09 4.641 5.135 4.804 6.053.301 1.695 1.305 1.782 2.684 3.989.199.074-2.465-5.879.71-10.976 0 0 1.071 2.648.566 4.385-.304 1.046-.022 2.202.035 2.857.058.669-.13-2.414 2.138-4.009.141 1.166 1.234 2.974.199 4.91-1.261 2.355-1.353 1.508-1.372 4.407.115-.051.441-1.998 1.305-3.103 1.828-2.336.522-3.592 2.306-5.619.141 1.014.394.612.501 1.515.239 2.023-1.827 4.237-1.371 4.167.527-.072 1.371-.541 1.654-2.076 0 0 .761 1.401.064 1.871-1.26.843-1.522 1.755-1.326 2.78 1.011-1.236 2.392-2.605 2.153-4.364.114-1.061 1.239-1.492 1.463-3.957.037-.408.437-.903.835-1.123-.173 1.385.878 2.816-.318 4.514.272.149 1.285-1.323 2.763-.787-2.968.548-2.102 3.837-4.376 5.359-.686.461-.568.975-.773 1.032 2.03-.115 3.595-2.59 3.866-2.78 2.042-1.412 2.488-1.627 3.304-3.917.319-.868.087-1.253 1.218-2.429.496 1.159-.225 3.559-.396 4.076-.365 1.104-1.648 2.061-1.377 2.061 5.471-2.47 5.402-4.13 6.711-5.899.393-.675 2.339-1.847 3.067-1.955-.178.367-.934.987-.97 1.657-.066 1.238-.457 1.992-1.067 2.986.34.428.992-.816 1.66-.191-.883.3-1.276 1.307-1.963 1.901m-5.01-1.759c.158-.58.159-.981.232-1.491.033-.221.037-.193.048-.38.003-.061 1.546 1.312 1.632 1.369-.387.498-.718.675-1.087 1.027-.262-.233-.84-.47-.825-.525m.469.856c-.714.642-1.179.868-1.024.549.174-.352.302-.654.399-.918.033-.089.625.369.625.369m6.991-6.206c-.652.173-2.372.875-2.787 1.567.22-3.805-.981-7.539-1.364-8.443-.745-1.758.334 4.092.407 5.437.002.062-6.171-8.113-2.444-1.816.966 1.63 2.475 2.696 2.475 2.723.026 1.135-.048 1.971-.259 2.579-.38.31-8.406-10.925-3.97-3.144.55.967 3.769 3.886 3.743 3.945-.204.443-.566 1.089-1.065 1.565-.084-.088-1.851-1.42-1.864-1.501-.133-.868-.138-1.688-1.188-1.074 0 0-3.954-4.71-2.122-1.409.8 1.445 1.325 1.603 1.538 1.86 0 0-.614.849-.81 1.754-.08.361-3.429-3.799-2.115-1.185.421.838 1.952 1.751 1.936 1.81-.157.545-.316 1.072-.483 1.414-.211.434-3.152 2.832-3.148 2.828 0-.001.576-1.896 1.826-2.828.713-.535.716-.418 1.188-.72-.01-.282-.274-.741-.616-.861-.43-.156-1.821.103-1.821.103.13-.709-.479-2.247-.471-3.935-.525.054-1.444.882-1.666 1.353-.161 2.798-.756 1.959-1.312 3.973-.605-.845.042-2.058-.55-2.846-.816-1.088-.939-1.82-1.059-3.157.19-.111 1.022-1.049.265-3.022-.124-3.101 1.23-4.285-1.191-6.454.204-.068.35-1.621.35-1.624 1.784.974 1.43-1.126 2.124-1.538 1.104-.654.904-1.333.409-2.18 3.155.919-.143 3.124 1.285 3.173 1.037.031 1.731-.236 2.18-.949.48-.752-.082-1.215 1.256-2.436.134-.123.489-.937-.573-1.159-.232-.053.002-.979.002-.979-.85.736-1.117 1.773-2.483 1.114-.699-.336-1.153-.005-1.44.137 0 0-.145-.585.434-.784 1.495-.512 1.865-1.123 1.783-1.456-.202-.794-.263 0-.22-.838.02-.334.398-.785.711-1.169 1.014-1.254 1.732-.786 1.991-.674.589-.465.693-.432 1.241-.654.94-.378 2.974.249 4.111.789.552.254 1.211.408 1.854.265-.006.338-.239.521-.47.588-.355.113-.778 0-.75.266.016.153.502.183.806.266 1.685.473 3.867 2.017 2.434 1.69-.168-.037 1.034.92 1.941 2.165l3.214 3.194c-.148.179-1.275.017-4.844-3.407-.507.466 4.341 4.203 6.343 8.17-.173.123-2.667-.803-3.567-1.754-1.386-1.466-2.978-5.194-3.633-4.648-.079.029 2.635 4.353 3.976 6.915.677 1.296 1.234 3.155 1.279 4.556.215 6.901-.801 6.374-.801 6.374-1.58-5.443-2.321-11.759-4.627-14.675-.922-1.165 2.466 5.098 2.611 10.746m2.494-36.991l-.067-.497c-.049-.356-1.05-.564-1.758-.248-.99.442-3.471 1.892-4.375 1.618V9.286c2.232.988 3.104.093 3.822.093 2.204 0 2.314 2.105 2.314 2.105l.064.497m-2.291 4.885c1.936-.288 2.227 2.046 2.227 2.046h-.003c-.477-.386-1.435-.561-2.084-.133-2.163 1.425-4.112 1.442-4.112 1.442v-3.57s.412.749 3.972.215m-4.625 7.252c-3.513.245-10.799-1.799-12.652-1.799-3.822 0-5.67 1.524-5.67 1.524s.004-17.746 0-18.386c0 0 5.021-2.41 8.676-1.031 4.475 1.691 9.646.943 9.646.943v18.749zm-14.553 2.77c.117.712-.528.889-.526.889 1.002.239 1.481-.373 1.677-.756.385 1.637-1.228 1.731-1.732 1.828-.001 0 .818.24.861.785.106 1.384.978 1.268 1.165 1.161-.03.166-.3 1.003-1.278.246-.167.167.266.426.352 1.113.11.869.083 1.676 1.064 2.204-.601.491-1.309-.782-1.371-.63-.07.171.835.639-.162 3.041-.454-.267-.201-.215-.728-.857-.403-.346-.562-.424-.225.147.588.75.726 2.47.524 2.934-.485-.219-.36-.613-.932-1.151-.052.228.175 1.369.766 1.913 1.021.942 1.383 2.08 1.401 2.305.081.858-.182 1.986-.281 3.09-.49-.072-.906-1.496-1.025-1.413-.145.095.062 1.391.985 2.274.447 1.336.268 2.055.149 2.103-.158.069-.656-1.368-.927-1.116 1.315 3.42.395 4.613.047 5.666-.271-1.081-.409-1.889-.749-3.112-.717.573-.889 1.427-1.765 2.207 0-1.394-.788-4.763-1.414-5.549-.028-.034-1.129 3.022-1.631 4.381-.651 1.76-.752 3.962 0 5.678-1.623-2.361-1.797-6.757-.396-7.349.121-.318-.085-1.35-.397-1.223-.09.507-.03.941-.44 1.434-1.075-.322-.585-1.664-.488-2.11 1.394-1.71.523-2.105.458-2.06-.152.393-.283.871-.709 1.05-.894-1.573-.321-4.04 1.378-5.884.072-.688-.76.513-1.301.471-.142-1.325.328-3.628 2.727-3.713-.457-.138-.703-.222-.814-.614.725-.11 3-.288 2.624-2.123-.215.222-.284.551-.877.92-.399.248-.833.27-1.058-.091 1.055-.356.706-1.668-.671-1.283-.422.12-1.04-.331-1.07-.834.307.314.928.083 1.288-.155 1.549-1.033 2.495.463 2.705.782.062 0 .695-1.492-1.506-1.893-.183-.524-.687-1.45-2.18-1.334-.493-1.775-1.981-.9-1.932-.096-1.583-1.191.027-2.697.666-2.928.443.039.345 1.473 1.123 1.23.189-.057-.605-.988-.301-1.409.714-.417.697.534 1.049.179.175-.623.875-.971 1.452-1.038 1.617-.235 2.875 1.579 4.425.69m-4.612-3.059s-2.381-1.322-5.176-1.51c-2.702-.187-8.162 2.024-12.354 1.731V5.208s4.78.651 6.744-.124c6.677-2.635 10.786.308 10.786.308v18.437zm-18.38-3.943H8.942v-2.29h2.275v2.29zm0-7.975H8.942V9.623h2.275v2.288zm-4.953 8.636c-2.669 0-2.669-4 0-4 2.568 0 2.584 4 0 4m0-7.992c-2.61 0-2.555-4.005 0-4.005 2.568 0 2.568 4.005 0 4.005m17.199 18.687c-.478-.832.568-1.625.568-1.625-.032 2.339 2.892.735 4.419 1.476.367.173.624.502.775.851-1.641-1.161-4.675 1.198-5.762-.702m-7.904 19.814c.013.801-.042 1.394.186 2.21.37 1.229.184.851-.32.426-.402-.455-.777-.83-.97-1.363-.047-.38.251-.402 1.104-1.273M9.672 34.518l-.045-.045c-.053 0-3.799 2.418-6.233 1.258 1.813-1.027 8.094-5.109 9.812-6.267.81.179 1.138-.12 1.398-.304-.657.041-2.833.389-1.733-1.601.423 1.782 3.474.139 4.569-.117 3.053-.718 3.031 2.617 2.77 3.998-.097.513.936.878 1.444.804-.875 2.207-2.368.126-2.546.968-.073.341-1.072.609-1.069 1.456.007 1.157.449.525.49 1.422.044.869-.363.193-.271 1.134.146 1.492 2.561-.201 3.559.205.498.2.829.658 1.316.568.142-.119.077-.683.055-.886-.05-.475-.908-.529-1.307-1.176-.347-.565.395-2.262.796-2.763.576 2.804 3.145 1.925 3.529 4.874.242.833-.883 1.759.029 3.117-.678.67-1.492 3.866-.074 5.364-.241.679-.557 2.244.705 3.159-.424.926-.327 2.055.031 3.206-.786.004-.629-4.509-5.34-4.652-.105-.034-.131.512.005.755.564 1.013 1.323.956 1.16 3.343-.056.817-.524-.143-.774-.368-.57-.517-1.011-.585-1.259-2.266-1.914 1.537-1.726 3.395-1.607 4.338.002.004-.423-1.175-.906-2.386-.025-.064 1.944-2.49 2.257-3.065 3.975-7.315-2.565 2.366-2.579 2.333-.352-.836-.66-1.553-.867-1.782.051-.099 1.141-1.346 1.635-2.396 3.074-6.545-1.826 2.181-2.002 2.021-.371-.34-.676-.768-.911-.615-.055 1.006-.289.87-.222 1.896-.512.699-1.611 1.8-2.38 2.342 0 0-.192-1.816-.14-1.88.385-.481 1.898-2.139 2.207-2.635 5.036-8.09-2.359 1.952-2.373 1.864-.052-.32-.457-.849-.888-1.299 0 0 1.633-2.276 2.035-3.122 3.065-6.446-2.464 2.856-2.525 2.822-.133-.071-.146-.068-.3-.123-.154-.054.169-1.856.382-2.943.415-2.148-.698-.417-1 2.985-.285.048-.975.121-1.236.363.169.91.379.211.751 1.082.446 1.046-.62 2.76.307 4.016.359.484.38.402.309.723-.57-.043-.917-.056-1.278.448-.701-3.259-.679-4.827-.515-8.143.073-1.505.557-3.785.336-3.825-.21-.041-3.548 8.749-4.353 10.473-1.407-.486.876-8.095 3.778-11.758.274-1.165-1.521 1.182-2.593 2.116-.983.857-2.228 1.973-3.583 1.591 1.741-1.882 5.732-5.407 6.176-6.287.372-.754-2.723 2.349-5.993 1.195 2.115-1.159 7.053-3.738 7.061-5.535m-.033 21.409c.546.378 1.189.546 1.779.804.731 1.953.018 3.875-.392 3.077-.72-1.395-1.003-2.556-1.387-3.881m50.389-10.872l-.002-43.556c-34.207-3.372-60.025 0-60.025 0v43.562c2.725 29.525 29.76 32.994 30.016 32.946 4.829-.892 27.493-5.552 30.011-32.952"/>
</svg>
