<svg xmlns="http://www.w3.org/2000/svg" width="30" height="30"><path d="M26.3 0H3.7C1.7 0 0 1.7 0 3.7v22.6c0 2 1.7 3.7 3.7 3.7h22.6c2 0 3.7-1.7 3.7-3.7V3.7c0-2-1.7-3.7-3.7-3.7zm1.4 26.3c0 .8-.6 1.4-1.4 1.4H3.7c-.8 0-1.4-.6-1.4-1.4V3.7c0-.8.6-1.4 1.4-1.4h22.6c.8 0 1.4.6 1.4 1.4v22.6zM26.2 4c.5.4.6 1.1.2 1.6L17 18.3c-.5.7-1.2 1-2 1s-1.6-.4-2-1L3.8 5.7c-.4-.5-.3-1.2.2-1.6.5-.4 1.2-.3 1.6.3L14.9 17c.1.1.3.1.4 0l9.4-12.7c.3-.6 1-.7 1.5-.3zM9.6 17.1l-3.9 8.3c-.2.4-.6.7-1 .7-.2 0-.3 0-.5-.1-.6-.3-.8-1-.6-1.5l3.9-8.3c.3-.6.9-.8 1.5-.6.6.2.8.9.6 1.5zm16.7 7.4c.3.6 0 1.3-.6 1.5-.2.1-.3.1-.5.1-.4 0-.9-.2-1-.7l-3.8-8.3c-.3-.6 0-1.3.6-1.5.6-.3 1.3 0 1.5.6l3.8 8.3z"/></svg>
