<svg xmlns="http://www.w3.org/2000/svg" width="31" height="30"><path d="M22 30H9c-4.9.1-8.9-3.8-9-8.7V8.7C.1 3.8 4.1-.1 9 0h13c4.9-.1 8.9 3.8 9 8.7v11.4c0 .7-.6 1.2-1.2 1.2s-1.2-.5-1.2-1.2V8.7c-.1-3.6-3-6.4-6.6-6.4H9c-3.6 0-6.5 2.8-6.6 6.4v12.6c.1 3.6 3 6.4 6.6 6.4h13c2 0 4-.9 5.2-2.5.4-.5 1.2-.6 1.7-.2.5.4.6 1.1.3 1.6-.8 1.1-1.9 1.9-3.1 2.5-1.3.6-2.7.9-4.1.9zm-6.5-6.9c-4.5-.1-8-3.9-7.8-8.3.1-4.5 3.9-8 8.3-7.8 4.4.1 7.8 3.7 7.8 8.1 0 4.4-3.8 8.1-8.3 8zm0-13.8c-3.2.1-5.6 2.7-5.5 5.9.1 3.2 2.8 5.7 5.9 5.6 3.1-.1 5.6-2.6 5.6-5.7-.1-3.3-2.8-5.9-6-5.8zM24 5.6c.6 0 1.2.6 1.1 1.2S24.5 8 23.9 8s-1.1-.5-1.1-1.2.5-1.2 1.2-1.2z"/></svg>
