<svg xmlns="http://www.w3.org/2000/svg" width="30" height="30"><path d="M21.7 7.5c-1.3 0-2.6.3-3.7.9-.6.3-.9 1.1-.6 1.7.3.6 1.1.9 1.7.6.8-.4 1.7-.6 2.6-.6 3.2 0 5.8 2.6 5.8 5.8v12.8c0 .7.6 1.3 1.3 1.3s1.3-.6 1.3-1.3V15.9c-.1-4.6-3.8-8.4-8.4-8.4zM2.7 7.5c-.7 0-1.2.6-1.2 1.3v19.9c0 .7.5 1.3 1.2 1.3S4 29.4 4 28.7V8.8c0-.7-.6-1.3-1.3-1.3zM2.7 0C1.2 0 0 1.2 0 2.8s1.2 2.8 2.7 2.8 2.7-1.2 2.7-2.8S4.2 0 2.7 0zM14.6 7.5c-.7 0-1.3.6-1.3 1.3v19.9c0 .7.6 1.3 1.3 1.3.7 0 1.3-.6 1.3-1.3V8.8c0-.7-.6-1.3-1.3-1.3z"/></svg>
