<svg xmlns="http://www.w3.org/2000/svg" width="194" height="40"><path fill="maroon" fill-rule="evenodd" d="M10.507 9.025c-.124.096.146.228.122.221.01.391-.046.794.084.994.083.123.339.215.384.096.043-.118.237-.363.281-.404.081-.074.009-.141-.058-.069-.141.153-.22.083-.323-.018-.05-.059-.069-.607-.033-.624 0 0 .258-.037.32-.037.048 0 .044-.153-.006-.153-.078 0-.308.002-.322-.035-.028-.076.046-.445.059-.612.011-.117-.05-.154-.081-.045-.033.108-.281.576-.427.686m.683-1.4c.15-.014.391.08.66.057.319-.024.57-.531.432-.926-.128-.374-.536-.309-.81-.399-.252-.07-.357-.232-.082-.418.324-.215.725.13.764.202.059.11.108.107.108-.035.009-.31-.019-.135-.049-.427-.01-.104-.084-.113-.091-.013-.007.102-.128.072-.219.072-.093-.003-.363-.045-.596.087-.148.088-.487.361-.297.688.111.191.762.346.924.455.163.11.199.389.044.519-.194.158-.721.025-.802-.071a.646.646 0 0 1-.17-.361c-.022-.144-.14-.131-.14 0s.03.58.053.685c.022.11.128.073.138-.009.012-.077.063-.1.133-.106m.744.431a.652.652 0 0 1-.325.307c.105.094.241.214.331.274.103-.117.198-.227.317-.342a.428.428 0 0 1-.323-.239m-1.624-.173c.109-.09.19-.241.235-.277.084-.071.015-.144-.056-.075-.057.057-.206-.076-.212-.085-.049-.058-.12-.821-.087-.837 0 0 .473-.06.535-.06.047.004.053-.149.003-.152-.077 0-.438.05-.451.014-.019-.081-.068-.352.05-.586.056-.101-.001-.2-.038-.096-.042.107-.338.578-.53.656-.156.066-.138.102-.038.128.08.016.163.114.148.112-.016.392-.053.874.065 1.08.076.128.282.263.376.178m-1.307.805c-.119.115-.213.221-.387.362.081.095.218.217.231.381.01.166.004.935.014 1.128.128 0 .105.013.324.005-.021-.131-.003-1.13-.003-1.273.082-.08.094-.092.188-.164.068.059.226.096.226.204 0 .107.032.581-.005.756a.766.766 0 0 0 .087.583c.085-.098.404-.327.473-.384.068-.06.033-.106-.055-.081-.095.021-.111.04-.111-.022 0-.115-.045-.635-.052-.967-.011-.333-.17-.432-.261-.477-.093.106-.301.24-.425.348-.093-.071-.14-.23-.244-.399m-1.257.227c.056.146.232.421.312.469-.137.143-.475.377-.569.444-.173-.221-.266-.584.257-.913m-.594.678c-.082.625.493.997.77 1.118a2.84 2.84 0 0 1 .349-.54c.105-.127-.011-.16-.105-.063-.127.144-.507.008-.608-.181.183-.142.662-.552.87-.727-.137-.132-.35-.461-.383-.649-.185.127-.799.392-.893 1.042m-.158-3.006c-.221.349-.343.897.042 1.217.18.156.33.277.699.209.073-.15.106-.2.236-.372-.255.041-.451-.006-.637-.151-.382-.304-.264-.793-.151-.96.206-.315.499.134.552.196.068-.084.186-.203.301-.296-.114-.154-.208-.299-.285-.392-.244.091-.603.316-.757.549m1.776-.928c-.029-.039-.085-.101-.088-.178l.006-.656c0-.064-.123-.057-.123 0-.006.096.008.258-.075.391-.23.364-.668.514-.976.066-.104-.147-.129-.372-.142-.533-.021-.214.137-.491.146-.516.392-.526.935-.136.979.078.029.143.06.317.06.409-.003.061.125.055.128-.008l.003-.931c.002-.052-.103-.069-.105 0-.006.129-.08.139-.175.107-.198-.06-.638-.157-.893-.006-.224.136-.568.453-.562.852.007.657.249.712.53.889.262.159.626.056.958-.042.132-.038.148.048.211.143.108.149.195.054.118-.065m.188 1.886c-.001.048 0 .09.001.133-.047.012-.099.024-.164.057-.089-.077-.507-.218-.233-.444.168.102.233.023.396-.08v.334M8.955 7.1c-.241.16-.317.155-.483-.037-.083-.098-.075-.284-.037-.352.075-.121.206-.243.268-.241.055.003.249.246.235.351.011.058.015.166.017.279m-.017-.905c-.215.021-.528.28-.621.503-.037.089.016.41.056.446.028.026.05.043.075.062-.142.137-.275.252-.271.452.006.193.156.367.35.457a.712.712 0 0 1 .439-.304c.014.156.049.269.148.346.071-.081.356-.333.41-.39.061-.058.016-.126-.054-.058-.042.04-.144-.019-.174-.068 0-.087 0-.977.037-1.017-.129-.144-.251-.445-.395-.429m1.571-2.176c.085-.085-.005-.147-.081-.073-.056-.069-.2-.221-.277-.313a3.293 3.293 0 0 1-.373.244c-.082-.096-.183-.096-.346-.227-.091.071-.292.222-.4.357.191.056.334.068.346.235.007.136-.014.976-.003 1.13.102.023.227.013.372.004.011-.119.006-1.172.006-1.29.054-.031.111-.061.137-.088.061.047.18.224.275.284.074-.057.263-.179.344-.263m.576.37c-.126-.415-.079-.558.172-.762.057.142.201.245.281.295-.142.141-.362.397-.453.467m.816.512c-.498.129-.73-.281-.78-.39.201-.21.543-.556.751-.731-.138-.13-.194-.346-.439-.364-.213.005-.711.253-.798.901-.084.622.486.958.937.977.15 0 .338-.199.431-.246.2-.1.126-.2-.102-.147m1.399-.756l-.207.172a.574.574 0 0 1-.166.008c-.17-.024-.252-.156-.33-.262-.082-.111.128-.202.231-.191.104.015.335.141.472.273m-.358.489c.113.053.228.106.353.181.182.106.089.306-.107.398-.199.094-.554-.17-.609-.278.072-.064.209-.176.363-.301m.854-.717c-.137-.098-.288-.333-.621-.348-.334-.014-.712.297-.834.492-.163.257.036.483.249.651-.136.12-.325.303-.5.472.07.078.453.264.668.258.325-.008.626-.18.811-.332.338-.274.221-.566-.123-.771a.253.253 0 0 0-.098-.033c.214-.173.4-.328.448-.389m.413 1.991l-.202-.215-.205.188.004.259.125.132h.127l.151-.141v-.223zm-.09-1.462c-.079-.004-.202.217.272.199.073-.003.128-.175-.272-.199m-.006.291c-.081-.005-.204.148.27.197.074.009.173-.17-.27-.197m.308 3.257l.176-.193c-.197-.038-.197-.025-.302-.122l.008-.931-.171-.259-.092.013-.395.373c-.106.098-.011.145.108.036l.203.128.008.877c.02.105.11.14.236.273l.221-.195zM13.214 9.65c.147.102.231.088.416.07a4.422 4.422 0 0 0-.015.239c0 .045.018.081.031.121-.096.034-.218.055-.311.103-.086-.077-.399-.296-.121-.533m.423-.03c-.16.004-.297-.046-.472-.204-.033-.029-.064-.232-.026-.3.076-.125.076-.163.144-.162.052 0 .374.199.357.305a2.09 2.09 0 0 1-.003.361m-.557-.077c-.142.151-.248.316-.246.525.007.199.072.395.269.485.174-.132.399-.291.615-.333.106.131.269.218.367.296.067-.083.283-.263.342-.319.057-.059 0-.142-.059-.064-.046.071-.198.019-.242-.053 0-.085-.079-.979-.044-1.019-.125-.144-.342-.469-.488-.452-.212.022-.529.334-.597.435-.052.075.016.444.056.479.011.008.017.01.027.02m-.566-2.124a.756.756 0 0 0 .677.526c.069-.132.197-.334.268-.427.104-.141-.002-.227-.075-.063-.057.127-.359-.011-.468-.119-.147-.142-.238-.509-.121-.638.118-.131.288-.071.507-.078.144-.006.174-.143.199-.213a3.638 3.638 0 0 1-.31-.178c-.141.091-.359.28-.453.361-.117.101-.357.453-.224.829m-.086 2.799l.172-.196c-.193-.036-.103-.035-.205-.131l-.006-.804-.251-.376-.095.013-.392.375c-.104.094-.012.139.109.036l.259.138.006.85c.022.106.113.13.24.264l.163-.169zm3.27 4.638s.158-.177.157-.302c0-.171-.157-.295-.157-.295.135.039.455.224.569.301l-.569.296zm1.004-.311v-.023c-.351-.052-.626-.304-.948-.429-.444-.172-.916.18-.916.235 0 .123.127.187.486-.046-.282.335.038.608.038.608a1.27 1.27 0 0 1-.39-.121c-.022.121.14.165.217.217.597.25.989-.337 1.513-.441m4.034-5.606c-.092.096-.252.205-.402.375.124.011.228.039.287.16.062.121.01.632.018.83.01.19.123.231.271.389.147-.038.559-.214.698-.312-.013.157.181.332.295.367.076-.085.16-.132.272-.24-.109-.075-.095-.086-.137-.235-.031-.144.008-.69.012-.923a1.741 1.741 0 0 0-.376-.411c-.104.097-.243.226-.406.402.122-.016.361.034.372.138.008.136.027.431 0 .661-.027.232-.635.126-.642-.03-.014-.16.031-.621.034-.84a1.028 1.028 0 0 0-.296-.331m.304-1.797c.044-.231.201-.325.274-.394.102.117.204.248.358.248.15.001.306-.07.355-.133-.124-.103-.406-.408-.463-.465-.143.082-.764.412-.817.793-.075.564.099.676.34.985.135.176.362.183.465.156a7.81 7.81 0 0 0 .563-.524c.041-.047-.018-.093-.069-.044-.05.047-.03.068-.097.079-.069.012-.346.059-.507-.028-.201-.108-.463-.363-.402-.673m-1.734-.061c.015.378-.177.777-.387.957.363-.097.41-.318.608-.579.109.166.313.367.461.453.105-.069.401-.411.466-.482-.214-.057-.626-.282-.729-.518-.081-.175-.062-.258.019-.396.072.098.573.333.799-.061-.247-.092-.468-.258-.544-.392-.066.056-.286.303-.41.381-.029-.135-.232-.281-.396-.313-.053.06-.44.362-.616.451-.055.027-.034.147.042.117.072-.032.192-.125.33-.192.16.063.341.23.357.574m-.07 1.821c-.148.075.197.216.174.21-.005.401-.084 1.057.051 1.265.082.126.272.211.398.161.122-.05.277-.3.323-.34.09-.069.013-.143-.062-.071-.075.071-.277.019-.304-.051-.021-.077-.047-.951-.012-.969 0 0 .244-.006.309-.003.051 0 .055-.16.005-.16-.089-.001-.286-.019-.297-.054-.029-.083.007-.35.057-.458.052-.11-.047-.157-.086-.051-.04.114-.296.39-.556.521m-1.399.263c.083-.13.135-.156.202-.156.06.003.292.167.28.277.011.072.013.221.013.373-.174.021-.296.042-.491-.126-.036-.03-.046-.301-.004-.368m.104.588c.128.072.192.027.39.006-.001.127-.005.242-.005.304-.087.064-.195.119-.318.182-.098-.083-.241-.153-.067-.492m-.16-.12c-.107.105-.298.374-.294.572a.75.75 0 0 0 .213.508c.196-.14.319-.333.645-.461.04.155.147.179.274.278.077-.085.354-.435.414-.495.062-.06.027-.122-.06-.06-.088.06-.148.023-.294-.138.006-.087-.01-.8.024-.84-.133-.146-.255-.347-.412-.331-.229.02-.519.427-.591.534-.057.076.002.369.046.405.015.014.022.016.035.028m-1.332-1.354c.007.193.076 1.85.056 2.08-.013.132.159.27.316.381.076-.095.242-.342.379-.447.081-.068.025-.113-.037-.088-.124.06-.249.013-.261-.133a47.875 47.875 0 0 1 0-1.778c-.095 0-.364-.007-.453-.015m-.117-1.202c.007.678.27.734.57.912.285.165.763.132 1.121.035.136-.041.209-.049.205.071 0 .076.103.059.103.003l.004-.686c0-.072-.1-.061-.1 0 0 .096 0 .123-.091.258-.246.375-.863.36-1.194-.097-.113-.157-.215-.365-.084-.405.13-.04.527.045.789.067.157.009.52.049.566.076.04.029.101.069.101-.012.004-.079.004-.341.004-.421 0-.078-.059-.041-.104-.013-.045.032-.432.098-.586.126-.156.03-.636.069-.763.026-.129-.044-.086-.31.029-.462.335-.454 1.01-.424 1.254-.046.084.133.084.163.084.261 0 .06.097.067.097 0a36.4 36.4 0 0 0 .008-.804c0-.053-.098-.073-.098 0 0 .049-.107.079-.213.049-.21-.067-.821.03-1.093.183-.242.142-.614.469-.609.879m2.599-3.937c-.125-.015-.536.021-.684.045-.148.022-.148.097-.025.112.123.013.147.039.212.209.059.172-.237.946-.311 1.128-.087-.132-.401-.841-.401-.938 0-.069.138-.137.198-.154.116-.037.114-.119.026-.137-.246-.035-1.112-.114-1.265-.133-.111-.009-.161.122-.027.122.139.004.283-.039.435.19.175.257.723 1.467.854 1.975.065-.106.613-1.734.644-1.907.04-.169.155-.333.316-.383.166-.045.151-.119.028-.129m.742.296l.162-.145v-.233l-.219-.218-.218.189.005.269.135.138h.135zm.25 2.122l.289-.385c-.209-.037-.296-.076-.442-.248l.005-.957-.295-.302-.101.012-.463.415c-.048.075.076.075.138-.012l.336.198.015.925c.026.111.115.219.249.354h.269zm1.923-1.64c-.089 0-.68.013-.696-.022-.043-.129-.054-.288.048-.508.051-.109-.048-.154-.086-.044-.037.107-.333.527-.641.663-.159.064.193.213.168.207-.001.404.055 1.01.14 1.254.052.144.212.38.322.308.072-.046.226-.361.275-.4.086-.072.002-.195-.069-.122-.08.072-.147-.038-.168-.113-.027-.071-.099-.962-.062-.978 0 0 .7-.088.769-.088.048 0 .05-.157 0-.157m1.077 1.727a.751.751 0 0 0-.303.093c-.101-.085-.363-.409-.17-.77-.026-.018-.054-.033-.08-.049.178.102.386.191.549.246l-.006.321c0 .061.004.111.01.159m-.003-.568c-.185-.068-.548-.244-.68-.356-.035-.028-.039-.045.004-.115.084-.127.18-.24.247-.234.057 0 .427.203.415.309.013.076.015.236.014.396m.226.968l.374-.42s-.166-.134-.265-.258c0-.087 0-.928.036-.974-.282-.258-.487-.29-.609-.273-.228.036-.461.334-.535.435-.054.079-.04.179 0 .216.045.038.104.077.166.115-.01-.005-.02-.013-.031-.018-.106.103-.262.4-.257.602.002.202.18.495.299.604.132-.104.327-.28.614-.336a.482.482 0 0 0 .208.307m.013 2.222c-.097-.047-.449-.326-.529-.539-.106-.288-.106-.605.192-.792.233.088.504.323.529.538.033.281-.046.612-.192.793m.316-.113c.102-.19.253-.496.243-.73-.014-.287-.186-.713-.596-.854-.521.19-.843.611-.858 1.11-.01.292.233.892.733.897.153-.153.316-.313.478-.423m.492 1.454a2.632 2.632 0 0 0-.378-.326 2.747 2.747 0 0 1-.375.265c-.084-.098-.195-.233-.365-.366-.102.072-.397.347-.521.419.179.005.447.066.457.237.006.139-.01 1.004 0 1.161.109.024.239.012.399.004.008-.123.004-1.12.008-1.241.053-.031.116-.061.147-.088.062.046.25.267.359.326a6.53 6.53 0 0 0 .355-.315c.09-.092-.008-.151-.086-.076m0-1.83c.067.022.189.04.315.05.079.01.053-.125-.008-.151a1.098 1.098 0 0 0-.281-.052c-.09 0-.133.121-.026.153m.318-.401a1.006 1.006 0 0 0-.287-.05c-.086 0-.132.125-.025.154.068.02.195.043.316.049.083.008.057-.127-.004-.153m2.131 21.213c-.166.836-.448 1.61-.938 2.331-.343.511-.483-.482-.187-1.443.42-.172.84-.506 1.125-.888m-.468.169c-1.095 1.109-2.739.707-4.034 1.302-1.174.439-2.023 1.551-3.254 1.832-.362.12-.421.306-.191.3.135-.005.885.799 2.085.18.401-.208 1.646-.919 1.856-.959-.673.658-1.012 1.245-1.614 1.592-.368.213-1.87.765-3.367.466-.663-.131-1.174.496-1.005.481.355-.097.753-.047.993.274.434.349 1.064.784 1.606.136.18-.216 1.039-.673 1.847.168-.859-.046-.774 1.539-2.402 1.353-.603-.004-1.935-1.418-2.314-.982-.673.777 1.446 1.513.529 2.488-.829.881-1.82-.702-1.82-.702.518.223 1.472.366 1.052-.496-.167-.343-.484-.65-.484-1.284-.073-.315-1.97 2.506-3.224 1.232-.494-.501-1.492-1.599-2.396-2.017 2.395-.209 2.76.774 2.874.931.766 1.06 1.474-.016 1.637-.203.25-.293.603-.694.478-.755-.929-.452-1.991-.547-2.784-.175 1.698-2.392 3.019-.151 3.018-.151.186.118-.047-1.42-1.726-1.504-1.049-.054-1.971.914-2.694.913-.588-.001-2.371-1.235-2.79-2.332 1.037.796 2.36 1.252 3.185.748 1.55-.947 3.502.482 3.595.311-.433-.348-1.419-1.704-4.081-.931-1.033.609-1.468-.45-2.102-.468 1.078-.982 1.826-.482 2.203-.454.09 0-.45-.455-.828-.495-2.941-.314-4.805-1.144-4.805-1.144-.015 0 .245-.608 1.51-.168 0 0-1.134-.713-1.125-1.627.037-.565.303-1.169-.118-1.639 1.708-.072.495 2.37 1.694 2.999.025.01-.353-.583.18-1.044a1.926 1.926 0 0 0 1.286 1.205c.101-.057.225-.277.225-.276-.451-.766-.51-1.656-.389-2.678l.018-.01c.097.005.261.352.376.606.249.548.244 1.339.74 1.99.274.359.444.717.691.891.106-.254.028-.692.011-.807-.056-.415-.31-1.142.382-1.784.323.958.763.68.822 1.139.083.643.056.541-.009 1.035.033.68.636.871 1.171 1.306 1.207.673 2.008 1.038 2.533 1.9.257-1.455-3.573-1.746-3.08-4.554-.051-1.121.137-1.216-.638-1.9 1.536.046 2.374 2.633 2.457 3.105.154.868.668.913 1.373 2.045.101.038-1.261-3.015.363-5.629 0 0 .548 1.358.289 2.249-.155.536-.011 1.128.018 1.465.03.343-.066-1.238 1.094-2.056.072.598.631 1.525.102 2.518-.645 1.208-.692.774-.702 2.26.059-.026.225-1.025.668-1.591.934-1.198.267-1.843 1.179-2.882.072.52.201.314.256.777.122 1.038-.935 2.173-.701 2.137.269-.037.701-.277.846-1.065 0 0 .389.719.033.959-.645.433-.779.901-.679 1.426.517-.634 1.224-1.336 1.101-2.237.059-.545.634-.766.749-2.03.019-.209.223-.463.427-.576-.089.711.449 1.445-.163 2.315.139.077.657-.678 1.413-.403-1.518.281-1.075 1.967-2.238 2.748-.35.236-.29.5-.395.529 1.038-.059 1.838-1.328 1.977-1.425 1.044-.724 1.273-.835 1.69-2.009.163-.445.045-.642.623-1.245.254.594-.115 1.824-.203 2.089-.186.566-.843 1.057-.704 1.057 2.798-1.266 2.763-2.118 3.433-3.025.2-.346 1.196-.947 1.568-1.003-.091.189-.478.507-.496.85-.034.635-.234 1.022-.546 1.531.174.221.508-.418.849-.097-.451.153-.653.67-1.004.974m-2.562-.901c.081-.298.081-.504.119-.766.016-.112.019-.098.024-.194.002-.031.791.673.835.702-.198.256-.368.347-.556.527-.134-.12-.43-.242-.422-.269m.24.439c-.365.328-.603.445-.524.281.089-.18.155-.335.204-.471.017-.045.32.19.32.19m3.575-3.183c-.333.089-1.213.449-1.425.804.113-1.953-.502-3.867-.697-4.33-.382-.902.17 2.098.208 2.788.001.032-3.157-4.161-1.25-.931.494.835 1.265 1.382 1.266 1.396.013.582-.025 1.011-.133 1.323-.194.159-4.299-5.603-2.03-1.613.281.496 1.927 1.994 1.914 2.023-.105.228-.29.558-.545.802-.043-.044-.947-.727-.953-.769-.069-.445-.071-.865-.608-.55 0 0-2.022-2.415-1.085-.723.409.74.678.822.787.954 0 0-.314.435-.415.899-.041.185-1.754-1.948-1.082-.608.216.43.999.898.991.929-.081.279-.162.549-.247.725-.108.222-1.612 1.452-1.61 1.45 0 0 .294-.972.933-1.45.365-.274.366-.214.608-.369-.005-.145-.14-.38-.315-.442-.22-.08-.931.053-.931.053.066-.364-.246-1.152-.242-2.018-.268.028-.738.452-.851.694-.083 1.435-.387 1.004-.671 2.037-.31-.434.021-1.055-.282-1.459-.417-.558-.48-.933-.542-1.619.098-.057.523-.538.136-1.55-.063-1.59.629-2.197-.609-3.309.104-.036.179-.832.179-.833.912.499.731-.578 1.087-.789.564-.335.462-.684.208-1.118 1.614.471-.072 1.602.658 1.627.53.016.885-.121 1.115-.487.245-.385-.042-.623.642-1.249.069-.063.25-.48-.293-.594-.118-.027.001-.503.001-.503-.434.377-.571.91-1.27.572-.358-.172-.59-.002-.736.07 0 0-.074-.299.222-.402.764-.262.953-.575.912-.747-.104-.407-.135 0-.113-.429.01-.171.203-.403.364-.6.518-.642.885-.403 1.018-.346.301-.238.354-.221.635-.335.48-.194 1.521.129 2.102.405.283.13.62.209.949.136-.004.173-.122.267-.241.301-.181.058-.398 0-.384.137.009.079.257.093.413.137.862.242 1.978 1.033 1.245.866-.086-.02.528.471.992 1.11l1.644 1.638c-.075.092-.652.009-2.477-1.747-.26.239 2.22 2.156 3.244 4.19-.089.063-1.364-.412-1.824-.9-.709-.752-1.523-2.664-1.858-2.384-.041.016 1.347 2.233 2.033 3.546.346.665.631 1.618.654 2.337.11 3.539-.41 3.269-.409 3.269-.809-2.792-1.187-6.031-2.367-7.526-.471-.597 1.261 2.614 1.335 5.511m1.276-18.97l-.034-.255c-.025-.182-.537-.289-.899-.127-.507.227-1.775.97-2.238.83V4.761c1.141.508 1.588.049 1.955.049 1.127 0 1.183 1.079 1.183 1.079l.033.255M27.305 8.65c.99-.149 1.139 1.049 1.139 1.049h-.001c-.244-.198-.734-.288-1.066-.068-1.106.73-2.103.739-2.103.739V8.539s.21.384 2.031.111m-2.365 3.718c-1.797.126-5.523-.922-6.471-.922-1.955 0-2.9.781-2.9.781s.002-9.1 0-9.429c0 0 2.568-1.235 4.437-.528 2.289.867 4.934.483 4.934.483v9.615zm-7.443 1.42c.059.366-.27.457-.269.457.512.122.757-.191.857-.388.197.84-.628.888-.885.937-.001 0 .418.124.44.403.054.711.5.65.596.595-.016.085-.154.515-.654.127-.085.085.136.218.18.57.056.446.043.86.544 1.131-.307.251-.67-.402-.701-.324-.036.088.427.327-.083 1.56-.232-.137-.103-.111-.372-.44-.207-.177-.288-.217-.115.076.3.384.371 1.267.268 1.505-.248-.113-.185-.315-.477-.59-.027.116.09.701.392.98.522.483.707 1.067.716 1.182.042.44-.093 1.019-.144 1.585-.25-.037-.463-.768-.524-.725-.074.049.032.714.504 1.166.229.685.137 1.054.076 1.079-.081.036-.335-.702-.474-.573.673 1.754.202 2.366.024 2.906-.139-.554-.209-.968-.383-1.596-.367.295-.454.732-.902 1.132 0-.715-.404-2.443-.724-2.846-.014-.017-.577 1.55-.834 2.247-.333.903-.385 2.032 0 2.912-.83-1.211-.919-3.465-.203-3.769.062-.162-.043-.693-.203-.627-.045.26-.015.483-.224.735-.55-.165-.3-.853-.25-1.082.713-.877.267-1.079.234-1.056-.077.202-.145.446-.363.538-.457-.806-.164-2.072.705-3.017.037-.353-.388.263-.665.242-.073-.68.168-1.862 1.394-1.905-.233-.071-.359-.113-.416-.315.371-.056 1.535-.147 1.342-1.088-.11.113-.145.282-.448.472-.204.127-.426.138-.542-.047.54-.183.362-.855-.343-.658-.215.061-.531-.17-.547-.428.157.162.475.043.659-.079.792-.53 1.276.237 1.383.401.032 0 .356-.765-.77-.971-.094-.269-.351-.743-1.115-.684-.252-.911-1.013-.462-.988-.049-.809-.611.014-1.383.341-1.502.226.02.176.756.574.631.096-.029-.309-.507-.154-.723.365-.214.357.274.537.092.089-.318.447-.498.742-.532.827-.12 1.471.81 2.264.353m-2.36-1.568s-1.217-.678-2.646-.774c-1.383-.096-4.175 1.038-6.319.887V2.671s2.445.334 3.449-.064c3.415-1.351 5.516.158 5.516.158v9.455zm-9.4-2.022H4.574V9.024h1.163v1.174zm0-4.09H4.574V4.934h1.163v1.174zm-2.533 4.429c-1.365 0-1.365-2.052 0-2.052 1.313 0 1.321 2.052 0 2.052m0-4.099c-1.335 0-1.307-2.053 0-2.053 1.313 0 1.313 2.053 0 2.053M12 16.022c-.244-.427.291-.834.291-.834-.016 1.2 1.479.377 2.26.757a.851.851 0 0 1 .397.436c-.84-.595-2.392.615-2.948-.359m-4.042 10.16c.006.411-.022.716.095 1.134.189.631.094.436-.164.219-.205-.234-.397-.427-.496-.7-.024-.195.128-.206.565-.653m-3.011-8.481l-.023-.023c-.027 0-1.943 1.24-3.188.645.927-.526 4.14-2.619 5.018-3.214.415.093.582-.061.715-.155-.336.021-1.449.199-.886-.822.216.915 1.777.072 2.337-.06 1.561-.367 1.55 1.343 1.417 2.051-.05.263.478.451.738.413-.447 1.131-1.211.064-1.302.496-.037.175-.549.311-.547.746.004.594.23.27.251.729.022.446-.186.1-.139.582.075.766 1.31-.103 1.82.105.255.103.424.338.673.291.073-.06.04-.35.029-.454-.026-.243-.465-.271-.669-.603-.177-.289.202-1.16.408-1.417.294 1.438 1.608.987 1.804 2.5.124.427-.451.902.015 1.598-.347.345-.763 1.982-.038 2.751-.123.348-.284 1.151.361 1.62-.217.474-.167 1.054.016 1.644-.402.002-.322-2.312-2.731-2.386-.054-.017-.067.263.002.388.289.519.676.49.593 1.714-.028.419-.268-.073-.395-.189-.292-.265-.518-.3-.645-1.162-.979.788-.882 1.741-.821 2.225 0 .001-.216-.603-.464-1.224-.013-.033.995-1.276 1.155-1.571 2.033-3.752-1.312 1.213-1.319 1.196-.181-.429-.338-.797-.444-.914.026-.051.584-.69.836-1.229 1.573-3.356-.934 1.118-1.023 1.036-.19-.173-.346-.393-.466-.314-.029.515-.148.446-.114.972a6.6 6.6 0 0 1-1.217 1.201s-.098-.932-.072-.964c.197-.247.971-1.097 1.129-1.352 2.576-4.149-1.207 1.001-1.214.956-.026-.164-.234-.435-.454-.666 0 0 .835-1.167 1.041-1.601 1.567-3.306-1.26 1.465-1.292 1.447-.068-.037-.074-.035-.153-.063-.079-.028.086-.952.195-1.509.213-1.101-.357-.214-.511 1.531-.146.025-.499.062-.632.186.086.466.194.108.384.555.228.536-.317 1.415.157 2.059.184.248.194.206.158.371-.292-.023-.469-.028-.654.23-.358-1.672-.347-2.476-.263-4.176.037-.772.285-1.941.172-1.961-.108-.022-1.815 4.486-2.227 5.37-.72-.25.448-4.151 1.933-6.03.14-.597-.778.607-1.327 1.085-.502.439-1.139 1.012-1.832.816.89-.965 2.932-2.773 3.159-3.224.19-.386-1.393 1.205-3.066.613 1.082-.594 3.608-1.917 3.612-2.839m-.017 10.98c.279.193.608.279.91.412.374 1.001.009 1.987-.201 1.578-.368-.716-.513-1.311-.709-1.99m25.772-5.576L30.701.768C13.205-.961 0 .768 0 .768v22.34c1.394 15.141 15.221 16.92 15.352 16.895 2.47-.456 14.062-2.847 15.35-16.898m8.13 5.41c0 4.137 1.939 7.055 4.44 8.818 2.282 1.572 4.971 2.148 7.785 2.148 2.001 0 4.252-.48 4.94-.736.344-.128.72-.256 1.094-.322.469-.609 1.282-2.724 1.501-4.393-.125-.223-.594-.287-.813-.128-.719 1.892-2.501 4.587-6.534 4.587-5.128 0-9.286-3.721-9.286-10.454 0-6.638 4.064-9.748 8.848-9.748 4.533 0 5.94 2.5 6.409 4.682.219.191.688.16.844-.065-.25-1.956-.406-3.977-.437-4.714-.281.033-.5-.032-.876-.127-1.469-.417-3.845-.77-5.534-.77-3.251 0-6.159.897-8.441 2.724-2.377 1.893-3.94 4.939-3.94 8.498M47.706.744l.01-.038-.017-.036c-.051-.1-.196-.108-.239-.108a.324.324 0 0 0-.123.021l-.032.012-.017.031c-.168.298-.237.323-.93.323h-5.385c-.584 0-.845-.032-.899-.33l-.006-.033-.022-.022c-.037-.037-.095-.055-.18-.055a.405.405 0 0 0-.194.043l-.036.025-.007.043a14.297 14.297 0 0 1-.491 1.973l-.014.042.019.039c.078.161.345.238.488.129l.021-.016.011-.025c.132-.308.257-.6.562-.887.287-.271.937-.307 1.535-.307h.716c.291 0 .291 0 .291.324v5.974c0 1.447-.081 1.51-.716 1.568l-.469.04-.044.015c-.078.048-.121.148-.116.265.004.091.038.203.124.246l.022.012h.026a56.48 56.48 0 0 1 1.807-.04c.509 0 .929.012 1.704.04h.025l.023-.012c.085-.043.122-.161.127-.259.007-.116-.026-.208-.091-.251l-.463-.056c-.652-.058-.691-.146-.691-1.568V1.879c0-.137 0-.267.022-.289.022-.022.163-.022.256-.022h.925c.698 0 1.173.103 1.452.314.124.092.23.431.286.905l.003.03.019.023c.048.06.136.095.236.095.124 0 .227-.055.269-.142l.013-.026-.003-.029c-.037-.385.053-1.462.193-1.994m10.712 7.122V3.055c0-1.423.039-1.511.691-1.581l.272-.026.046-.017c.065-.044.099-.136.092-.253-.003-.048-.021-.204-.128-.258l-.023-.013-.026.002c-.63.028-1.06.04-1.533.04-.565 0-1.02-.015-1.572-.04l-.025-.002-.023.013c-.107.054-.125.21-.129.256-.007.117.026.21.091.254l.293.044c.665.07.705.158.705 1.581v1.536c0 .327 0 .327-.551.327h-3.726c-.551 0-.551 0-.551-.327V3.055c0-1.423.038-1.511.691-1.581l.248-.026.045-.018c.065-.044.098-.136.091-.254-.003-.046-.021-.202-.129-.256l-.023-.013-.025.002c-.593.028-1.03.04-1.507.04-.34 0-.637-.01-.961-.021a48.184 48.184 0 0 0-.678-.019l-.024-.001-.022.012c-.107.053-.125.209-.129.255-.007.118.026.211.091.255l.022.016.365.028c.574.046.676.167.676 1.581v4.811c0 1.391-.025 1.448-.673 1.569l-.252.045-.022.023c-.075.076-.086.2-.072.292.016.099.061.174.123.205l.022.012h.025l.521-.017c.308-.011.627-.023.988-.023.489 0 .905.012 1.651.04h.026l.023-.012c.085-.043.122-.161.127-.259.007-.116-.026-.208-.091-.251l-.422-.056c-.625-.069-.705-.133-.705-1.568V5.981c0-.324 0-.324.551-.324h3.726c.551 0 .551 0 .551.324v1.885c0 1.42-.014 1.45-.71 1.568l-.28.045-.023.024c-.075.077-.085.202-.071.293.016.099.061.173.124.204l.023.012.025-.001a33.186 33.186 0 0 1 1.572-.039c.513 0 .965.015 1.572.039l.026.001.022-.011c.108-.054.126-.211.129-.257.007-.116-.026-.209-.091-.253l-.356-.057c-.661-.081-.693-.156-.693-1.568m10.888.207l.006-.033-.013-.029c-.056-.128-.194-.187-.307-.187a.293.293 0 0 0-.168.051l-.031.038c-.374.765-.71 1.152-.881 1.25-.28.144-.674.19-1.623.19-1.085 0-1.365-.134-1.503-.275-.184-.201-.22-.637-.22-1.319V5.874c0-.258 0-.258.33-.258h.756c.454 0 .794.01.978.064.181.047.274.167.331.432l.117.519.02.044c.049.059.14.096.244.096.119 0 .216-.046.259-.124l.013-.023v-.029c0-.129-.01-.301-.021-.495-.014-.244-.031-.519-.031-.787 0-.279.017-.566.031-.818.011-.204.021-.387.021-.531v-.027l-.013-.023c-.043-.079-.14-.125-.259-.125-.104 0-.195.037-.244.097l-.125.593c-.059.305-.132.351-.246.389-.139.048-.531.075-1.075.075h-.756c-.33 0-.33 0-.33-.27V1.999c0-.431 0-.431.29-.431h.939c.553 0 .975.012 1.239.078.594.152.713.537.894 1.121l.025.079.018.034c.045.056.12.087.212.087.09 0 .216-.032.274-.121l.019-.03-.017-.198c-.068-.778-.129-1.438-.199-1.64l-.031-.089-.088.023c-.144.037-.953.037-1.734.037h-2.449c-.502 0-.932-.012-1.532-.04L62.4.907l-.023.013c-.108.054-.126.21-.129.256-.007.117.026.21.091.254l.252.044c.667.081.706.169.706 1.581v4.811c0 1.447-.081 1.51-.716 1.568l-.466.043-.025.026c-.075.076-.086.2-.072.292.016.099.061.174.123.205l.023.012h.025c.753-.025 1.206-.04 1.769-.04h1.172c1.137 0 2.278.014 3.49.04l.064.002.028-.06c.175-.373.502-1.411.594-1.881m1.261 10.437c.187-.128.125-.705-.063-.8a73.424 73.424 0 0 1-3.627.095c-1.344 0-2.407-.063-3.939-.095-.188.095-.25.672-.063.8l.813.065c1.626.129 1.845.673 1.845 4.041V34.16c0 3.366-.063 3.687-1.814 4.008l-.531.095c-.188.193-.125.706.062.802 1.22-.032 2.283-.096 3.627-.096 1.22 0 2.283.032 3.971.096.188-.096.25-.675.063-.802l-.907-.095c-1.751-.193-1.907-.642-1.907-4.008v-4.523c0-.961.062-1.026 1.563-1.026h8.942c1.501 0 1.563.065 1.563 1.026v4.523c0 3.366 0 3.687-1.907 4.008l-.594.095c-.188.193-.125.706.062.802a77.512 77.512 0 0 1 3.783-.096c1.22 0 2.283.032 3.784.096.187-.096.249-.675.062-.802l-.75-.095c-1.814-.225-1.876-.642-1.876-4.008V22.616c0-3.368.062-3.849 1.876-4.041l.657-.065c.187-.128.124-.705-.063-.8-1.407.063-2.47.095-3.69.095-1.281 0-2.345-.032-3.783-.095-.187.095-.25.672-.062.8l.594.065c1.845.192 1.907.673 1.907 4.041v3.687c0 .994-.062 1.027-1.563 1.027H69.66c-1.501 0-1.563-.033-1.563-1.027v-3.687c0-3.368.062-3.849 1.876-4.041l.594-.065zM85.543 1.398a.37.37 0 0 0 .069-.281.273.273 0 0 0-.12-.193l-.026-.018-.032.003c-.453.025-.804.04-1.362.04-.5 0-.984-.015-1.48-.04l-.033-.003-.028.02a.295.295 0 0 0-.114.209.341.341 0 0 0 .067.264l.027.032.367.029c.299.026.503.107.572.23.152.274.236 1.238.236 2.714v1.538c0 1.575-.435 3.45-2.506 3.45-1.736 0-2.545-1.101-2.545-3.464V3.042c0-1.421.045-1.524.69-1.582l.338-.028.022-.015c.065-.044.098-.134.091-.246-.006-.094-.043-.209-.128-.251l-.024-.012-.025.001c-.618.025-1.055.04-1.598.04-.535 0-.996-.015-1.611-.04l-.025-.001-.023.012c-.085.042-.123.157-.129.249-.007.113.026.203.091.248l.022.015.351.028c.645.058.69.161.69 1.582v3.153c0 1.616.324 2.613 1.051 3.231.574.504 1.415.76 2.501.76 1.027 0 2.008-.387 2.562-1.009.631-.694.938-1.761.938-3.263v-1.51c0-.677 0-2.262.174-2.683.06-.134.283-.236.568-.261l.355-.029.027-.033zm11.679.02a.346.346 0 0 0 .082-.273.296.296 0 0 0-.126-.221l-.027-.018-.032.003c-.428.025-.767.04-1.336.04-.46 0-.89-.012-1.533-.04l-.02-.001-.019.007c-.076.028-.129.102-.147.2a.34.34 0 0 0 .09.309l.023.02.252.03c.447.057.674.126.735.22.156.252.245 1.24.245 2.71v2.86c0 .129 0 .279-.008.381a57.5 57.5 0 0 1-1.512-1.695l-1.812-2.086c-1.289-1.483-2.027-2.455-2.193-2.89l-.03-.076-.079.011c-.156.025-.369.04-.584.04-.228 0-.921 0-1.465-.04l-.027-.003-.025.014a.268.268 0 0 0-.132.202.358.358 0 0 0 .08.295l.024.027.256.03c.347.044.606.145.746.288.243.273.261.519.261.893v3.981c.001.647.002 2.16-.161 2.59-.03.069-.141.16-.493.208l-.386.043-.026.026a.333.333 0 0 0-.079.255.32.32 0 0 0 .118.234l.029.022.035-.003c.453-.025.802-.039 1.349-.039.441 0 .882.011 1.52.039l.035.003.028-.022a.3.3 0 0 0 .115-.2.386.386 0 0 0-.067-.278l-.026-.037-.451-.043c-.312-.026-.53-.101-.585-.204-.14-.253-.221-1.243-.221-2.714V3.604c0-.24.004-.495.027-.676.208.237.552.656.863 1.031.212.259.409.497.537.647l3.023 3.528c1.004 1.171 1.485 1.753 1.66 2.008l.03.044h.052c.171 0 .299-.082.343-.218l.007-.021-.003-.024c-.018-.155-.038-.685-.038-2.325l-.001-3.374c-.002-.684-.007-2.109.185-2.525.016-.034.173-.149.655-.225l.215-.031.024-.025zm-1.613 32.677V22.68c0-3.399.063-3.945 1.908-4.105l.781-.065c.188-.128.125-.705-.062-.8a90.348 90.348 0 0 1-3.877.095c-1.313 0-2.376-.032-3.939-.095-.188.095-.251.672-.063.8l.782.065c1.844.16 1.907.706 1.907 4.105v11.415c0 3.4-.063 3.848-1.907 4.073l-.782.095c-.188.193-.125.706.063.802a89.2 89.2 0 0 1 3.939-.096c1.25 0 2.313.032 3.877.096.187-.096.25-.675.062-.802l-.781-.095c-1.845-.225-1.908-.673-1.908-4.073m6.54-26.257V3.082c0-1.445.046-1.551.702-1.608l.352-.028.021-.016c.066-.044.099-.137.091-.254-.003-.046-.021-.202-.128-.256l-.023-.012-.025.001c-.616.025-1.076.04-1.612.04-.559 0-1.007-.015-1.637-.04l-.025-.001-.023.012c-.107.054-.125.21-.129.256-.007.118.026.21.092.255l.021.015.351.028c.658.057.704.163.704 1.608v4.756c0 1.439-.034 1.513-.707 1.596l-.36.043-.024.026c-.075.076-.086.202-.072.292.016.099.061.174.124.205l.023.012.025-.001a40.342 40.342 0 0 1 1.637-.039c.516 0 .964.014 1.612.039l.025.001.023-.011c.108-.054.126-.212.128-.259.008-.115-.026-.208-.091-.251l-.369-.057c-.674-.083-.706-.157-.706-1.596m3.997 12.179c-2.376 1.893-3.94 4.939-3.94 8.498 0 4.137 1.939 7.055 4.44 8.818 2.283 1.572 4.971 2.148 7.785 2.148 2.001 0 4.253-.48 4.94-.736a6.366 6.366 0 0 1 1.094-.322c.469-.609 1.282-2.724 1.501-4.393-.124-.223-.594-.287-.812-.128-.72 1.892-2.502 4.587-6.535 4.587-5.128 0-9.286-3.721-9.286-10.454 0-6.638 4.065-9.748 8.848-9.748 4.534 0 5.94 2.5 6.409 4.682.219.191.688.16.844-.065-.25-1.956-.406-3.977-.437-4.714-.282.033-.5-.032-.876-.127-1.469-.417-3.846-.77-5.534-.77-3.251 0-6.159.897-8.441 2.724m8.506-18.599c.071-.073.082-.201.071-.288-.013-.096-.055-.17-.119-.207l-.025-.017-.031.003c-.436.026-.836.04-1.257.04-.512 0-1.004-.015-1.348-.04l-.03-.003-.027.017c-.072.041-.121.13-.131.236a.315.315 0 0 0 .09.265l.023.02.265.03c.455.053.497.151.498.151 0 .087-.013.222-.11.485-.225.581-.846 2.111-1.211 2.989-.096.227-.218.524-.352.851a81.54 81.54 0 0 1-.803 1.905 143.42 143.42 0 0 1-1.761-4.399c-.381-.959-.6-1.656-.641-1.83.02-.043.133-.1.523-.152l.225-.031.022-.019c.067-.06.1-.158.09-.265-.01-.106-.059-.195-.13-.236l-.026-.017-.03.003c-.579.028-1.035.04-1.571.04-.544 0-.96-.013-1.349-.04l-.032-.003-.027.018a.31.31 0 0 0-.134.24c-.007.103.028.2.095.26l.023.02.266.03c.507.06.679.299.974 1.033l2.293 5.799c.273.692.473 1.287.594 1.762l.013.051.047.019a.592.592 0 0 0 .232.048c.075 0 .146-.02.2-.058l.03-.02.01-.034c.223-.717.849-2.292 1.351-3.477l.703-1.642c.604-1.406 1.106-2.466 1.453-3.062.166-.275.34-.397.599-.419l.428-.029.027-.027zm8.937 6.655l.007-.033-.014-.029c-.056-.128-.194-.187-.306-.187a.294.294 0 0 0-.169.051l-.031.038c-.373.765-.71 1.152-.88 1.25-.28.144-.675.19-1.623.19-1.086 0-1.365-.133-1.503-.275-.185-.201-.221-.637-.221-1.319V5.874c0-.258 0-.258.33-.258h.756c.455 0 .795.01.978.064.182.046.274.167.332.432l.116.519.02.044c.049.06.141.096.245.096.119 0 .216-.046.259-.124l.013-.023v-.029c0-.129-.01-.301-.021-.495a12.974 12.974 0 0 1-.031-.787c0-.279.016-.566.03-.818.012-.204.022-.387.022-.531v-.027l-.013-.023c-.043-.079-.14-.125-.26-.125-.104 0-.195.037-.244.097l-.125.593c-.059.305-.132.351-.245.389-.14.048-.532.075-1.076.075h-.756c-.33 0-.33 0-.33-.27V1.999c0-.431 0-.431.291-.431h.938c.553 0 .976.012 1.24.078.594.152.713.537.894 1.121l.024.079.019.034c.044.056.119.087.212.087.09 0 .215-.032.273-.121l.02-.03-.017-.198c-.068-.778-.13-1.438-.2-1.641l-.03-.088-.088.023c-.145.037-.953.037-1.734.037h-2.449c-.503 0-.932-.012-1.533-.04l-.026-.002-.023.013c-.107.054-.125.21-.128.256-.008.117.025.21.09.254l.253.044c.666.081.706.169.706 1.581v4.811c0 1.448-.081 1.51-.717 1.568l-.465.043-.026.026c-.074.076-.086.2-.071.292.015.098.06.174.123.205l.022.012h.026c.752-.025 1.206-.04 1.769-.04h1.172c1.136 0 2.278.014 3.49.04l.064.002.028-.06c.175-.375.502-1.413.593-1.881m6.733-3.015c-.372.29-.88.327-1.281.327-.588 0-.769-.023-.823-.039-.015-.056-.015-.214-.015-.367V1.852c0-.299 0-.324.747-.324 1.464 0 1.984 1.053 1.984 1.955 0 .741-.195 1.241-.612 1.575m3.926 4.973a.226.226 0 0 0 .079-.207.2.2 0 0 0-.117-.158l-.029-.006a1.445 1.445 0 0 1-.842-.35c-.897-.772-1.611-1.899-2.598-3.53-.068-.112-.078-.164-.076-.186.433-.186 1.655-.84 1.655-2.312 0-1.12-.618-1.684-1.135-1.961-.653-.363-1.49-.412-2.223-.412-1.192 0-2.118.034-2.913.106l-.036.012c-.076.038-.126.124-.134.229-.009.115.032.225.106.28l.021.015.443.057c.425.053.486.147.486 1.461v4.797c0 1.412-.032 1.487-.694 1.568l-.364.045-.026.03c-.074.088-.081.215-.063.305.018.091.061.157.121.187l.023.011.025-.001a36.97 36.97 0 0 1 1.625-.039c.538 0 .99.015 1.546.039l.026.001.023-.012c.096-.049.119-.176.125-.229.013-.119-.017-.22-.081-.275l-.021-.018-.302-.044c-.669-.095-.695-.154-.695-1.568V6.182c0-.191 0-.191.512-.191.5 0 .67.123.843.383.198.295.428.669.651 1.031.233.377.453.734.626.987.895 1.306 1.57 1.727 2.779 1.727.251 0 .471-.026.604-.072l.03-.016zm3.282-7.297c0-.515.188-1.381 1.451-1.381 1.148 0 1.498.768 1.675 1.435l.019.039c.042.052.112.081.197.081.099 0 .231-.041.288-.13l.017-.026v-.031c0-.546-.11-1.309-.239-1.666l-.025-.067h-.069c-.092 0-.266-.024-.432-.075a5.036 5.036 0 0 0-1.236-.179c-1.65 0-2.758.965-2.758 2.4 0 1.221.909 2.018 1.452 2.385l1.238.83c.899.593 1.023 1.208 1.023 1.785 0 .713-.472 1.432-1.529 1.432-1.318 0-1.894-1.042-2.144-1.917l-.014-.028c-.039-.06-.109-.093-.198-.093-.087 0-.211.034-.278.13l-.02.029.001.035c.025.604.193 1.592.364 1.915l.013.026.024.014c.256.154.97.509 2.083.509 1.72 0 2.875-1.036 2.875-2.575 0-1.068-.548-1.936-1.675-2.652l-1.043-.668c-.396-.252-1.06-.788-1.06-1.557m-1.276 26.711h-3.846c-.875 0-.906-.032-.657-.769l1.97-5.58c.344-.961.657-1.731.75-1.891h.063c.188.384.469 1.25.718 2.019l1.689 5.227c.282.866.22.994-.687.994m8.066 8.723c-1.345-.161-1.751-.642-2.657-3.4l-4.284-12.89c-.468-1.411-.969-2.886-1.376-4.297-.062-.224-.281-.289-.468-.289-.345.418-.875.995-1.626 1.218.094.514-.094 1.123-.532 2.277l-3.189 8.658c-1.313 3.592-2.189 5.676-2.751 7.151-.438 1.154-1.126 1.507-1.876 1.572l-1.032.095c-.187.16-.124.675.063.802.844-.032 1.969-.096 3.001-.096 1.469.032 2.439.032 3.252.096.281-.127.281-.642.062-.802l-1.031-.095c-.751-.065-.907-.258-.907-.642 0-.353.219-1.218.688-2.662l1.094-3.366c.219-.675.406-.769 1.188-.769h4.721c.938 0 1.063.094 1.282.8l1.375 4.362c.251.769.407 1.346.407 1.699 0 .32-.437.513-1.093.578l-.908.095c-.219.16-.188.675.063.802.907-.032 2.094-.096 3.595-.096 1.407 0 2.501.032 3.783.096.156-.127.219-.642 0-.802l-.844-.095zm2.147-30.33V3.082c0-1.46.039-1.549.701-1.608l.353-.028.021-.016c.065-.044.098-.136.091-.254-.003-.046-.021-.202-.128-.256l-.023-.012-.025.001c-.616.025-1.077.04-1.612.04-.559 0-1.007-.015-1.638-.04l-.025-.001-.023.012c-.107.054-.124.211-.128.258-.007.117.026.208.091.252l.022.016.351.028c.664.059.703.148.703 1.608v4.756c0 1.439-.033 1.515-.706 1.596l-.361.043-.024.026c-.074.076-.085.2-.071.292.016.099.06.174.122.205l.024.012.025-.001a40.471 40.471 0 0 1 1.638-.039c.518 0 .949.014 1.612.039l.025.001.023-.012c.108-.053.125-.211.128-.258.007-.115-.026-.208-.091-.251l-.37-.057c-.673-.081-.705-.157-.705-1.596M158.344.744l.009-.037-.016-.035c-.048-.1-.183-.11-.239-.11a.317.317 0 0 0-.122.021l-.033.012-.017.032c-.168.297-.237.322-.93.322h-5.385c-.583 0-.845-.032-.899-.33l-.006-.033-.022-.022c-.037-.037-.095-.055-.18-.055a.405.405 0 0 0-.194.042l-.036.025-.007.044c-.092.534-.284 1.379-.491 1.973l-.014.042.019.039c.079.161.345.24.488.129l.022-.016.01-.025c.133-.31.258-.6.562-.887.287-.271.938-.307 1.535-.307h.717c.29 0 .29 0 .29.324v5.974c0 1.448-.081 1.51-.716 1.568l-.469.04-.044.015c-.078.048-.121.148-.116.267.004.09.039.201.124.244l.023.012h.025c.797-.025 1.278-.04 1.807-.04.509 0 .93.012 1.703.04h.025l.023-.011c.107-.054.125-.211.128-.257.007-.116-.026-.209-.091-.253l-.463-.057c-.652-.058-.69-.146-.69-1.568v-5.99c0-.137 0-.264.021-.286.022-.022.163-.022.257-.022h.924c.698 0 1.173.103 1.452.314.123.092.23.431.286.905l.003.03.018.023c.048.06.137.095.237.095.124 0 .227-.055.269-.142l.013-.026-.003-.029c-.038-.384.052-1.46.193-1.994m5.33 17.029c-.532-.127-2.189-.48-3.972-.48-4.721 0-7.816 1.506-9.91 3.751-1.939 2.116-2.815 4.874-2.815 7.6 0 2.822 1.001 5.355 2.877 7.279 2.407 2.5 5.815 3.558 9.536 3.558 1.688 0 3.939-.384 5.597-.833.593-.159 1.157-.288 1.531-.288a.268.268 0 0 0 .032-.385c-.563-.225-.75-.993-.75-2.276v-1.797c0-1.635.031-2.533 1.343-2.693l.501-.065c.219-.191.187-.672-.031-.801a52.724 52.724 0 0 1-3.314.096c-1.845 0-3.564-.032-4.471-.096-.219.096-.251.674 0 .801l1.376.162c1.938.223 2.032.416 2.032 3.11v1.283c0 1.026-.157 1.603-.312 1.827-.345.545-1.501.963-3.441.963-6.284 0-9.379-4.844-9.379-11 0-4.809 2.658-9.235 8.723-9.235 3.189 0 5.534 1.091 6.41 4.554.188.193.75.161.844-.097-.281-1.924-.47-3.591-.47-4.648-.374.063-1.344-.161-1.937-.29m4.565-16.349a.318.318 0 0 0 .095-.26.313.313 0 0 0-.133-.24l-.027-.018-.032.003a18.22 18.22 0 0 1-2.451 0l-.027-.003-.024.014a.268.268 0 0 0-.137.206.347.347 0 0 0 .085.292l.025.026.269.03c.252.031.41.096.456.13-.042.192-.497 1.058-.774 1.585l-.059.114a48.133 48.133 0 0 1-1.134 2.098c-.343-.637-.678-1.336-1.003-2.014a84.585 84.585 0 0 0-.381-.791c-.094-.194-.388-.877-.394-.983 0-.027.061-.08.463-.14l.202-.031.024-.025c.07-.072.1-.205.073-.319-.022-.091-.078-.159-.154-.184l-.019-.008-.019.003c-.32.025-.786.04-1.386.04-.603 0-1.082-.014-1.504-.04l-.03-.003-.027.017a.272.272 0 0 0-.122.196.368.368 0 0 0 .071.293l.023.028.4.073c.345.059.518.089.957.96l1.536 3.074c.369.729.407.879.407 1.611v.68c0 1.451-.033 1.525-.692 1.596l-.44.043-.025.026c-.074.077-.085.202-.07.293.016.099.061.173.123.204l.023.012.025-.001a45.032 45.032 0 0 1 1.703-.039c.529 0 .996.015 1.768.04h.026l.022-.012c.063-.031.108-.106.123-.205.015-.092.003-.216-.071-.292l-.026-.027-.532-.042c-.602-.047-.689-.148-.689-1.596v-.695c0-1.001.028-1.1.599-2.112l.821-1.457.214-.381c.512-.919.882-1.582 1.436-1.68l.392-.071.021-.018zm6.908 26.162c0-7.022 4.221-9.299 7.473-9.299 5.971 0 8.253 5.706 8.253 10.999 0 6.316-3.564 9.203-7.316 9.203-6.159 0-8.41-6.158-8.41-10.903m-3.126 1.024c0 5.774 4.189 10.871 11.13 10.871 6.034 0 10.849-4.713 10.849-11.19 0-5.643-3.627-10.999-10.849-10.999-6.441 0-11.13 4.908-11.13 11.318m10.656-22.776c0 2.755-1.589 3.732-2.948 3.732-2.688 0-3.406-2.791-3.406-4.44 0-2.784 1.624-3.773 3.015-3.773 2.464 0 3.339 2.415 3.339 4.481m1.503-.414c0-2.257-1.446-4.686-4.621-4.686-2.701 0-4.739 2.073-4.739 4.821 0 2.3 1.628 4.631 4.739 4.631 2.634 0 4.621-2.05 4.621-4.766m8.744-2.599l.012-.023-.001-.028a34.378 34.378 0 0 1-.041-1.758v-.13l-.122.03c-.158.037-.96.037-1.736.037h-2.398c-.49 0-.926-.012-1.505-.04l-.025-.002-.024.013c-.108.054-.125.21-.128.256-.008.118.026.21.091.255l.251.043c.661.081.694.155.694 1.581v4.811c0 1.412-.033 1.487-.694 1.568l-.359.043-.025.026c-.074.075-.086.199-.072.29.016.1.06.175.123.207l.023.012.026-.001a36.45 36.45 0 0 1 1.624-.039c.527 0 .978.015 1.73.04h.025l.023-.012c.086-.043.122-.161.128-.259.007-.116-.027-.208-.092-.251l-.489-.056c-.664-.059-.703-.146-.703-1.568V6.008c0-.258 0-.258.33-.258h.886c.457 0 .798.011.973.062.182.06.281.182.35.436l.137.552.024.021c.129.114.406.108.488-.021l.017-.025v-.031c0-.14-.01-.318-.022-.516-.014-.242-.03-.517-.03-.781 0-.271.016-.556.03-.81.011-.207.022-.395.022-.54v-.031l-.017-.025c-.061-.095-.194-.106-.247-.106-.109 0-.203.036-.252.096l-.138.577c-.073.326-.161.357-.26.393-.138.049-.54.076-1.075.076h-.886c-.33 0-.33 0-.33-.257V1.999c0-.431 0-.431.291-.431h.794c.539 0 .964 0 1.239.078.558.149.726.531.838 1.187l.007.037.027.024c.05.044.12.067.197.067.1 0 .223-.043.271-.14"/></svg>
