<svg xmlns="http://www.w3.org/2000/svg" width="24" height="31"><path fill="maroon" fill-rule="evenodd" d="M8.217 6.994c-.097.075.114.177.096.172.007.303-.036.615.066.77.064.095.265.166.3.075.033-.093.185-.282.22-.314.063-.057.007-.109-.046-.053-.11.119-.172.064-.253-.014-.039-.045-.054-.47-.026-.483 0 0 .203-.03.251-.03.038 0 .034-.118-.005-.118-.061 0-.241.001-.251-.027-.023-.059.036-.345.046-.474.008-.091-.04-.12-.064-.035-.026.083-.22.446-.334.531m.534-1.084c.118-.012.307.061.517.044.249-.019.445-.412.337-.718-.1-.29-.419-.239-.633-.31-.197-.054-.279-.179-.064-.323.253-.167.567.1.597.156.047.085.085.083.085-.027.007-.24-.015-.104-.038-.33-.008-.081-.066-.088-.072-.011-.005.079-.1.056-.171.056-.073-.002-.284-.035-.466.067-.116.069-.381.28-.233.534.087.147.597.267.723.352.128.085.156.302.035.402-.152.123-.564.02-.627-.055a.488.488 0 0 1-.133-.279c-.018-.112-.11-.102-.11 0 0 .101.024.449.042.53.016.086.1.057.108-.006.009-.061.048-.079.103-.082m.582.333a.495.495 0 0 1-.254.238 3 3 0 0 0 .259.213c.081-.091.155-.176.248-.265a.335.335 0 0 1-.253-.186m-1.27-.133c.086-.07.149-.188.184-.215.066-.055.011-.112-.044-.058-.045.044-.161-.059-.166-.067-.038-.044-.093-.635-.067-.648 0 0 .369-.047.418-.047.037.004.042-.115.002-.117-.06 0-.342.039-.352.011a.695.695 0 0 1 .039-.455c.043-.078-.002-.155-.03-.074-.033.083-.265.448-.414.509-.122.05-.109.078-.03.099.062.012.127.088.115.087-.012.303-.042.677.051.836.059.1.221.204.294.139m-1.022.624c-.093.089-.166.171-.303.28.064.073.171.167.181.295.008.128.003.725.011.874.1 0 .082.01.254.004-.017-.101-.003-.876-.003-.986.064-.063.073-.072.147-.128.053.047.177.075.177.159 0 .083.025.45-.004.586a.589.589 0 0 0 .068.451c.067-.076.316-.253.37-.297.053-.047.026-.082-.043-.063-.074.016-.087.031-.087-.017 0-.089-.035-.492-.04-.749-.01-.259-.133-.335-.205-.37-.073.082-.235.186-.332.269-.073-.055-.109-.178-.191-.308m-.983.175c.043.113.182.326.244.364-.107.11-.371.292-.445.344-.135-.171-.208-.453.201-.708m-.464.526c-.064.484.385.773.601.866.055-.112.165-.292.274-.419.082-.098-.009-.123-.083-.048-.099.111-.396.006-.475-.141.143-.11.518-.427.68-.563-.107-.103-.273-.357-.299-.503-.145.099-.625.304-.698.808m-.124-2.33c-.173.27-.268.695.032.943.142.121.259.215.547.162.058-.117.083-.155.185-.288a.6.6 0 0 1-.498-.117c-.299-.236-.206-.615-.118-.745.161-.243.39.105.431.153.054-.066.146-.158.236-.23-.09-.119-.163-.231-.223-.303-.191.07-.472.244-.592.425m1.389-.72c-.023-.03-.067-.078-.069-.137l.005-.509c0-.049-.097-.043-.097 0-.004.075.006.2-.058.303-.18.282-.523.398-.763.051-.082-.114-.101-.288-.112-.413-.016-.165.108-.38.115-.399a.434.434 0 0 1 .765.059c.023.112.047.247.047.318-.002.048.098.043.1-.006l.003-.722c.002-.04-.081-.053-.083 0-.004.1-.062.108-.136.083-.155-.046-.499-.122-.698-.004-.176.105-.445.351-.44.66.005.509.194.552.414.689.205.123.49.044.749-.034.103-.028.116.039.166.112.084.115.152.042.092-.051m.147 1.463v.103c-.036.009-.077.019-.128.044-.069-.06-.396-.169-.182-.344.132.079.182.017.31-.063v.26m-.002-.346c-.189.125-.249.121-.378-.028-.065-.076-.059-.22-.029-.273.058-.094.161-.188.21-.186.042.001.194.19.183.271.008.046.012.129.014.216m-.014-.701c-.168.016-.413.217-.486.39-.029.069.013.318.044.346.022.02.04.033.059.048-.111.106-.215.195-.212.35.005.15.122.284.274.354a.55.55 0 0 1 .343-.235c.011.12.039.208.116.267.056-.062.278-.258.321-.302.047-.045.012-.097-.043-.045-.032.032-.112-.014-.135-.052 0-.068 0-.757.028-.789-.101-.111-.196-.344-.309-.332m1.229-1.686c.067-.066-.004-.114-.063-.057-.044-.053-.157-.171-.217-.243a2.58 2.58 0 0 1-.292.19c-.064-.075-.143-.075-.271-.176-.071.055-.228.172-.312.276.149.043.261.053.27.182.006.106-.011.757-.002.876.08.018.177.01.291.004.008-.093.004-.909.004-1 .043-.024.087-.047.108-.069.047.037.14.174.215.221.058-.045.206-.14.269-.204m.45.287c-.098-.322-.061-.433.135-.591.044.11.157.19.22.228-.111.109-.283.308-.355.363m.638.396c-.389.1-.571-.217-.61-.302.157-.163.425-.431.588-.566-.108-.101-.152-.269-.343-.283-.167.004-.556.197-.625.699-.065.482.38.742.733.756.118 0 .264-.154.337-.19.157-.078.099-.155-.08-.114m1.095-.586l-.162.133a.434.434 0 0 1-.13.007c-.133-.019-.197-.121-.258-.204-.064-.085.1-.156.18-.147.082.011.262.109.37.211m-.28.38c.088.04.178.081.276.14.142.082.069.237-.084.308-.155.073-.433-.132-.476-.215a8.95 8.95 0 0 1 .284-.233m.668-.556c-.108-.076-.225-.258-.486-.27-.262-.011-.557.23-.653.381-.127.2.029.375.196.505-.107.093-.255.235-.392.366.055.06.355.204.523.199.254-.006.489-.139.634-.257.264-.212.172-.438-.096-.598a.231.231 0 0 0-.077-.025c.167-.134.313-.254.351-.301m.323 1.543l-.159-.167-.16.146.003.201.098.102h.099l.119-.11v-.172zm-.071-1.133c-.061-.004-.157.168.213.154.057-.002.1-.136-.213-.154m-.005.226c-.063-.005-.159.113.212.152.057.007.135-.132-.212-.152m.241 2.523l.138-.15c-.154-.029-.154-.019-.236-.093l.006-.722-.134-.201-.072.01-.308.289c-.083.076-.009.112.084.028l.159.099.006.68c.016.081.086.108.185.212l.172-.152zm-.944 1.283c.115.08.181.069.326.055-.006.08-.012.153-.012.185 0 .035.014.063.024.094-.075.026-.17.043-.243.08-.067-.06-.312-.23-.095-.414m.331-.022c-.125.003-.232-.037-.369-.159-.026-.022-.05-.18-.02-.232.059-.097.059-.127.112-.126.041 0 .293.155.279.237.01.059.005.171-.002.28m-.435-.06c-.112.117-.194.245-.193.406.006.155.056.307.21.377.137-.103.312-.226.482-.258.082.101.21.168.286.229.053-.065.222-.204.268-.247.045-.046 0-.11-.046-.05-.036.055-.155.015-.189-.041 0-.066-.062-.759-.035-.79-.098-.111-.267-.363-.381-.35-.166.016-.414.258-.467.337-.041.059.012.344.044.371l.021.016M9.787 5.75a.59.59 0 0 0 .529.407c.054-.102.155-.259.21-.331.081-.109-.002-.175-.059-.048-.044.098-.28-.009-.365-.093-.116-.109-.187-.394-.095-.494.092-.102.225-.055.396-.06.113-.005.136-.111.156-.165a3.156 3.156 0 0 1-.243-.139c-.11.071-.28.218-.354.28-.091.079-.279.351-.175.643M9.72 7.918l.134-.151c-.151-.028-.081-.027-.16-.101l-.005-.624-.196-.291-.074.01-.307.291c-.081.073-.01.108.085.028l.203.106.005.659c.017.082.088.101.187.205l.128-.132zm2.557 3.595s.123-.136.123-.234c0-.132-.123-.228-.123-.228.105.03.356.173.445.233l-.445.229zm.786-.241v-.018c-.275-.04-.491-.235-.742-.331-.348-.134-.716.138-.716.181 0 .096.099.145.38-.035-.221.259.03.47.03.47a.977.977 0 0 1-.306-.093c-.017.093.11.127.17.168.467.194.773-.261 1.184-.342m3.154-4.344c-.071.074-.197.159-.314.291.097.008.178.03.224.124.049.093.008.489.015.642.007.148.096.18.211.302.116-.03.437-.166.546-.242-.01.122.141.258.231.285.06-.066.125-.103.213-.187-.086-.058-.075-.066-.107-.182-.025-.111.006-.534.009-.715a1.328 1.328 0 0 0-.294-.318c-.081.075-.19.175-.318.312.095-.013.283.026.292.106.005.106.021.335 0 .512-.022.18-.497.098-.503-.023-.011-.124.024-.481.026-.651a.782.782 0 0 0-.231-.256m.238-1.393c.034-.179.157-.252.214-.305.08.09.16.192.28.192.118.001.24-.054.278-.103-.097-.08-.318-.316-.362-.361-.112.064-.598.32-.639.615-.059.437.077.524.266.763a.364.364 0 0 0 .364.121c.087-.06.404-.367.44-.406.032-.037-.015-.072-.054-.033-.039.036-.024.052-.077.06-.054.009-.27.046-.396-.021-.157-.084-.362-.281-.314-.522m-1.356-.047c.012.293-.139.602-.303.742.284-.075.321-.247.476-.449.085.129.244.284.36.351.082-.054.313-.319.364-.374-.167-.044-.489-.218-.569-.401-.064-.136-.049-.2.015-.307.056.076.448.259.624-.047-.193-.072-.366-.201-.425-.304-.052.044-.224.234-.321.295-.022-.105-.181-.218-.309-.242-.042.046-.344.28-.483.349-.042.021-.026.114.033.091.057-.025.15-.097.258-.15.125.05.267.179.28.446M15.044 6.9c-.116.057.154.166.136.161-.004.311-.065.82.04.981.064.098.212.163.311.125.095-.039.217-.233.253-.264.07-.053.01-.11-.049-.055-.058.055-.216.016-.237-.039-.017-.06-.037-.737-.009-.751 0 0 .19-.005.241-.003.04 0 .043-.123.004-.123-.07-.001-.223-.015-.232-.042-.023-.065.005-.272.044-.356.041-.084-.037-.121-.067-.039-.032.089-.232.302-.435.405m-1.094.203c.065-.101.106-.121.158-.121.047.003.228.13.219.215.008.055.01.171.01.289-.136.016-.232.033-.384-.098-.028-.023-.036-.233-.003-.285m.081.456c.1.056.15.021.305.004l-.004.236a1.955 1.955 0 0 1-.248.141c-.077-.064-.189-.119-.053-.381m-.125-.093c-.084.081-.233.289-.23.443a.583.583 0 0 0 .167.394c.153-.109.249-.259.504-.358.031.12.115.139.215.216.059-.066.276-.337.324-.384.048-.047.02-.094-.048-.047s-.115.019-.229-.106c.004-.067-.008-.621.018-.651-.104-.114-.199-.27-.322-.256-.179.014-.406.33-.462.413-.045.059.002.285.035.314.012.011.018.012.028.022m-1.042-1.05c.006.15.06 1.434.044 1.612-.01.103.124.21.247.295.06-.073.189-.265.297-.346.063-.053.019-.087-.03-.068-.096.046-.194.01-.203-.103a35.148 35.148 0 0 1 0-1.378 5.87 5.87 0 0 1-.355-.012m-.091-.931c.005.525.211.569.446.707.222.128.596.101.876.027.106-.032.164-.038.16.054 0 .059.081.047.081.003l.003-.532c0-.055-.078-.047-.078 0 0 .074 0 .096-.071.2-.193.291-.675.279-.933-.075-.089-.122-.169-.283-.067-.314.102-.031.412.035.618.052.122.007.406.038.442.059.032.023.079.054.079-.01.003-.061.003-.264.003-.325s-.046-.033-.081-.011c-.035.025-.338.076-.459.098-.121.023-.497.054-.596.02-.101-.034-.067-.24.023-.358.261-.352.79-.328.981-.035.065.102.065.126.065.202 0 .046.076.051.076 0 .005-.049.006-.58.006-.624 0-.04-.076-.056-.076 0 0 .038-.084.062-.167.038-.164-.051-.642.024-.855.143-.189.11-.48.363-.476.681m2.032-3.051a3.206 3.206 0 0 0-.534.034c-.116.017-.116.075-.02.088.096.009.115.029.166.161.046.134-.186.734-.244.875-.067-.103-.313-.653-.313-.728 0-.053.108-.106.155-.119.091-.029.089-.092.02-.106-.192-.028-.87-.088-.989-.103-.087-.007-.126.095-.021.095.108.002.221-.031.34.146.136.2.565 1.138.668 1.532.051-.083.479-1.345.504-1.479.03-.13.121-.258.247-.296.129-.035.118-.092.021-.1m.581.229l.127-.113v-.18l-.172-.169-.17.147.004.208.105.107h.106zm.196 1.645l.225-.299a.475.475 0 0 1-.346-.192l.005-.741-.231-.235-.079.01-.363.321c-.037.058.06.058.109-.009l.263.153.011.717c.02.086.09.169.195.275h.211zm1.503-1.271c-.069 0-.532.01-.544-.017a.502.502 0 0 1 .037-.394c.04-.085-.037-.12-.066-.034-.03.082-.262.408-.502.513-.124.05.151.166.132.161-.002.312.043.782.108.972.041.112.167.294.253.238.056-.036.177-.28.215-.31.067-.055.001-.151-.054-.094-.063.056-.115-.03-.132-.088-.02-.055-.077-.745-.048-.758 0 0 .547-.068.601-.068.038 0 .04-.121 0-.121m.842 1.338a.592.592 0 0 0-.236.072c-.079-.066-.284-.317-.133-.597-.021-.014-.043-.025-.063-.038.139.08.302.148.429.191l-.004.249c0 .047.003.085.007.123m-.002-.441c-.144-.052-.428-.188-.532-.275-.027-.022-.03-.035.004-.089.065-.099.14-.186.193-.182.044 0 .333.158.324.24.01.059.012.183.011.306m.177.751l.292-.326s-.13-.103-.207-.2c0-.068 0-.719.028-.754-.22-.2-.381-.226-.476-.211-.178.026-.36.258-.418.336-.043.062-.032.139 0 .168.035.029.081.059.13.089l-.025-.014c-.083.08-.205.31-.201.466.002.157.141.384.234.468.103-.08.256-.217.481-.26a.37.37 0 0 0 .162.238m.01 1.722c-.076-.037-.351-.252-.414-.418-.082-.223-.082-.469.151-.613.182.068.394.25.413.417.026.217-.035.474-.15.614m.247-.087c.08-.148.198-.385.19-.567-.01-.222-.145-.552-.466-.661-.407.147-.659.474-.671.86-.007.226.182.692.573.695.12-.118.248-.243.374-.327m.385 1.126a1.931 1.931 0 0 0-.296-.252 2.198 2.198 0 0 1-.293.205c-.066-.076-.152-.18-.285-.284-.08.056-.31.269-.408.325.141.004.35.051.357.184.005.107-.007.778 0 .9.086.019.188.009.313.003.006-.095.003-.868.006-.962.041-.024.091-.047.115-.069.048.036.195.207.28.253.058-.044.211-.18.278-.244.071-.071-.006-.117-.067-.059m0-1.417c.052.016.148.03.246.038.062.007.042-.097-.006-.117a.837.837 0 0 0-.219-.04c-.071 0-.105.093-.021.119m.249-.312a.806.806 0 0 0-.225-.039c-.067 0-.103.097-.02.12.054.015.153.033.248.037.065.007.044-.097-.003-.118m1.666 16.44c-.13.648-.35 1.248-.733 1.806-.269.397-.378-.373-.147-1.117.329-.134.657-.392.88-.689m-.365.131c-.857.86-2.142.548-3.155 1.009-.918.341-1.583 1.202-2.545 1.42-.284.093-.33.237-.15.232.106-.003.693.62 1.631.14.314-.161 1.287-.712 1.452-.743-.527.51-.792.965-1.263 1.234-.288.165-1.462.592-2.633.361-.519-.102-.918.384-.786.373.278-.075.589-.037.776.212.34.271.833.608 1.256.105.141-.167.813-.521 1.445.13-.672-.035-.605 1.193-1.879 1.049-.471-.003-1.513-1.099-1.809-.761-.527.602 1.131 1.173.413 1.928-.648.683-1.423-.544-1.423-.544.405.173 1.151.284.823-.385-.131-.265-.379-.503-.379-.994-.057-.244-1.54 1.942-2.522.955-.385-.389-1.166-1.24-1.873-1.564 1.873-.161 2.158.6 2.248.723.599.82 1.153-.013 1.28-.159.195-.226.472-.537.374-.584-.727-.351-1.557-.424-2.177-.136 1.327-1.855 2.36-.118 2.36-.118.146.092-.037-1.1-1.35-1.165-.82-.042-1.542.709-2.107.708-.46-.001-1.854-.958-2.182-1.808.811.617 1.846.971 2.491.58 1.212-.734 2.739.373 2.811.241-.338-.269-1.11-1.32-3.192-.721-.807.471-1.148-.349-1.643-.363.843-.761 1.428-.374 1.723-.352.07 0-.352-.352-.648-.383-2.3-.244-3.757-.887-3.757-.887-.012 0 .191-.472 1.18-.131 0 0-.886-.552-.879-1.261.029-.437.237-.905-.092-1.269 1.335-.056.386 1.836 1.324 2.323.02.009-.276-.451.141-.808.194.556.67.843 1.005.934.079-.045.176-.215.176-.214-.352-.594-.399-1.284-.304-2.076l.014-.007c.076.003.205.272.295.469.195.425.19 1.038.578 1.542.215.279.348.556.541.691.083-.197.021-.536.008-.626-.044-.321-.242-.884.299-1.382.253.742.597.527.643.882.065.499.043.42-.007.802.026.528.497.676.916 1.013.943.522 1.57.804 1.981 1.472.2-1.127-2.795-1.353-2.409-3.529-.04-.869.107-.942-.499-1.473 1.201.036 1.856 2.041 1.921 2.407.121.673.522.707 1.074 1.584.08.03-.986-2.336.284-4.361 0 0 .428 1.052.226 1.742-.121.415-.008.875.014 1.136.024.265-.052-.96.856-1.594.056.463.493 1.182.079 1.951-.504.937-.541.6-.549 1.752.046-.02.177-.794.523-1.233.73-.929.208-1.428.922-2.233.056.402.157.243.2.601.096.805-.731 1.685-.548 1.657.21-.029.548-.215.661-.825 0 0 .305.557.026.743-.504.335-.609.698-.531 1.105.405-.492.957-1.035.862-1.734.046-.422.495-.593.585-1.573.015-.162.175-.359.334-.446-.069.551.351 1.119-.127 1.793.109.06.514-.525 1.105-.312-1.187.218-.841 1.525-1.75 2.13-.275.183-.228.387-.31.41.813-.046 1.438-1.03 1.547-1.105.816-.561.995-.646 1.321-1.556.128-.345.035-.498.488-.966.198.461-.09 1.414-.159 1.62-.146.439-.659.819-.55.819 2.188-.981 2.16-1.641 2.684-2.344.157-.269.935-.735 1.226-.778-.071.147-.373.393-.387.659-.027.492-.183.792-.427 1.187.136.171.397-.324.664-.076-.353.119-.511.519-.785.755m-2.004-.698c.063-.231.063-.39.093-.593.013-.088.014-.077.018-.151.002-.024.619.522.653.544-.155.198-.287.269-.435.408-.104-.093-.335-.187-.329-.208m.187.34c-.285.255-.471.345-.409.218.069-.14.12-.26.159-.365.013-.035.25.147.25.147m2.797-2.467c-.261.069-.949.348-1.115.623.088-1.513-.393-2.996-.546-3.355-.298-.699.134 1.626.163 2.161.001.024-2.468-3.225-.977-.722.386.647.989 1.071.99 1.082.01.451-.02.783-.104 1.025-.152.123-3.363-4.343-1.588-1.25.22.384 1.508 1.545 1.497 1.568a2.11 2.11 0 0 1-.426.622c-.034-.035-.741-.564-.746-.597-.053-.345-.055-.67-.475-.426 0 0-1.581-1.872-.849-.56.32.574.531.637.616.739 0 0-.246.337-.325.697-.031.144-1.371-1.51-.845-.471.168.333.781.696.774.719a3.943 3.943 0 0 1-.193.563c-.085.172-1.261 1.125-1.259 1.124 0-.001.23-.754.73-1.124.285-.213.286-.166.475-.286-.004-.113-.109-.295-.246-.343-.172-.062-.729.042-.729.042.052-.283-.191-.894-.188-1.565-.21.021-.578.351-.666.538-.065 1.112-.303.779-.525 1.578-.242-.335.017-.817-.22-1.13-.327-.433-.376-.723-.424-1.255.076-.044.409-.417.106-1.201-.049-1.232.492-1.703-.476-2.565.081-.027.14-.644.14-.645.713.386.572-.448.85-.612.441-.26.361-.53.163-.866 1.262.365-.057 1.242.514 1.261.415.012.692-.093.872-.378.192-.298-.033-.482.502-.968.054-.048.196-.371-.229-.46-.093-.021.001-.389.001-.389-.34.292-.447.704-.993.443-.28-.134-.462-.002-.576.054 0 0-.058-.232.173-.312.599-.203.746-.446.714-.578-.081-.316-.106 0-.088-.333.007-.133.159-.312.284-.465.405-.498.693-.312.796-.268.236-.185.278-.172.497-.26.376-.15 1.189.1 1.644.314.221.101.485.162.742.105-.003.135-.096.208-.188.234-.142.045-.311 0-.3.106.006.061.201.072.322.106.674.187 1.547.801.974.671-.068-.015.413.366.776.861l1.286 1.269c-.059.071-.51.007-1.938-1.354-.203.185 1.737 1.671 2.537 3.247-.069.049-1.066-.319-1.426-.697-.555-.583-1.192-2.065-1.453-1.848-.032.012 1.053 1.73 1.59 2.748.271.516.493 1.255.511 1.812.086 2.742-.32 2.533-.32 2.533-.632-2.164-.928-4.674-1.851-5.833-.368-.463.986 2.027 1.045 4.271m.997-14.701l-.027-.198c-.019-.141-.42-.224-.703-.098-.396.176-1.388.751-1.75.642V3.69c.893.394 1.242.037 1.529.037.882 0 .926.837.926.837l.025.198m-.916 1.941c.774-.115.891.814.891.814h-.002c-.191-.154-.574-.223-.833-.053-.865.566-1.645.572-1.645.572V6.618s.165.297 1.589.085m-1.85 2.882c-1.405.098-4.32-.714-5.061-.714-1.529 0-2.268.605-2.268.605s.002-7.053 0-7.307c0 0 2.009-.958 3.47-.41 1.79.672 3.859.375 3.859.375v7.451zm-5.821 1.101a.303.303 0 0 1-.211.354.556.556 0 0 0 .671-.301c.154.651-.491.688-.693.727 0 0 .328.095.345.311.042.551.391.504.466.462-.013.066-.12.399-.512.098-.066.066.107.169.141.442.044.345.034.667.426.876-.24.195-.524-.311-.549-.25-.028.067.335.253-.064 1.208-.182-.106-.081-.085-.292-.34-.161-.138-.224-.169-.09.058.236.298.291.982.21 1.166-.194-.087-.144-.244-.373-.457-.021.09.07.544.307.76.408.374.553.827.56.916.033.341-.073.79-.113 1.228-.195-.028-.362-.595-.409-.561-.058.037.024.553.394.904.179.53.107.816.059.835-.063.028-.262-.543-.37-.444.525 1.36.158 1.834.018 2.252-.108-.429-.163-.75-.299-1.237-.287.229-.356.568-.706.878 0-.554-.316-1.893-.566-2.205-.011-.014-.452 1.2-.652 1.741-.261.699-.301 1.575 0 2.257-.65-.939-.719-2.686-.159-2.921.048-.126-.034-.537-.159-.487-.035.202-.012.374-.176.57-.429-.128-.234-.661-.195-.839.558-.679.209-.836.183-.818-.06.156-.113.346-.283.418-.358-.626-.128-1.607.551-2.339.029-.274-.304.204-.521.187-.056-.527.132-1.442 1.091-1.476-.183-.055-.281-.088-.325-.244.29-.043 1.2-.114 1.05-.843-.087.088-.114.218-.351.365-.16.099-.334.108-.424-.036.422-.141.283-.663-.268-.51-.169.048-.416-.132-.428-.331.123.125.371.033.515-.062.62-.41.998.184 1.082.311.025 0 .278-.593-.602-.753-.073-.208-.275-.576-.872-.53-.197-.705-.793-.357-.773-.037-.633-.474.011-1.072.266-1.165.178.016.138.586.45.489.075-.022-.242-.392-.121-.56.286-.166.279.212.42.071.07-.246.35-.385.581-.412.646-.093 1.15.628 1.77.274M11.839 9.47s-.953-.525-2.07-.599c-1.082-.075-3.265.804-4.942.687V2.07s1.912.258 2.697-.05c2.671-1.046 4.315.123 4.315.123V9.47zM4.487 7.903h-.91v-.909h.91v.909zm0-3.169h-.91v-.91h.91v.91zM2.506 8.166c-1.068 0-1.068-1.59 0-1.59 1.027 0 1.033 1.59 0 1.59m0-3.176c-1.044 0-1.022-1.592 0-1.592 1.027 0 1.027 1.592 0 1.592m6.879 7.427c-.191-.331.227-.646.227-.646-.012.93 1.157.292 1.768.587a.65.65 0 0 1 .31.338c-.656-.462-1.87.476-2.305-.279m-3.161 7.874c.005.319-.017.555.074.879.148.489.074.338-.128.169-.161-.181-.311-.33-.388-.542-.019-.151.1-.159.442-.506m-2.355-6.572l-.018-.018c-.021 0-1.52.961-2.494.5.726-.408 3.238-2.031 3.925-2.491.325.072.456-.048.559-.121-.262.016-1.133.155-.693-.636.169.709 1.39.055 1.828-.047 1.221-.285 1.212 1.04 1.108 1.59-.039.203.374.349.578.319-.35.877-.948.05-1.019.385-.029.135-.429.241-.427.578.002.46.179.209.195.565.018.346-.145.077-.108.451.059.593 1.025-.08 1.424.081.199.08.331.262.526.226.057-.047.031-.271.022-.352-.02-.188-.363-.21-.523-.467-.138-.225.158-.9.319-1.098.23 1.114 1.258.765 1.411 1.937.097.331-.353.699.012 1.239-.271.267-.597 1.536-.029 2.132-.097.269-.223.891.282 1.255-.17.367-.131.817.012 1.274-.315.001-.252-1.792-2.136-1.849-.042-.013-.053.204.002.3.226.403.529.38.464 1.329-.023.324-.21-.057-.31-.146-.228-.206-.404-.233-.503-.901-.766.611-.691 1.349-.643 1.725 0 0-.169-.468-.362-.949-.011-.026.777-.99.902-1.218 1.59-2.908-1.026.94-1.031.927-.141-.332-.265-.618-.347-.708.02-.04.456-.535.654-.952 1.23-2.602-.731.866-.801.802-.148-.134-.27-.304-.364-.244-.022.4-.116.346-.089.754a5.131 5.131 0 0 1-.952.931s-.077-.722-.056-.747c.154-.192.759-.851.882-1.048 2.015-3.215-.943.775-.949.741-.02-.127-.182-.337-.355-.516 0 0 .653-.904.814-1.241 1.226-2.562-.985 1.135-1.01 1.122-.053-.029-.058-.028-.12-.049-.062-.022.068-.738.153-1.17.166-.854-.279-.166-.4 1.187-.114.019-.39.048-.494.144.067.361.151.083.3.43.178.415-.248 1.097.123 1.596.143.192.152.16.123.287-.228-.017-.367-.022-.511.178-.28-1.296-.272-1.918-.206-3.236.03-.598.223-1.504.135-1.52-.084-.016-1.419 3.477-1.742 4.162-.563-.193.351-3.217 1.512-4.673.109-.463-.609.47-1.038.84-.393.341-.891.785-1.433.633.697-.748 2.293-2.149 2.471-2.499.148-.299-1.09.934-2.398.476.847-.461 2.822-1.486 2.825-2.2m-.013 8.508c.218.15.475.217.711.32.293.776.007 1.541-.157 1.223-.288-.555-.401-1.015-.554-1.543m20.155-4.321L24.01.596C10.328-.744 0 .596 0 .596v17.313c1.09 11.734 11.904 13.113 12.007 13.094 1.931-.354 10.997-2.207 12.004-13.097"/></svg>
