<svg xmlns="http://www.w3.org/2000/svg" width="147" height="74"><path fill-rule="evenodd" d="M144.577 8.056h-1.746V1.737h-2.415V.128h6.576v1.609h-2.415v6.319zm2.407 22.828v.067c0 5.165-4.163 9.357-9.769 9.357-5.574 0-9.703-4.125-9.703-9.289v-.068c0-5.164 4.163-9.357 9.77-9.357 5.573 0 9.702 4.125 9.702 9.29zm-5.036.067c0-2.649-1.913-4.963-4.733-4.963-2.922 0-4.667 2.247-4.667 4.896v.067c0 2.65 1.913 4.964 4.734 4.964 2.921 0 4.666-2.247 4.666-4.896v-.068zM131.811 3.016v5.04h-1.724V.128h1.61l3.719 4.881V.128h1.723v7.928h-1.485l-3.843-5.04zm-8.893 5.176c-2.449 0-4.206-1.824-4.206-4.077v-.023c0-2.254 1.779-4.1 4.228-4.1s4.206 1.823 4.206 4.077v.023c0 2.254-1.779 4.1-4.228 4.1zm2.403-4.1c0-1.359-.997-2.492-2.403-2.492-1.406 0-2.381 1.11-2.381 2.469v.023c0 1.359.998 2.492 2.403 2.492 1.406 0 2.381-1.11 2.381-2.469v-.023zm-4.666 17.837h5.103v13.919c0 3.22-.772 5.567-2.283 7.077-1.679 1.676-4.264 2.414-7.756 2.414-2.921 0-5.674-.671-7.957-1.878l1.746-3.823c1.847 1.039 3.693 1.643 6.077 1.643 3.492 0 5.137-1.677 5.137-4.896v-.872c-1.511 1.811-3.156 2.917-5.876 2.917-4.196 0-7.99-3.052-7.99-8.384v-.067c0-5.366 3.861-8.385 7.99-8.385 2.787 0 4.432 1.174 5.809 2.683v-2.348zm-4.331 3.891c-2.485 0-4.365 1.71-4.365 4.159v.067c0 2.482 1.88 4.159 4.365 4.159 2.484 0 4.398-1.711 4.398-4.159v-.067c0-2.449-1.914-4.159-4.398-4.159zm-1.917-17.764l-1.701-2.537h-1.372v2.537h-1.746V.128h3.628c1.009 0 1.792.283 2.313.804.442.442.68 1.065.68 1.812v.023c0 1.28-.691 2.084-1.7 2.458l1.938 2.831h-2.04zm.034-5.221c0-.747-.522-1.133-1.372-1.133h-1.735v2.277h1.769c.85 0 1.338-.453 1.338-1.122v-.022zm-13.902 44.351h5.778v4.87h-5.778v-4.87zm1.419-43.785h3.787v1.586h-3.787v3.069h-1.746V.128h6.043v1.586h-4.297v1.687zm1.215 20.339c1.343 1.342 1.948 3.321 1.948 5.735v10.431h-4.935v-1.945c-1.243 1.375-2.955 2.28-5.439 2.28-3.391 0-6.178-1.945-6.178-5.5v-.067c0-3.924 2.988-5.735 7.252-5.735 1.813 0 3.122.302 4.398.738v-.302c0-2.113-1.309-3.287-3.861-3.287-1.947 0-3.324.369-4.969.973l-1.276-3.89c1.981-.872 3.929-1.443 6.984-1.443 2.786 0 4.801.738 6.076 2.012zm-2.887 8.922c-.873-.403-2.014-.671-3.256-.671-2.183 0-3.526.872-3.526 2.482v.067c0 1.375 1.142 2.18 2.787 2.18 2.384 0 3.995-1.308 3.995-3.153v-.905zM90.929.128h5.986V1.68h-4.251v1.608h3.741V4.84h-3.741v1.664h4.308v1.552h-6.043V.128zm-5.081 7.928l-1.7-2.537h-1.372v2.537H81.03V.128h3.628c1.009 0 1.791.283 2.313.804.442.442.68 1.065.68 1.812v.023c0 1.28-.692 2.084-1.701 2.458l1.939 2.831h-2.041zm.034-5.221c0-.747-.521-1.133-1.372-1.133h-1.734v2.277h1.768c.851 0 1.338-.453 1.338-1.122v-.022zm1.877 21.778l-3.123 3.353c-1.141-1.207-2.283-1.978-4.095-1.978-2.552 0-4.365 2.247-4.365 4.896v.067c0 2.751 1.779 4.964 4.566 4.964 1.712 0 2.887-.738 4.129-1.912l2.988 3.019c-1.745 1.911-3.76 3.286-7.352 3.286-5.405 0-9.367-4.158-9.367-9.289v-.068c0-5.131 3.928-9.357 9.434-9.357 3.391 0 5.506 1.14 7.185 3.019zM74.254 8.192c-2.449 0-4.207-1.824-4.207-4.077v-.023c0-2.254 1.78-4.1 4.229-4.1s4.207 1.823 4.207 4.077v.023c0 2.254-1.781 4.1-4.229 4.1zm2.403-4.1c0-1.359-.998-2.492-2.403-2.492-1.406 0-2.381 1.11-2.381 2.469v.023c0 1.359.997 2.492 2.403 2.492 1.406 0 2.381-1.11 2.381-2.469v-.023zm-12.5 11.331h5.372v4.527h-5.372v-4.527zm-.739-12.022h3.787v1.586h-3.787v3.069h-1.746V.128h6.043v1.586h-4.297v1.687zm-1.319 36.505h-5.103V29.878c0-2.415-1.142-3.656-3.089-3.656s-3.189 1.241-3.189 3.656v10.028h-5.103V15.423h5.103v9.055c1.175-1.509 2.686-2.884 5.271-2.884 3.861 0 6.11 2.549 6.11 6.674v11.638zM45.392.128h5.986V1.68h-4.251v1.608h3.741V4.84h-3.741v1.664h4.308v1.552h-6.043V.128zm4.373 65.683h-13.47c.542 2.489 2.275 3.788 4.731 3.788 1.841 0 3.177-.577 4.694-1.984l3.142 2.778C47.056 72.629 44.456 74 40.953 74c-5.813 0-10.111-4.076-10.111-9.992v-.073c0-5.519 3.936-10.064 9.57-10.064 6.464 0 9.425 5.014 9.425 10.497 0 .433-.036.938-.072 1.443zm-9.353-7.539c-2.275 0-3.756 1.623-4.189 4.112h8.269c-.325-2.453-1.769-4.112-4.08-4.112zm-5.947-22.726c2.686 0 4.331-1.073 6.178-2.75l3.29 3.32c-2.417 2.582-5.103 4.192-9.636 4.192-6.916 0-12.053-5.332-12.053-12.073v-.068c0-6.674 5.036-12.14 12.255-12.14 4.431 0 7.084 1.475 9.266 3.622l-3.29 3.79c-1.813-1.644-3.66-2.65-6.01-2.65-3.962 0-6.815 3.287-6.815 7.312v.066c0 4.025 2.786 7.379 6.815 7.379zm6.007-30.673h-3.22v3.183h-1.746V.128h1.746v3.137h3.22V.128h1.746v7.928h-1.746V4.873zM29.956 8.056H28.21V1.737h-2.415V.128h6.576v1.609h-2.415v6.319zM10.183 40.232C3.871 40.232.01 36.71.01 29.801V16.386h5.171v13.281c0 3.824 1.913 5.802 5.069 5.802 3.156 0 5.07-1.911 5.07-5.634V16.386h5.17v13.248c0 7.11-3.995 10.598-10.307 10.598zm2.943-32.176H11.38V1.737H8.965V.128h6.576v1.609h-2.415v6.319zM5.854 6.278H2.498l-.726 1.778h-1.78L3.394.072h1.61l3.401 7.984H6.58l-.726-1.778zM4.176 2.167l-1.054 2.57H5.23l-1.054-2.57zm10.426 56.718l8.496-10.758h6.039v25.44h-5.566V56.959l-8.969 10.865h-.145L5.561 57.068v16.499H.068v-25.44h6.039l8.495 10.758zm49.69-36.956h5.103v17.977h-5.103V21.929zm-4.276 31.895c2.925 0 4.731 1.334 6.031 2.886v-9.524h5.489V73.52h-5.489v-2.778c-1.336 1.804-3.178 3.138-6.031 3.138-4.513 0-8.811-3.535-8.811-9.992v-.072c0-6.457 4.225-9.992 8.811-9.992zm-3.322 10.064c0 3.21 2.167 5.339 4.731 5.339s4.694-2.129 4.694-5.339v-.072c0-3.211-2.13-5.339-4.694-5.339s-4.731 2.092-4.731 5.339v.072zm22.885-11.832h-5.778v-4.87h5.778v4.87zm-.145 21.464h-5.489V54.184h5.489V73.52zM91.27 53.824c3.647 0 5.922 1.226 7.727 3.246l-3.358 3.608c-1.227-1.299-2.455-2.129-4.405-2.129-2.745 0-4.695 2.417-4.695 5.267v.072c0 2.958 1.914 5.339 4.911 5.339 1.842 0 3.106-.793 4.442-2.056l3.214 3.246c-1.878 2.057-4.045 3.535-7.909 3.535-5.814 0-10.075-4.472-10.075-9.992v-.072c0-5.519 4.225-10.064 10.148-10.064zm14.902 19.696h-5.489V54.184h5.489V73.52zm7.866-16.594c1.265-1.623 2.889-3.102 5.67-3.102 4.153 0 6.572 2.741 6.572 7.178V73.52h-5.489V62.733c0-2.596-1.227-3.931-3.322-3.931-2.095 0-3.431 1.335-3.431 3.931V73.52h-5.489V54.184h5.489v2.742zm23.537-3.102c6.464 0 9.425 5.014 9.425 10.497 0 .433-.036.938-.072 1.443h-13.47c.542 2.489 2.275 3.788 4.731 3.788 1.841 0 3.178-.578 4.694-1.985l3.142 2.778c-1.805 2.237-4.406 3.607-7.908 3.607-5.814 0-10.112-4.075-10.112-9.992v-.072c0-5.519 3.937-10.064 9.57-10.064zm4.081 8.513c-.325-2.453-1.77-4.112-4.081-4.112-2.275 0-3.756 1.623-4.189 4.112h8.27z"/></svg>
