<svg xmlns="http://www.w3.org/2000/svg" viewBox="0 0 291 69.99"><path d="M284.91 29.33V.01H291v29.32zm-14.54.48c-6.65 0-11.58-4.94-11.58-11.12v-.08A11.29 11.29 0 0 1 270.45 7.4c6.65 0 11.57 4.94 11.57 11.13v.08a11.28 11.28 0 0 1-11.65 11.2zm5.63-11.2a5.71 5.71 0 0 0-5.64-6c-3.49 0-5.57 2.69-5.57 5.87v.08a5.71 5.71 0 0 0 5.65 5.94c3.48 0 5.56-2.69 5.56-5.86zm-34.28 42.27a5 5 0 0 0 5.28 4.21 7 7 0 0 0 5.21-2.2l3.45 3.12a10.72 10.72 0 0 1-8.77 4c-6.45 0-11.22-4.54-11.22-11.13v-.08c0-6.15 4.37-11.21 10.62-11.21 7.17 0 10.45 5.58 10.45 11.69 0 .48 0 1-.08 1.61zm4.57-8.4c-2.52 0-4.17 1.81-4.65 4.58h9.18c-.36-2.73-1.97-4.58-4.53-4.58zm-1.72-22.67c-6.65 0-11.58-4.94-11.58-11.12v-.08A11.29 11.29 0 0 1 244.65 7.4c6.65 0 11.57 4.94 11.57 11.13v.08a11.28 11.28 0 0 1-11.65 11.2zm5.64-11.2a5.71 5.71 0 0 0-5.64-6c-3.49 0-5.57 2.69-5.57 5.87v.08a5.71 5.71 0 0 0 5.65 5.94c3.48 0 5.56-2.69 5.56-5.86zm-26.75-1.29c0-2.89-1.37-4.38-3.69-4.38s-3.8 1.49-3.8 4.38v12h-6.09V.01H216v10.84c1.4-1.81 3.2-3.45 6.28-3.45 4.61 0 7.29 3.05 7.29 8v13.93h-6.08zM203 40.19h6.4v5.42H203zm-4.77-15.64a6.76 6.76 0 0 0 4.92-2.29l3.57 3.62a10.79 10.79 0 0 1-8.77 3.93 11 11 0 0 1-11.18-11.12v-.08A11 11 0 0 1 198 7.4a10.54 10.54 0 0 1 8.59 3.61l-3.73 4a6.24 6.24 0 0 0-4.86-2.35c-3 0-5.21 2.69-5.21 5.87v.08c-.02 3.29 2.1 5.94 5.43 5.94zm-24.64 5.18a17.83 17.83 0 0 1-11.9-4.49l3.65-4.38a12.88 12.88 0 0 0 8.37 3.41c2.52 0 4.05-1 4.05-2.65v-.08c0-1.57-1-2.37-5.65-3.58-5.65-1.44-9.29-3-9.29-8.59v-.08c0-5.11 4.08-8.48 9.81-8.48A16.17 16.17 0 0 1 183 4.38l-3.17 4.63a13.19 13.19 0 0 0-7.29-2.77c-2.36 0-3.61 1.09-3.61 2.45v.08c0 1.85 1.21 2.45 6 3.7 5.69 1.49 8.89 3.53 8.89 8.44v.1c0 5.58-4.24 8.71-10.29 8.71zm-8.73 10.46v29.32h-6.09v-3.09a7.9 7.9 0 0 1-6.69 3.5c-5 0-9.78-3.94-9.78-11.13v-.08c0-7.19 4.69-11.13 9.78-11.13a8.26 8.26 0 0 1 6.69 3.21v-10.6zm-11.23 12.57c-2.84 0-5.25 2.33-5.25 6v.08c0 3.57 2.41 5.94 5.25 5.94s5.21-2.37 5.21-5.94v-.13c0-3.58-2.37-5.95-5.21-5.95zm-11.74-31.38v8h-6.08V7.8h6.08v4.34c1.24-3 3.25-4.9 6.85-4.74v6.38h-.32c-4.04 0-6.53 2.46-6.53 7.6zm-2.44 39.5h-14.94a5 5 0 0 0 5.24 4.21 7 7 0 0 0 5.21-2.2l3.49 3.12a10.75 10.75 0 0 1-8.78 4c-6.44 0-11.21-4.54-11.21-11.13v-.08c0-6.15 4.36-11.21 10.61-11.21 7.17 0 10.46 5.58 10.46 11.69 0 .48 0 1-.08 1.61zm-10.38-8.4c-2.52 0-4.16 1.81-4.64 4.58h9.17c-.36-2.73-1.96-4.58-4.53-4.58zm-12-31.79a5 5 0 0 0 5.24 4.22 7 7 0 0 0 5.21-2.21l3.48 3.1a10.71 10.71 0 0 1-8.77 4c-6.45 0-11.21-4.54-11.21-11.12v-.07c0-6.15 4.36-11.21 10.61-11.21 7.17 0 10.46 5.58 10.46 11.69 0 .48 0 1-.08 1.6zm4.56-8.39c-2.52 0-4.16 1.81-4.64 4.58h9.17c-.37-2.73-1.97-4.58-4.54-4.58zM104 29.33l-5.6-8.8-2.13 2.25v6.55h-6.13V.01h6.08v15.62l7.13-7.83h7.29l-8.17 8.48 8.45 13.05zm-3 24l7.37-11.89H115v28.07h-6.13V51.15l-7.89 12h-.16L93 51.27v18.24h-6V41.39h6.65zM67.66 25.01l11.1-12.29H68V7.8h18.33v4.3L75.19 24.39h11.14v4.94H67.66zm5 15.48v5.06a7.71 7.71 0 0 0-2.8-.54c-1.4 0-2.2.72-2.2 2.33v.84h4.93v5h-4.85v16.33h-6.09V53.2h-2.52v-5h2.52v-1.38a7.1 7.1 0 0 1 1.73-5.23 6.67 6.67 0 0 1 4.92-1.68 13.48 13.48 0 0 1 4.33.6zm-13-18.29c0 1.41.6 2.09 2 2.09a6.2 6.2 0 0 0 3-.76v4.9a9 9 0 0 1-4.81 1.24c-3.72 0-6.25-1.48-6.25-6.46v-10.2H51V7.8h2.56V2.29h6.09V7.8h5.05v5.21h-5.05zM57 58.79a11.28 11.28 0 0 1-11.65 11.22c-6.65 0-11.58-5-11.58-11.14v-.08a11.29 11.29 0 0 1 11.66-11.21c6.65 0 11.57 4.94 11.57 11.13zm-6 0a5.72 5.72 0 0 0-5.65-6c-3.49 0-5.57 2.69-5.57 5.87v.08a5.71 5.71 0 0 0 5.65 5.94c3.48.05 5.57-2.67 5.57-5.81zm-9.46-29.46V7.8h6.09v21.53zM41.38.01h6.41v5.42h-6.41zm-10 21.38v8h-6.06V7.8h6.09v4.34c1.24-3 3.24-4.9 6.85-4.74v6.38h-.32c-4.05 0-6.53 2.46-6.53 7.6zm-20.55-.48H6.17v8.43H0V1.21h11.46c6.69 0 10.73 4 10.73 9.72v.08c0 6.51-5.05 9.89-11.33 9.89zm5.11-9.9c0-2.77-1.92-4.26-5-4.26H6.17v8.6h4.89c3.08 0 4.88-1.85 4.88-4.26zM176 45.61h-6.4v-5.42h6.4zm-.16 23.9h-6.08v-21.5h6.08zM191 47.58a10.54 10.54 0 0 1 8.57 3.61l-3.73 4a6.27 6.27 0 0 0-4.84-2.35c-3.05 0-5.21 2.69-5.21 5.87v.08c0 3.29 2.12 5.94 5.45 5.94a6.76 6.76 0 0 0 4.92-2.29l3.57 3.62a10.79 10.79 0 0 1-8.8 3.95 11 11 0 0 1-11.18-11.12v-.08A11 11 0 0 1 191 47.58zm18.24 21.93h-6.09v-21.5h6.09zm10.21-18.5c1.4-1.81 3.2-3.45 6.29-3.45 4.61 0 7.29 3 7.29 8v13.95h-6.09v-12c0-2.89-1.36-4.38-3.68-4.38s-3.81 1.49-3.81 4.38v12h-6.09v-21.5h6.09z" fill="maroon" fill-rule="evenodd"/></svg>