<svg xmlns="http://www.w3.org/2000/svg" width="40" height="40"><path d="M20 7.2C12.9 7.2 7.2 12.9 7.2 20c0 3.4 1.3 6.6 3.7 9 .8.8 2 .8 2.8 0 .8-.8.8-2 0-2.8-1.7-1.7-2.6-3.9-2.6-6.2 0-4.8 3.9-8.8 8.8-8.8s8.8 3.9 8.8 8.8c0 2.3-.9 4.6-2.6 6.2-.8.8-.8 2 0 2.8.4.4.9.6 1.4.6.5 0 1-.2 1.4-.6 2.4-2.4 3.7-5.6 3.7-9 .2-7.1-5.5-12.8-12.6-12.8zM20 0C9 0 0 9 0 20c0 5.3 2.1 10.3 5.9 14.1.8.8 2 .8 2.8 0 .8-.8.8-2 0-2.8-3-3-4.7-7-4.7-11.3 0-8.8 7.2-16 16-16s16 7.2 16 16c0 4.3-1.7 8.3-4.7 11.3-.8.8-.8 2 0 2.8.4.4.9.6 1.4.6.5 0 1-.2 1.4-.6C37.9 30.3 40 25.3 40 20 40 9 31 0 20 0zm-4 16c-1.1 1.1-1.6 2.5-1.6 4s.6 2.9 1.6 4c.8.8 2 .8 2.8 0 .8-.8.8-2 0-2.8-.3-.3-.5-.7-.5-1.1 0-.4.2-.8.5-1.1.6-.6 1.6-.6 2.3 0 .3.3.5.7.5 1.1 0 .4-.2.8-.5 1.1-.8.8-.8 2 0 2.8.4.4.9.6 1.4.6.5 0 1-.2 1.4-.6 1.1-1.1 1.6-2.5 1.6-4s-.5-2.9-1.5-4c-2.2-2.2-5.8-2.2-8 0zm4 11.3c-3.1 0-5.6 2.5-5.6 5.6V38c0 1.1.9 2 2 2s2-.9 2-2v-5.2c0-.9.7-1.6 1.6-1.6.9 0 1.6.7 1.6 1.6V38c0 1.1.9 2 2 2s2-.9 2-2v-5.2c0-3-2.5-5.5-5.6-5.5z"/></svg>
