<svg xmlns="http://www.w3.org/2000/svg" width="30" height="30"><path d="M30 2.4v19.7c0 1.3-1.1 2.4-2.4 2.4-.6 0-1.2-.5-1.2-1.2 0-.6.5-1.2 1.2-1.2l.1-19.8H2.4l-.1 19.8c.6 0 1.2.6 1.2 1.2s-.5 1.2-1.1 1.2c-1.3 0-2.4-1.1-2.4-2.4V2.4C0 1.1 1.1 0 2.4 0h25.2C28.9 0 30 1.1 30 2.4zm-6.7 13c-.6 0-1.2.5-1.2 1.2L22 27.8l-14.2-.2V16.5c0-.6-.5-1.2-1.2-1.2s-1.2.5-1.2 1.2v11.1c0 1.3 1.1 2.4 2.4 2.4H22c1.3 0 2.4-1.1 2.4-2.4V16.5c.1-.6-.5-1.1-1.1-1.1zm1.3-4.3h-19c-.6 0-1.2.5-1.2 1.2s.5 1.2 1.2 1.2h19c.6 0 1.2-.5 1.2-1.2s-.6-1.2-1.2-1.2z"/></svg>
