<svg xmlns="http://www.w3.org/2000/svg" width="25" height="25"><path fill-rule="evenodd" d="M21.981 18.379a10.165 10.165 0 0 1-7.21 2.982c-2.612 0-5.222-.994-7.211-2.982-3.976-3.976-3.976-10.446 0-14.421 3.975-3.973 10.443-3.976 14.421 0 3.976 3.975 3.976 10.445 0 14.421zM20.62 5.318A8.249 8.249 0 0 0 14.771 2.9a8.25 8.25 0 0 0-5.85 2.418c-3.226 3.226-3.226 8.474 0 11.7 3.223 3.224 8.474 3.225 11.699 0 3.226-3.226 3.226-8.474 0-11.7zM6.745 19.195a.96.96 0 0 1 0 1.36l-4.15 4.15a.955.955 0 0 1-.681.282.96.96 0 0 1-.68-1.642l4.15-4.15a.962.962 0 0 1 1.361 0z"/></svg>
