<svg xmlns="http://www.w3.org/2000/svg" width="353" height="84"><path d="M342.822 53.657c.174.058.318.087.435.087h.521c1.623 0 3.19-.363 4.698-1.092a11.58 11.58 0 0 0 3.828-2.928l.696 1.224a52.965 52.965 0 0 1-2.784 2.447c-.928.758-1.885 1.515-2.871 2.272a2727.96 2727.96 0 0 0-5.61 4.283 177.145 177.145 0 0 0-5.177 4.108c-5.104-1.631-8.829-3.816-11.178-6.556-2.348-2.738-3.901-5.563-4.654-8.477a12.469 12.469 0 0 1-.391-1.748 35.949 35.949 0 0 1-.218-1.748 661.27 661.27 0 0 1-.174-2.71 45.679 45.679 0 0 1-.087-2.884v-1.136c0-.408.028-.815.087-1.223a26.121 26.121 0 0 1 1.696-8.347c1.015-2.651 2.798-4.558 5.35-5.724l15.746-6.905 9.569 15.12-19.138 12.411c1.044 3.264 2.436 5.623 4.176 7.079 1.74 1.457 3.566 2.272 5.48 2.447zm-1.479-17.13l-8.873-13.809v19.315l8.873-5.506zm-28.401 21.805c.434.671.913 1.326 1.435 1.967a.745.745 0 0 1 .13.175.615.615 0 0 0 .131.175c.174.233.361.467.565.699.202.233.392.467.566.7.464.698.826 1.514 1.087 2.446.261.932.391 1.951.391 3.059a13.781 13.781 0 0 1-.695 4.283c-.929 3.029-3.016 5.812-6.264 8.346-3.249 2.535-8.062 3.803-14.44 3.803h-1.392c-4.641 0-8.033-.773-10.178-2.317-2.146-1.544-3.392-3.249-3.741-5.113 0-.174-.015-.349-.043-.523a3.12 3.12 0 0 1-.044-.526c0-1.748.609-3.292 1.827-4.631 1.218-1.341 2.812-2.01 4.785-2.01h.608c1.914.231 3.508.902 4.785 2.01 1.275 1.105 1.914 2.387 1.914 3.845 0 .175-.015.364-.043.569a3.465 3.465 0 0 1-.131.567c-.233.874-.77 1.733-1.609 2.579-.842.844-2.045 1.558-3.61 2.141v.086c-.059.467.347.816 1.217 1.049.87.233 1.942.351 3.219.351.637 0 1.319-.031 2.044-.087a25.178 25.178 0 0 0 2.132-.264 20.51 20.51 0 0 0 5.524-1.791c1.71-.845 2.71-1.996 3.001-3.452.115-.467.203-.933.26-1.398.058-.467.088-.905.088-1.312 0-1.34-.233-2.477-.696-3.408a18.883 18.883 0 0 0-1.653-2.709 8.143 8.143 0 0 0-.566-.831 90.4 90.4 0 0 0-.652-.83c-.87-1.224-1.682-2.636-2.436-4.238-.754-1.603-1.131-3.772-1.131-6.512-1.16.816-2.233 1.588-3.218 2.317a74.95 74.95 0 0 0-2.871 2.227c-.465.293-.899.599-1.305.919-.406.32-.813.655-1.217 1.004-.581.467-1.19.948-1.827 1.443a30.242 30.242 0 0 0-1.914 1.616l-.174-.087c-2.031-.991-3.799-2.199-5.307-3.627-1.509-1.426-2.435-3.83-2.784-7.211V33.73c0-2.273.536-3.933 1.61-4.982 1.072-1.049 2.508-1.951 4.306-2.709a694.594 694.594 0 0 1 6.916-3.015c2.638-1.136 5.437-3.044 8.394-5.725v-.087a46.697 46.697 0 0 0 1.827 1.922c.753.758 1.682 1.545 2.784 2.36 1.448 1.108 3.219 2.142 5.306 3.102 2.088.962 4.494 1.531 7.22 1.705v1.311c-1.335.059-2.465.336-3.392.83-.929.496-1.392 1.617-1.392 3.365v23.947c0 1.049.217 1.909.653 2.578zm-13.615-28.01a18.07 18.07 0 0 1-2.348-.962 27.975 27.975 0 0 1-1.914-1.049 18.222 18.222 0 0 1-1.566-.874l-1.392-.874a.755.755 0 0 0-.174-.131.627.627 0 0 1-.173-.131v26.045c0 1.166.173 2.142.521 2.927.349.788.898 1.181 1.653 1.181.638 0 1.392-.248 2.262-.743.87-.495 1.913-1.355 3.131-2.578V30.322zm-28.618 25.345a2277.754 2277.754 0 0 0-5.611 4.283 177.063 177.063 0 0 0-5.176 4.108c-5.104-1.631-8.83-3.816-11.177-6.556-2.35-2.738-3.902-5.563-4.655-8.477a12.616 12.616 0 0 1-.392-1.748 34.743 34.743 0 0 1-.217-1.748c-.058-.875-.117-1.777-.173-2.71a45.665 45.665 0 0 1-.088-2.884v-1.136c0-.408.029-.815.088-1.223a26.04 26.04 0 0 1 1.695-8.347c1.014-2.651 2.797-4.558 5.351-5.724l15.744-6.905 9.569 15.12-19.138 12.411c1.045 3.264 2.436 5.623 4.176 7.079 1.739 1.457 3.567 2.272 5.481 2.447.174.058.317.087.435.087h.522a10.67 10.67 0 0 0 4.697-1.092c1.507-.728 2.784-1.704 3.827-2.928l.697 1.224a53.785 53.785 0 0 1-2.784 2.447c-.929.758-1.886 1.515-2.871 2.272zm-6.002-19.14l-8.873-13.809v19.315l8.873-5.506zm-29.055-26.045v39.155c0 1.282.174 2.36.523 3.233.347.874 1.188 1.341 2.522 1.399.522 0 1.16-.087 1.914-.262.753-.176 1.622-.466 2.61-.874v1.31c-1.044.467-2.249 1.151-3.61 2.055a78.724 78.724 0 0 0-4.22 3.014c-.869.7-1.711 1.4-2.522 2.098a84.128 84.128 0 0 0-2.349 2.098l-.348.35c-.347-.35-.711-.7-1.087-1.049-.378-.351-.77-.728-1.174-1.136a65.437 65.437 0 0 0-4.524-3.977c-1.565-1.252-3.162-2.142-4.785-2.666v-.27a29.82 29.82 0 0 0-2.565 1.538 78.305 78.305 0 0 0-4.218 3.014c-.871.7-1.712 1.4-2.523 2.098a84.188 84.188 0 0 0-2.35 2.098l-.347.35c-.348-.35-.711-.7-1.088-1.049a41.365 41.365 0 0 1-1.174-1.136 65.189 65.189 0 0 0-4.523-3.977c-1.566-1.252-3.162-2.142-4.784-2.666v-1.486c.289.118.578.205.869.263.29.058.55.087.783.087.986 0 1.623-.32 1.914-.961.289-.641.463-1.34.521-2.098V17.212c0-.641-.16-1.515-.478-2.622a30.439 30.439 0 0 0-1.261-3.497 28.363 28.363 0 0 0-1.609-3.233c-.61-1.049-1.234-1.923-1.87-2.623l-.262-.262.696-1.485a.986.986 0 0 0 .174.262l.175.175c.926.992 1.739 2.04 2.435 3.146.695 1.108 1.361 2.477 2 4.108v-.088c.986-4.077 3.466-6.758 7.439-8.04 3.971-1.281 8.336-2.242 13.092-2.885v1.225c-3.423.757-5.539 1.937-6.351 3.539-.812 1.603-1.218 3.453-1.218 5.55v39.155c0 1.282.174 2.36.523 3.233.347.874 1.187 1.341 2.522 1.399.522 0 1.159-.087 1.914-.262.753-.176 1.623-.466 2.61-.874v.901c.218.037.425.06.607.06.986 0 1.623-.32 1.914-.961.289-.641.463-1.34.522-2.098V17.212c0-.641-.16-1.515-.479-2.622a30.439 30.439 0 0 0-1.261-3.497c-.465-1.105-1-2.185-1.61-3.233-.609-1.049-1.232-1.923-1.87-2.623l-.26-.262.695-1.485a.962.962 0 0 0 .174.262l.175.175c.926.992 1.739 2.04 2.435 3.146.696 1.108 1.362 2.477 2.001 4.108v-.088c.986-4.077 3.464-6.758 7.438-8.04C234.1 1.772 238.464.811 243.221.168v1.225c-3.423.757-5.54 1.937-6.35 3.539-.814 1.603-1.219 3.453-1.219 5.55zm-54.628 46.759c-.522.117-1.102.335-1.74.655-.638.32-1.304.686-2.001 1.093a18.975 18.975 0 0 0-2.87 2.534 15.816 15.816 0 0 0-2.349 3.233c-.232-.582-.653-1.223-1.261-1.923-.609-.698-1.379-1.398-2.305-2.097a33.75 33.75 0 0 0-3.48-2.534 28.459 28.459 0 0 0-3.915-2.098 22.552 22.552 0 0 0-3.131-1.136c-1.044-.291-2.031-.437-2.958-.437v-1.486c.985.059 1.797-.378 2.436-1.311.637-.931.956-2.067.956-3.408V23.417c.638.117 1.334.205 2.088.262.753.059 1.508.087 2.262.087 2.203 0 4.668-.275 7.394-.83 2.726-.553 5.481-1.674 8.265-3.365a29.828 29.828 0 0 0 2.044-1.311c.666-.465 1.318-.99 1.957-1.573 1.218.817 2.275 1.617 3.175 2.404.898.787 1.697 1.56 2.392 2.316 1.74 2.156 2.74 4.356 3.002 6.598.261 2.244.361 4.822.305 7.735v2.971c0 .525.012 1.049.043 1.574.028.524.043 1.02.043 1.485 0 .525.013 1.021.044 1.486.028.468.044.933.044 1.398 0 2.857-.581 5.42-1.741 7.692-1.16 2.272-4.06 3.905-8.699 4.895zm-2.088-26.221c0-1.747-.508-3.116-1.522-4.108-1.015-.989-2.103-1.689-3.262-2.097a9.606 9.606 0 0 0-1.827-.481 10.674 10.674 0 0 0-1.566-.13v24.733l8.177 5.506V31.02zm-32.272 26.046c-.349.234-.711.481-1.088.743-.378.261-.739.539-1.087.829a70.449 70.449 0 0 0-4.045 2.972c-1.248.992-2.219 1.805-2.915 2.448a8.836 8.836 0 0 0-1.783-1.225 47.515 47.515 0 0 1-2.044-1.136l-1.044-.524a9.437 9.437 0 0 1-1.044-.612c-2.146-1.164-4.104-2.694-5.872-4.588-1.77-1.892-2.653-4.908-2.653-9.046a109.929 109.929 0 0 0-.174-6.118c0-.349-.015-.699-.044-1.049a12.23 12.23 0 0 1-.043-1.049c0-.349-.015-.699-.044-1.048-.03-.349-.043-.7-.043-1.049 0-2.738.289-5.288.87-7.647.579-2.361 1.797-4.18 3.653-5.462l19.138-6.905 6.873 13.022-10.961 5.507-6.177-13.722v22.024c0 2.622 1.001 4.982 3.002 7.079 2 2.098 4.363 3.147 7.09 3.147.637 0 1.274-.057 1.913-.175a9.598 9.598 0 0 0 2.001-.612 8.651 8.651 0 0 0 1.914-1.005 17.633 17.633 0 0 0 1.913-1.529l1.306 1.311c-.987.583-2.249 1.354-3.785 2.316a244.055 244.055 0 0 0-4.827 3.103zm-48.366-1.399a2484.52 2484.52 0 0 0-5.611 4.283 177.063 177.063 0 0 0-5.176 4.108c-5.104-1.631-8.829-3.816-11.178-6.556-2.349-2.738-3.901-5.563-4.654-8.477a12.616 12.616 0 0 1-.392-1.748 34.743 34.743 0 0 1-.217-1.748c-.059-.875-.117-1.777-.174-2.71a46.443 46.443 0 0 1-.087-2.884v-1.136c0-.408.029-.815.087-1.223a26.067 26.067 0 0 1 1.696-8.347c1.014-2.651 2.797-4.558 5.35-5.724L93.688 16.6l9.568 15.12-19.138 12.411c1.044 3.264 2.436 5.623 4.176 7.079 1.74 1.457 3.567 2.272 5.481 2.447.173.058.317.087.435.087h.522c1.622 0 3.188-.363 4.697-1.092 1.507-.728 2.784-1.704 3.827-2.928l.696 1.224a52.952 52.952 0 0 1-2.783 2.447c-.929.758-1.886 1.515-2.871 2.272zm-6.002-19.14l-8.873-13.809v19.315l8.873-5.506zM66.025 55.754c0 1.458-.465 3.745-1.391 6.862-.929 3.115-3.249 6.423-6.96 9.919-1.913 1.748-4.262 3.481-7.046 5.201-2.784 1.717-6.119 3.334-10.004 4.85l-.696-1.311c3.654-1.282 6.379-2.884 8.177-4.807 1.797-1.923 3.045-3.905 3.741-5.943.579-1.632.913-3.233 1-4.807.087-1.573.131-2.972.131-4.195V30.409A10.86 10.86 0 0 0 52.281 27c-.407-1.049-1.102-1.573-2.088-1.573-.58 0-1.261.219-2.044.656-.783.436-1.696 1.18-2.74 2.228v22.637c0 1.398.289 2.39.869 2.971.579.584 1.334.873 2.262.873.29 0 .579-.028.87-.086l.87-.175v1.223a33.822 33.822 0 0 0-4.219 2.622 62.396 62.396 0 0 0-3.784 2.972c-.522.467-1.044.917-1.566 1.355-.522.437-.987.888-1.392 1.355-1.391-1.631-3.059-3.146-5.002-4.546a47.758 47.758 0 0 0-5.959-3.67v-1.399c.116.06.232.088.348.088h1.131c.696.058 1.305-.116 1.827-.524.522-.407.783-1.399.783-2.972V18.61c0-.757-.102-1.63-.304-2.622a48.546 48.546 0 0 0-.74-3.059 31.421 31.421 0 0 0-1.914-4.544c-.754-1.456-1.509-2.535-2.262-3.235h-.173l-.088-.175.697-1.485c.173.233.317.423.435.568.115.147.26.277.435.394 1.043 1.223 1.883 2.418 2.522 3.583.637 1.166 1.101 2.215 1.392 3.146.87-3.204 2.551-5.622 5.046-7.254 2.492-1.631 5.161-2.738 8.003-3.321 1.1-.233 2.174-.393 3.218-.481a36.665 36.665 0 0 1 3.045-.131c.637 0 1.231.016 1.783.044.551.029 1.058.073 1.522.13v1.225c-.406.058-.812.102-1.217.13a26.99 26.99 0 0 0-1.305.132c-1.798.233-3.436.815-4.915 1.748-1.479.932-2.218 2.359-2.218 4.282v18.529L59.849 15.9c.29.351.609.715.957 1.093.348.38.696.774 1.044 1.18 1.044 1.283 2.014 2.768 2.914 4.457.898 1.69 1.349 3.584 1.349 5.681v.699c0 .176-.031.409-.088.699v26.045zM27.402 28.923h-8.96v20.714c.231 1.223.623 2.184 1.174 2.884.551.699 1.29 1.048 2.219 1.048.696 0 1.507-.202 2.435-.611.927-.407 1.971-1.049 3.132-1.923l.609 1.311a237.47 237.47 0 0 0-4.784 4.02 277.223 277.223 0 0 0-3.567 3.146l-.174.175-.087.087c-.87.759-1.755 1.546-2.653 2.361a68.92 68.92 0 0 1-3.088 2.621c-.755-1.282-1.74-2.534-2.958-3.757-1.218-1.225-2.494-2.242-3.828-3.059a15.966 15.966 0 0 0-2.957-1.529c-.987-.379-1.857-.569-2.61-.569v-1.399c1.74.06 2.871-.261 3.393-.961.522-.699.782-1.748.782-3.146V28.923H0v-1.311c2.551-.407 5.002-1.908 7.351-4.501a37.247 37.247 0 0 0 5.785-8.434c.926-1.805 1.681-3.554 2.261-5.244.579-1.689.927-3.175 1.044-4.458l2.001-.087v17.83h8.96v6.205z"/></svg>
