<svg xmlns="http://www.w3.org/2000/svg" width="36" height="26">
	<path d="M35.258 21.479a5.308 5.308 0 0 1-3.734 3.757c-2.745.741-13.078.749-13.517.749-.438 0-10.771-.008-13.516-.749a5.307 5.307 0 0 1-3.733-3.757c-.735-2.762-.744-8.253-.744-8.486 0-.232.009-5.723.744-8.485A5.307 5.307 0 0 1 4.491.751C7.236.01 17.569.002 18.007.002c.439 0 10.772.008 13.518.749a5.307 5.307 0 0 1 3.733 3.757c.735 2.762.744 8.253.744 8.485 0 .233-.009 5.724-.744 8.486zM33.244 5.044v-.001a3.215 3.215 0 0 0-2.261-2.279c-2.06-.556-10.065-.678-12.976-.678-2.91 0-10.915.122-12.973.678a3.215 3.215 0 0 0-2.262 2.279c-.667 2.503-.674 7.896-.674 7.95 0 .055.008 5.45.674 7.95a3.215 3.215 0 0 0 2.261 2.28c2.06.556 10.064.677 12.974.677 2.911 0 10.916-.122 12.975-.677a3.215 3.215 0 0 0 2.262-2.28c.666-2.502.673-7.895.673-7.95 0-.054-.008-5.45-.673-7.949zM13.951 18.858a1.042 1.042 0 0 1-1.553-.908V8.037a1.042 1.042 0 0 1 1.523-.925l9.136 4.759a1.04 1.04 0 0 1 .03 1.832l-9.136 5.155zm.531-9.104v6.412l5.908-3.334-5.908-3.078z"/>
</svg>
