<svg 
 xmlns="http://www.w3.org/2000/svg"
 xmlns:xlink="http://www.w3.org/1999/xlink"
 width="368px" height="70px">
<path fill-rule="evenodd"  fill="rgb(128, 0, 0)"
 d="M361.433,16.786 C364.516,17.750 367.999,19.157 367.999,22.973 L367.999,23.054 C367.999,27.513 364.556,29.722 360.153,29.722 C357.150,29.722 353.828,28.638 351.186,26.548 L353.348,23.254 C355.629,24.982 358.111,25.866 360.273,25.866 C362.354,25.866 363.555,24.982 363.555,23.576 L363.555,23.496 C363.555,21.848 361.314,21.286 358.831,20.523 C355.709,19.639 352.227,18.353 352.227,14.295 L352.227,14.215 C352.227,10.198 355.549,7.747 359.752,7.747 C362.394,7.747 365.277,8.671 367.518,10.158 L365.597,13.613 C363.555,12.367 361.394,11.604 359.633,11.604 C357.751,11.604 356.670,12.487 356.670,13.733 L356.670,13.813 C356.670,15.340 358.952,15.983 361.433,16.786 ZM333.210,20.442 C333.731,23.897 336.173,25.825 339.295,25.825 C341.656,25.825 343.337,24.941 345.018,23.294 L347.861,25.825 C345.859,28.236 343.098,29.803 339.214,29.803 C333.090,29.803 328.367,25.343 328.367,18.795 L328.367,18.715 C328.367,12.648 332.650,7.667 338.694,7.667 C345.419,7.667 348.822,12.970 348.822,19.076 C348.822,19.518 348.781,19.960 348.741,20.442 L333.210,20.442 ZM338.654,11.644 C335.692,11.644 333.611,13.934 333.170,17.228 L344.018,17.228 C343.698,14.095 341.856,11.644 338.654,11.644 ZM318.077,25.585 C320.358,25.585 322.039,24.500 323.560,22.933 L326.482,25.825 C324.401,28.156 321.959,29.803 317.836,29.803 C311.551,29.803 306.909,24.861 306.909,18.835 L306.909,18.755 C306.909,12.729 311.551,7.667 317.876,7.667 C321.879,7.667 324.360,9.153 326.322,11.323 L323.321,14.576 C321.839,13.010 320.278,11.925 317.836,11.925 C314.313,11.925 311.752,14.978 311.752,18.675 L311.752,18.755 C311.752,22.531 314.354,25.585 318.077,25.585 ZM298.178,17.268 C298.178,13.974 296.537,12.086 293.655,12.086 C290.852,12.086 288.892,14.054 288.892,17.349 L288.892,29.321 L284.049,29.321 L284.049,8.108 L288.892,8.108 L288.892,11.403 C290.252,9.395 292.214,7.667 295.496,7.667 C300.259,7.667 303.021,10.881 303.021,15.822 L303.021,29.321 L298.178,29.321 L298.178,17.268 ZM264.350,20.442 C264.870,23.897 267.312,25.825 270.435,25.825 C272.796,25.825 274.478,24.941 276.159,23.294 L279.001,25.825 C276.999,28.236 274.237,29.803 270.355,29.803 C264.230,29.803 259.507,25.343 259.507,18.795 L259.507,18.715 C259.507,12.648 263.790,7.667 269.834,7.667 C276.560,7.667 279.962,12.970 279.962,19.076 C279.962,19.518 279.922,19.960 279.882,20.442 L264.350,20.442 ZM269.794,11.644 C266.832,11.644 264.750,13.934 264.310,17.228 L275.158,17.228 C274.838,14.095 272.997,11.644 269.794,11.644 ZM252.999,57.449 C252.999,54.155 251.358,52.267 248.475,52.267 C245.674,52.267 243.712,54.235 243.712,57.529 L243.712,69.502 L238.869,69.502 L238.869,48.290 L243.712,48.290 L243.712,51.584 C245.073,49.576 247.034,47.848 250.317,47.848 C255.081,47.848 257.842,51.062 257.842,56.003 L257.842,69.502 L252.999,69.502 L252.999,57.449 ZM250.299,29.321 L250.299,8.108 L255.142,8.108 L255.142,29.321 L250.299,29.321 ZM250.099,0.235 L255.302,0.235 L255.302,4.854 L250.099,4.854 L250.099,0.235 ZM237.966,25.585 C240.248,25.585 241.929,24.500 243.450,22.933 L246.373,25.825 C244.291,28.156 241.849,29.803 237.726,29.803 C231.442,29.803 226.799,24.861 226.799,18.835 L226.799,18.755 C226.799,12.729 231.442,7.667 237.766,7.667 C241.769,7.667 244.251,9.153 246.212,11.323 L243.210,14.576 C241.729,13.010 240.168,11.925 237.726,11.925 C234.204,11.925 231.642,14.978 231.642,18.675 L231.642,18.755 C231.642,22.531 234.244,25.585 237.966,25.585 ZM234.741,58.936 C234.741,64.963 229.938,69.984 223.413,69.984 C216.969,69.984 212.206,65.042 212.206,59.016 L212.206,58.936 C212.206,52.870 217.009,47.848 223.493,47.848 C229.978,47.848 234.741,52.789 234.741,58.856 L234.741,58.936 ZM229.898,58.936 C229.898,55.200 227.216,52.106 223.413,52.106 C219.531,52.106 217.049,55.159 217.049,58.856 L217.049,58.936 C217.049,62.632 219.731,65.766 223.493,65.766 C227.417,65.766 229.898,62.672 229.898,59.016 L229.898,58.936 ZM213.505,29.722 C209.222,29.722 205.179,28.236 201.817,25.223 L204.778,21.688 C207.460,24.017 210.142,25.343 213.625,25.343 C216.667,25.343 218.588,23.937 218.588,21.808 L218.588,21.728 C218.588,19.719 217.467,18.634 212.263,17.429 C206.299,15.983 202.937,14.215 202.937,9.032 L202.937,8.953 C202.937,4.131 206.940,0.797 212.504,0.797 C216.587,0.797 219.830,2.042 222.671,4.332 L220.029,8.069 C217.507,6.180 214.986,5.176 212.424,5.176 C209.542,5.176 207.861,6.662 207.861,8.511 L207.861,8.591 C207.861,10.760 209.142,11.724 214.506,13.010 C220.430,14.456 223.512,16.586 223.512,21.246 L223.512,21.326 C223.512,26.589 219.389,29.722 213.505,29.722 ZM190.746,69.904 C187.743,69.904 184.421,68.819 181.779,66.729 L183.941,63.435 C186.222,65.162 188.704,66.046 190.866,66.046 C192.947,66.046 194.148,65.162 194.148,63.757 L194.148,63.676 C194.148,62.029 191.906,61.467 189.424,60.704 C186.302,59.820 182.820,58.534 182.820,54.477 L182.820,54.396 C182.820,50.379 186.142,47.927 190.345,47.927 C192.987,47.927 195.869,48.852 198.110,50.339 L196.189,53.794 C194.148,52.548 191.986,51.785 190.224,51.785 C188.344,51.785 187.263,52.669 187.263,53.914 L187.263,53.994 C187.263,55.521 189.544,56.164 192.026,56.967 C195.109,57.932 198.591,59.337 198.591,63.154 L198.591,63.235 C198.591,67.693 195.149,69.904 190.746,69.904 ZM181.559,-0.007 L186.403,-0.007 L186.403,29.321 L181.559,29.321 L181.559,-0.007 ZM172.931,40.415 L178.135,40.415 L178.135,45.035 L172.931,45.035 L172.931,40.415 ZM171.508,26.709 C170.067,28.437 167.865,29.763 164.663,29.763 C160.660,29.763 157.138,27.473 157.138,23.214 L157.138,23.134 C157.138,18.433 160.781,16.184 165.704,16.184 C168.266,16.184 169.907,16.545 171.548,17.068 L171.548,16.666 C171.548,13.733 169.707,12.126 166.345,12.126 C163.983,12.126 162.221,12.648 160.300,13.452 L158.979,9.555 C161.300,8.511 163.582,7.787 167.025,7.787 C173.269,7.787 176.312,11.082 176.312,16.746 L176.312,29.321 L171.508,29.321 L171.508,26.709 ZM171.628,20.442 C170.387,19.960 168.666,19.599 166.785,19.599 C163.743,19.599 161.941,20.844 161.941,22.893 L161.941,22.973 C161.941,24.982 163.743,26.106 166.024,26.106 C169.227,26.106 171.628,24.299 171.628,21.647 L171.628,20.442 ZM146.526,25.585 C148.808,25.585 150.489,24.500 152.011,22.933 L154.933,25.825 C152.851,28.156 150.409,29.803 146.286,29.803 C140.002,29.803 135.359,24.861 135.359,18.835 L135.359,18.755 C135.359,12.729 140.002,7.667 146.326,7.667 C150.329,7.667 152.811,9.153 154.772,11.323 L151.770,14.576 C150.289,13.010 148.728,11.925 146.286,11.925 C142.764,11.925 140.202,14.978 140.202,18.675 L140.202,18.755 C140.202,22.531 142.804,25.585 146.526,25.585 ZM119.683,69.502 L109.236,69.502 L109.236,41.380 L119.683,41.380 C128.489,41.380 134.573,47.446 134.573,55.361 L134.573,55.441 C134.573,63.355 128.489,69.502 119.683,69.502 ZM129.410,55.441 C129.410,49.937 125.567,45.879 119.683,45.879 L114.159,45.879 L114.159,65.003 L119.683,65.003 C125.567,65.003 129.410,61.025 129.410,55.521 L129.410,55.441 ZM126.150,29.321 L126.150,8.108 L130.994,8.108 L130.994,29.321 L126.150,29.321 ZM125.951,0.235 L131.154,0.235 L131.154,4.854 L125.951,4.854 L125.951,0.235 ZM109.254,35.829 C105.771,35.829 102.529,34.945 99.807,33.298 L101.609,29.642 C103.850,31.048 106.252,31.892 109.134,31.892 C113.457,31.892 115.818,29.642 115.818,25.384 L115.818,23.736 C114.058,26.027 111.856,27.633 108.373,27.633 C103.410,27.633 98.766,23.937 98.766,17.710 L98.766,17.630 C98.766,11.363 103.450,7.667 108.373,7.667 C111.936,7.667 114.137,9.314 115.779,11.282 L115.779,8.108 L120.622,8.108 L120.622,24.982 C120.622,28.558 119.701,31.209 117.940,32.976 C116.019,34.905 113.057,35.829 109.254,35.829 ZM115.859,17.630 C115.859,14.135 113.017,11.765 109.654,11.765 C106.292,11.765 103.650,14.095 103.650,17.590 L103.650,17.670 C103.650,21.165 106.332,23.535 109.654,23.535 C113.017,23.535 115.859,21.125 115.859,17.710 L115.859,17.630 ZM84.392,29.803 C77.947,29.803 73.184,24.861 73.184,18.835 L73.184,18.755 C73.184,12.689 77.987,7.667 84.472,7.667 C90.957,7.667 95.720,12.608 95.720,18.675 L95.720,18.755 C95.720,24.781 90.917,29.803 84.392,29.803 ZM90.877,18.755 C90.877,15.018 88.194,11.925 84.392,11.925 C80.509,11.925 78.027,14.978 78.027,18.675 L78.027,18.755 C78.027,22.451 80.709,25.585 84.472,25.585 C88.395,25.585 90.877,22.491 90.877,18.835 L90.877,18.755 ZM63.976,-0.007 L68.819,-0.007 L68.819,29.321 L63.976,29.321 L63.976,-0.007 ZM48.240,29.803 C41.796,29.803 37.033,24.861 37.033,18.835 L37.033,18.755 C37.033,12.689 41.836,7.667 48.320,7.667 C54.805,7.667 59.569,12.608 59.569,18.675 L59.569,18.755 C59.569,24.781 54.765,29.803 48.240,29.803 ZM54.725,18.755 C54.725,15.018 52.043,11.925 48.240,11.925 C44.357,11.925 41.876,14.978 41.876,18.675 L41.876,18.755 C41.876,22.451 44.558,25.585 48.320,25.585 C52.243,25.585 54.725,22.491 54.725,18.835 L54.725,18.755 ZM27.624,0.235 L32.828,0.235 L32.828,4.854 L27.624,4.854 L27.624,0.235 ZM12.969,29.321 L0.000,29.321 L0.000,1.199 L12.569,1.199 C15.772,1.199 18.293,2.083 19.894,3.689 C21.135,4.935 21.776,6.461 21.776,8.350 L21.776,8.430 C21.776,11.805 19.854,13.613 17.773,14.697 C21.055,15.822 23.337,17.710 23.337,21.527 L23.337,21.607 C23.337,26.629 19.214,29.321 12.969,29.321 ZM16.852,9.153 C16.852,6.943 15.091,5.577 11.929,5.577 L4.844,5.577 L4.844,13.050 L11.568,13.050 C14.731,13.050 16.852,11.805 16.852,9.234 L16.852,9.153 ZM18.413,21.004 C18.413,18.634 16.532,17.228 12.649,17.228 L4.844,17.228 L4.844,24.941 L13.009,24.941 C16.372,24.941 18.413,23.616 18.413,21.085 L18.413,21.004 ZM32.668,29.321 L27.824,29.321 L27.824,8.108 L32.668,8.108 L32.668,29.321 ZM144.465,45.035 L139.262,45.035 L139.262,40.415 L144.465,40.415 L144.465,45.035 ZM144.305,69.502 L139.462,69.502 L139.462,48.290 L144.305,48.290 L144.305,69.502 ZM158.717,63.877 L164.442,48.290 L169.525,48.290 L160.879,69.662 L156.515,69.662 L147.830,48.290 L153.033,48.290 L158.717,63.877 ZM177.974,69.502 L173.131,69.502 L173.131,48.290 L177.974,48.290 L177.974,69.502 ZM208.001,45.035 L202.797,45.035 L202.797,40.415 L208.001,40.415 L208.001,45.035 ZM207.841,69.502 L202.997,69.502 L202.997,48.290 L207.841,48.290 L207.841,69.502 Z"/>
</svg>