<?xml version="1.0" encoding="utf-8"?>
<!-- Generator: Adobe Illustrator 22.0.1, SVG Export Plug-In . SVG Version: 6.00 Build 0)  -->
<svg version="1.1" id="Layer_1" xmlns="http://www.w3.org/2000/svg" xmlns:xlink="http://www.w3.org/1999/xlink" x="0px" y="0px"
	 width="230.4px" height="59px" viewBox="0 0 230.4 59" style="enable-background:new 0 0 230.4 59;" xml:space="preserve">
<style type="text/css">
	.st0{fill:#FFFFFF;}
	.st1{fill:#BCB8B4;}
	.st2{fill:#357C96;}
	.st3{fill:#285D6E;}
	.st4{fill:#8B0021;}
	.st5{fill:#700011;}
	.st6{fill:#320F22;}
	.st7{fill:#250013;}
</style>
<polygon class="st0" points="33.6,58.7 23.9,41.7 33.6,24.7 53.2,24.7 63.1,41.7 53.2,58.7 "/>
<polygon class="st0" points="28.1,0.4 18.3,17.3 28.1,34.3 47.7,34.3 57.5,17.3 47.7,0.4 "/>
<polygon class="st0" points="9.8,17.3 0,34.3 9.8,51.3 29.4,51.3 39.2,34.3 29.4,17.3 "/>
<polygon class="st0" points="33.7,24.7 39.2,34.3 28.1,34.3 "/>
<polygon class="st1" points="33.6,58.7 23.9,41.7 33.6,24.7 53.2,24.7 63.1,41.7 53.2,58.7 "/>
<polygon class="st2" points="53.3,24.7 53.2,24.7 33.7,24.7 29.4,17.3 18.3,17.3 28.1,0.4 47.7,0.4 57.5,17.3 "/>
<polygon class="st3" points="47.7,34.3 39.2,34.3 33.7,24.7 53.2,24.7 53.3,24.7 "/>
<polygon class="st4" points="9.8,17.3 0,34.3 9.8,51.3 29.4,51.3 23.9,41.7 28.1,34.3 18.3,17.3 "/>
<polygon class="st5" points="29.4,51.3 29.4,51.3 23.9,41.7 28.1,34.3 28.1,34.3 39.2,34.3 39.2,34.3 "/>
<polygon class="st6" points="28.1,34.3 18.3,17.3 29.4,17.3 33.7,24.7 33.7,24.7 33.7,24.7 33.6,24.7 "/>
<polygon class="st6" points="33.7,24.7 33.7,24.7 33.7,24.7 "/>
<polyline class="st7" points="39.2,34.3 28.1,34.3 28.1,34.3 33.6,24.7 33.7,24.7 33.7,24.7 33.7,24.7 39.2,34.3 "/>
<polygon class="st0" points="33.7,24.7 39.2,34.3 28.1,34.3 "/>
<path d="M221.5,6.5V1.7h3.7c1.9,0,3,0.9,3,2.3v0c0,1.5-1.3,2.4-3.1,2.4H221.5z M220.2,12.4h1.3V7.8h3.4l3.5,4.6h1.6l-3.7-4.9
	c1.9-0.3,3.2-1.5,3.2-3.5v0c0-0.9-0.3-1.8-0.9-2.3c-0.7-0.7-1.9-1.2-3.4-1.2h-5.1V12.4z M209.2,11.3c-2.7,0-4.7-2.2-4.7-4.9v0
	c0-2.7,1.9-4.9,4.7-4.9c2.7,0,4.7,2.2,4.7,4.9v0C213.8,9.2,211.9,11.3,209.2,11.3 M209.2,12.6c3.6,0,6.1-2.9,6.1-6.2v0
	c0-3.3-2.4-6.1-6.1-6.1c-3.6,0-6.1,2.9-6.1,6.2v0C203.1,9.7,205.5,12.6,209.2,12.6 M190.8,12.4h1.3V7.2h6.4V6h-6.4V1.7h7.2V0.5h-8.6
	V12.4z M170.1,12.4h8.7v-1.2h-7.3V7h6.5V5.8h-6.5V1.7h7.3V0.5h-8.6V12.4z M160.4,12.4h1.3V1.7h4V0.5h-9.4v1.2h4V12.4z M147.5,12.6
	c3,0,5-1.8,5-5.3V0.5h-1.3v6.9c0,2.6-1.4,3.9-3.6,3.9c-2.3,0-3.6-1.4-3.6-4V0.5h-1.3v6.9C142.6,10.8,144.6,12.6,147.5,12.6
	 M133.2,12.4h1.3V1.7h4V0.5h-9.4v1.2h4V12.4z M123.4,12.4h1.3V0.5h-1.3V12.4z M113.7,12.4h1.3V1.7h4V0.5h-9.4v1.2h4V12.4z M102,12.5
	c2.4,0,4.1-1.3,4.1-3.4v0c0-1.8-1.2-2.8-3.9-3.4C99.6,5.2,99,4.6,99,3.5v0c0-1.1,1-1.9,2.5-1.9c1.2,0,2.3,0.4,3.4,1.3l0.8-1
	c-1.2-1-2.4-1.5-4.2-1.5c-2.3,0-3.9,1.4-3.9,3.2v0c0,2,1.3,2.8,4,3.4c2.5,0.5,3.1,1.2,3.1,2.3v0c0,1.2-1.1,2-2.7,2
	c-1.6,0-2.8-0.6-4.1-1.7l-0.8,1C98.6,11.9,100.1,12.5,102,12.5 M82.4,12.4h1.3V2.6l7.7,9.8h1.1V0.5h-1.3V10l-7.5-9.5h-1.3V12.4z
	 M75.3,12.4h1.3V0.5h-1.3V12.4z"/>
<path d="M217.4,27.8v-8h6c3.2,0,5.1,1.5,5.1,3.9v0c0,2.6-2.2,4-5.2,4H217.4z M216.1,36.3h1.3V29h5.8l5.6,7.3h1.7l-5.8-7.5
	c3-0.4,5.2-2.1,5.2-5v-0.1c0-1.3-0.5-2.4-1.3-3.3c-1.1-1.1-2.8-1.7-5-1.7h-7.4V36.3z M200.5,30.2l4.7-10.2l4.6,10.2H200.5z
	 M196.3,36.3h1.4l2.2-4.9h10.4l2.2,4.9h1.4l-8.2-17.8h-1.3L196.3,36.3z M183.4,36.3h11.7v-1.2h-10.4V18.7h-1.3V36.3z M171.5,36.6
	c4.3,0,7.2-2.7,7.2-7.8V18.7h-1.3V29c0,4.3-2.3,6.4-5.9,6.4c-3.7,0-6-2.4-6-6.6V18.7h-1.3V29C164.2,33.9,167.3,36.6,171.5,36.6
	 M154.4,36.6c3.1,0,5.2-1.2,7-3.1l-0.9-0.9c-1.8,1.8-3.5,2.8-6.1,2.8c-4.2,0-7.5-3.5-7.5-8v-0.1c0-4.4,3.2-7.9,7.4-7.9
	c2.7,0,4.4,1.1,6,2.6l0.9-1c-1.8-1.7-3.7-2.8-6.9-2.8c-5.1,0-8.8,4.1-8.8,9.1v0C145.6,32.6,149.3,36.6,154.4,36.6 M130.7,36.3h12.7
	v-1.2H132V28h10.1v-1.2H132v-6.9h11.3v-1.2h-12.6V36.3z M116.9,36.3h11.7v-1.2h-10.4V18.7h-1.3V36.3z M104.8,35.4
	c-4.4,0-7.5-3.6-7.5-8v-0.1c0-4.4,3.1-7.9,7.5-7.9c4.4,0,7.5,3.6,7.5,8v0C112.3,31.9,109.2,35.4,104.8,35.4 M104.8,36.6
	c5.4,0,8.9-4.3,8.9-9.1v-0.1c0-4.8-3.5-9.1-8.9-9.1s-8.9,4.3-8.9,9.1v0C95.9,32.4,99.4,36.6,104.8,36.6 M75.3,36.3h1.3V21l7,10.2
	h0.1l7-10.2v15.4h1.3V18.7h-1.2l-7.1,10.5l-7.1-10.5h-1.2V36.3z"/>
<path d="M223.8,58.9c2.6,0,4.9-1.1,6.3-2.4v-6.2h-6.5v1.1h5.4V56c-1.2,1-3.1,1.8-5.1,1.8c-4.3,0-6.9-3.1-6.9-7.3v0
	c0-3.9,2.7-7.2,6.6-7.2c2.4,0,3.9,0.8,5.2,1.9l0.8-0.9c-1.6-1.3-3.3-2.1-5.9-2.1c-4.8,0-8,4-8,8.3v0
	C215.7,55.2,218.7,58.9,223.8,58.9 M199.2,58.7h1.2V44.4l11.3,14.3h0.9V42.6h-1.2v14l-11.1-14h-1.1V58.7z M193.4,58.7h1.2V42.6h-1.2
	V58.7z M178.3,50.9v-7.2h5.5c2.9,0,4.6,1.4,4.6,3.5v0c0,2.3-2,3.7-4.7,3.7H178.3z M177.2,58.7h1.2V52h5.3l5.1,6.7h1.5l-5.3-6.9
	c2.7-0.4,4.7-1.9,4.7-4.6v0c0-1.1-0.5-2.2-1.2-3c-1-1-2.6-1.6-4.5-1.6h-6.8V58.7z M162.6,58.7h11.6v-1.1h-10.4v-6.5h9.2V50h-9.2
	v-6.3h10.3v-1.1h-11.5V58.7z M148.1,58.7h11.6v-1.1h-10.4v-6.5h9.2V50h-9.2v-6.3h10.3v-1.1h-11.5V58.7z M130.4,58.7h1.1V44.4
	l11.3,14.3h0.9V42.6h-1.2v14l-11.1-14h-1.1V58.7z M124.7,58.7h1.2V42.6h-1.2V58.7z M114.2,58.9c2.6,0,4.9-1.1,6.3-2.4v-6.2H114v1.1
	h5.4V56c-1.2,1-3.1,1.8-5.1,1.8c-4.3,0-6.9-3.1-6.9-7.3v0c0-3.9,2.7-7.2,6.6-7.2c2.4,0,3.9,0.8,5.2,1.9l0.8-0.9
	c-1.6-1.3-3.3-2.1-5.9-2.1c-4.8,0-8,4-8,8.3v0C106.1,55.2,109.1,58.9,114.2,58.9 M89.8,58.7H91V44.4l11.3,14.3h0.9V42.6h-1.1v14
	l-11.1-14h-1.1V58.7z M75.3,58.7h11.6v-1.1H76.5v-6.5h9.2V50h-9.2v-6.3h10.3v-1.1H75.3V58.7z"/>
</svg>
