<svg 
 xmlns="http://www.w3.org/2000/svg"
 xmlns:xlink="http://www.w3.org/1999/xlink"
 width="596px" height="70px">
<path fill-rule="evenodd"  fill="rgb(128, 0, 0)"
 d="M587.604,30.037 C585.925,34.357 584.045,35.957 580.647,35.957 C578.608,35.957 577.128,35.477 575.649,34.677 L577.288,31.077 C578.168,31.557 579.127,31.877 580.127,31.877 C581.486,31.877 582.326,31.277 583.126,29.437 L574.330,8.320 L579.488,8.320 L585.485,23.998 L590.962,8.320 L596.000,8.320 L587.604,30.037 ZM559.731,35.917 C556.252,35.917 553.014,35.037 550.295,33.397 L552.094,29.757 C554.334,31.157 556.733,31.997 559.612,31.997 C563.930,31.997 566.289,29.757 566.289,25.518 L566.289,23.878 C564.530,26.158 562.330,27.757 558.851,27.757 C553.894,27.757 549.256,24.078 549.256,17.878 L549.256,17.798 C549.256,11.559 553.934,7.880 558.851,7.880 C562.410,7.880 564.610,9.519 566.249,11.479 L566.249,8.320 L571.087,8.320 L571.087,25.118 C571.087,28.677 570.167,31.317 568.408,33.077 C566.488,34.997 563.530,35.917 559.731,35.917 ZM566.329,17.798 C566.329,14.319 563.490,11.959 560.131,11.959 C556.773,11.959 554.134,14.279 554.134,17.758 L554.134,17.838 C554.134,21.318 556.813,23.678 560.131,23.678 C563.490,23.678 566.329,21.278 566.329,17.878 L566.329,17.798 ZM534.898,29.917 C528.460,29.917 523.703,24.997 523.703,18.998 L523.703,18.918 C523.703,12.879 528.500,7.880 534.978,7.880 C541.455,7.880 546.213,12.799 546.213,18.838 L546.213,18.918 C546.213,24.918 541.415,29.917 534.898,29.917 ZM541.375,18.918 C541.375,15.198 538.696,12.119 534.898,12.119 C531.019,12.119 528.540,15.158 528.540,18.838 L528.540,18.918 C528.540,22.598 531.219,25.718 534.978,25.718 C538.896,25.718 541.375,22.638 541.375,18.998 L541.375,18.918 ZM514.505,0.240 L519.343,0.240 L519.343,29.437 L514.505,29.437 L514.505,0.240 ZM498.787,29.917 C492.349,29.917 487.592,24.997 487.592,18.998 L487.592,18.918 C487.592,12.879 492.389,7.880 498.867,7.880 C505.344,7.880 510.102,12.799 510.102,18.838 L510.102,18.918 C510.102,24.918 505.304,29.917 498.787,29.917 ZM505.264,18.918 C505.264,15.198 502.585,12.119 498.787,12.119 C494.908,12.119 492.429,15.158 492.429,18.838 L492.429,18.918 C492.429,22.598 495.108,25.718 498.867,25.718 C502.785,25.718 505.264,22.638 505.264,18.998 L505.264,18.918 ZM478.828,17.438 C478.828,14.079 477.269,12.279 474.550,12.279 C471.912,12.279 470.033,14.119 470.033,17.518 L470.033,29.437 L465.194,29.437 L465.194,17.398 C465.194,14.119 463.595,12.279 460.916,12.279 C458.238,12.279 456.398,14.279 456.398,17.559 L456.398,29.437 L451.560,29.437 L451.560,8.320 L456.398,8.320 L456.398,11.519 C457.757,9.639 459.597,7.880 462.835,7.880 C465.875,7.880 467.993,9.359 469.113,11.599 C470.832,9.359 473.071,7.880 476.269,7.880 C480.868,7.880 483.667,10.799 483.667,15.959 L483.667,29.437 L478.828,29.437 L478.828,17.438 ZM441.203,0.240 L446.041,0.240 L446.041,29.437 L441.203,29.437 L441.203,0.240 ZM431.163,26.838 C429.724,28.557 427.526,29.877 424.326,29.877 C420.328,29.877 416.810,27.597 416.810,23.358 L416.810,23.278 C416.810,18.598 420.448,16.359 425.366,16.359 C427.925,16.359 429.564,16.719 431.203,17.239 L431.203,16.839 C431.203,13.919 429.364,12.319 426.006,12.319 C423.647,12.319 421.888,12.839 419.968,13.639 L418.649,9.759 C420.968,8.719 423.247,7.999 426.686,7.999 C432.923,7.999 435.962,11.279 435.962,16.918 L435.962,29.437 L431.163,29.437 L431.163,26.838 ZM431.284,20.598 C430.045,20.118 428.325,19.758 426.446,19.758 C423.407,19.758 421.608,20.998 421.608,23.038 L421.608,23.118 C421.608,25.118 423.407,26.238 425.686,26.238 C428.885,26.238 431.284,24.438 431.284,21.798 L431.284,20.598 ZM408.369,17.438 C408.369,14.159 406.731,12.279 403.851,12.279 C401.053,12.279 399.094,14.239 399.094,17.518 L399.094,29.437 L394.256,29.437 L394.256,0.240 L399.094,0.240 L399.094,11.599 C400.453,9.599 402.412,7.880 405.690,7.880 C410.449,7.880 413.208,11.079 413.208,15.999 L413.208,29.437 L408.369,29.437 L408.369,17.438 ZM399.334,47.882 C404.091,47.882 406.850,51.082 406.850,56.002 L406.850,69.440 L402.013,69.440 L402.013,57.441 C402.013,54.162 400.373,52.282 397.494,52.282 C394.695,52.282 392.736,54.242 392.736,57.521 L392.736,69.440 L387.898,69.440 L387.898,48.323 L392.736,48.323 L392.736,51.602 C394.096,49.602 396.055,47.882 399.334,47.882 ZM384.497,22.838 C384.497,24.718 385.457,25.478 387.096,25.478 C388.176,25.478 389.136,25.238 390.095,24.758 L390.095,28.718 C388.896,29.397 387.537,29.797 385.736,29.797 C382.179,29.797 379.660,28.238 379.660,23.598 L379.660,12.479 L376.981,12.479 L376.981,8.320 L379.660,8.320 L379.660,2.520 L384.497,2.520 L384.497,8.320 L390.175,8.320 L390.175,12.479 L384.497,12.479 L384.497,22.838 ZM383.737,60.602 L368.223,60.602 C368.742,64.041 371.181,65.961 374.300,65.961 C376.659,65.961 378.339,65.081 380.018,63.441 L382.856,65.961 C380.858,68.360 378.099,69.920 374.220,69.920 C368.103,69.920 363.385,65.481 363.385,58.961 L363.385,58.881 C363.385,52.841 367.663,47.882 373.700,47.882 C380.417,47.882 383.817,53.162 383.817,59.241 C383.817,59.682 383.776,60.121 383.737,60.602 ZM373.660,51.841 C370.701,51.841 368.622,54.122 368.182,57.401 L379.018,57.401 C378.699,54.282 376.860,51.841 373.660,51.841 ZM368.781,17.438 C368.781,14.159 367.141,12.279 364.262,12.279 C361.463,12.279 359.505,14.239 359.505,17.518 L359.505,29.437 L354.666,29.437 L354.666,0.240 L359.505,0.240 L359.505,11.599 C360.864,9.599 362.823,7.880 366.102,7.880 C370.859,7.880 373.618,11.079 373.618,15.999 L373.618,29.437 L368.781,29.437 L368.781,17.438 ZM359.185,45.083 L353.987,45.083 L353.987,40.483 L359.185,40.483 L359.185,45.083 ZM340.667,29.877 C337.190,29.877 334.990,28.117 333.511,26.158 L333.511,35.837 L328.672,35.837 L328.672,8.320 L333.511,8.320 L333.511,11.839 C335.070,9.639 337.270,7.880 340.667,7.880 C345.666,7.880 350.504,11.839 350.504,18.838 L350.504,18.918 C350.504,25.918 345.705,29.877 340.667,29.877 ZM345.586,18.838 C345.586,14.759 342.827,12.079 339.549,12.079 C336.270,12.079 333.391,14.799 333.391,18.838 L333.391,18.918 C333.391,22.998 336.270,25.678 339.549,25.678 C342.867,25.678 345.586,23.078 345.586,18.918 L345.586,18.838 ZM317.435,69.841 C313.157,69.841 309.119,68.360 305.760,65.361 L308.718,61.841 C311.398,64.161 314.077,65.481 317.554,65.481 C320.593,65.481 322.513,64.080 322.513,61.961 L322.513,61.881 C322.513,59.881 321.393,58.801 316.195,57.601 C310.238,56.162 306.879,54.402 306.879,49.241 L306.879,49.162 C306.879,44.362 310.878,41.044 316.435,41.044 C320.513,41.044 323.752,42.283 326.591,44.562 L323.952,48.283 C321.433,46.402 318.914,45.402 316.355,45.402 C313.477,45.402 311.798,46.882 311.798,48.722 L311.798,48.802 C311.798,50.962 313.077,51.921 318.435,53.202 C324.351,54.642 327.431,56.762 327.431,61.401 L327.431,61.481 C327.431,66.720 323.312,69.841 317.435,69.841 ZM309.396,29.917 C300.799,29.917 294.802,23.398 294.802,15.519 L294.802,15.439 C294.802,7.559 300.879,0.960 309.476,0.960 C318.072,0.960 324.070,7.479 324.070,15.359 L324.070,15.439 C324.070,23.318 317.992,29.917 309.396,29.917 ZM318.911,15.439 C318.911,9.999 314.953,5.479 309.396,5.479 C303.838,5.479 299.959,9.919 299.959,15.359 L299.959,15.439 C299.959,20.878 303.918,25.397 309.476,25.397 C315.033,25.397 318.911,20.958 318.911,15.519 L318.911,15.439 ZM285.525,40.243 L290.364,40.243 L290.364,69.440 L285.525,69.440 L285.525,40.243 ZM278.685,4.120 C276.846,4.120 275.886,5.120 275.886,7.319 L275.886,8.479 L281.484,8.479 L281.484,12.479 L275.966,12.479 L275.966,29.437 L271.128,29.437 L271.128,12.479 L268.449,12.479 L268.449,8.439 L271.128,8.439 L271.128,6.920 C271.128,4.559 271.728,2.800 272.847,1.680 C273.967,0.560 275.526,0.000 277.605,0.000 C279.284,0.000 280.444,0.240 281.524,0.560 L281.524,4.640 C280.564,4.320 279.724,4.120 278.685,4.120 ZM254.611,29.917 C248.174,29.917 243.416,24.997 243.416,18.998 L243.416,18.918 C243.416,12.879 248.214,7.880 254.691,7.880 C261.168,7.880 265.926,12.799 265.926,18.838 L265.926,18.918 C265.926,24.918 261.128,29.917 254.611,29.917 ZM261.088,18.918 C261.088,15.198 258.409,12.119 254.611,12.119 C250.732,12.119 248.254,15.158 248.254,18.838 L248.254,18.918 C248.254,22.598 250.933,25.718 254.691,25.718 C258.609,25.718 261.088,22.638 261.088,18.998 L261.088,18.918 ZM247.694,65.481 C250.492,65.481 252.451,63.521 252.451,60.241 L252.451,48.323 L257.289,48.323 L257.289,69.440 L252.451,69.440 L252.451,66.161 C251.092,68.161 249.133,69.880 245.854,69.880 C241.096,69.880 238.337,66.680 238.337,61.761 L238.337,48.323 L243.175,48.323 L243.175,60.320 C243.175,63.601 244.815,65.481 247.694,65.481 ZM226.619,69.841 C223.621,69.841 220.302,68.761 217.663,66.680 L219.822,63.401 C222.101,65.121 224.580,66.001 226.739,66.001 C228.819,66.001 230.018,65.121 230.018,63.721 L230.018,63.641 C230.018,62.000 227.779,61.442 225.300,60.682 C222.181,59.801 218.702,58.521 218.702,54.482 L218.702,54.402 C218.702,50.402 222.021,47.962 226.220,47.962 C228.859,47.962 231.737,48.882 233.976,50.363 L232.057,53.802 C230.018,52.562 227.859,51.802 226.099,51.802 C224.220,51.802 223.141,52.681 223.141,53.922 L223.141,54.002 C223.141,55.521 225.420,56.162 227.899,56.961 C230.978,57.922 234.456,59.321 234.456,63.121 L234.456,63.202 C234.456,67.640 231.018,69.841 226.619,69.841 ZM223.620,22.838 C223.620,24.718 224.580,25.478 226.219,25.478 C227.299,25.478 228.258,25.238 229.218,24.758 L229.218,28.718 C228.018,29.397 226.659,29.797 224.860,29.797 C221.301,29.797 218.782,28.238 218.782,23.598 L218.782,12.479 L216.103,12.479 L216.103,8.320 L218.782,8.320 L218.782,2.520 L223.620,2.520 L223.620,8.320 L229.298,8.320 L229.298,12.479 L223.620,12.479 L223.620,22.838 ZM208.825,40.483 L214.023,40.483 L214.023,45.083 L208.825,45.083 L208.825,40.483 ZM207.903,17.438 C207.903,14.159 206.264,12.279 203.385,12.279 C200.586,12.279 198.627,14.239 198.627,17.518 L198.627,29.437 L193.789,29.437 L193.789,8.320 L198.627,8.320 L198.627,11.599 C199.986,9.599 201.946,7.880 205.224,7.880 C209.982,7.880 212.741,11.079 212.741,15.999 L212.741,29.437 L207.903,29.437 L207.903,17.438 ZM206.101,41.443 L194.466,69.640 L190.148,69.640 L178.512,41.443 L183.950,41.443 L192.387,62.961 L200.783,41.443 L206.101,41.443 ZM174.113,20.598 C174.633,24.038 177.072,25.958 180.191,25.958 C182.550,25.958 184.230,25.078 185.909,23.438 L188.747,25.958 C186.748,28.358 183.989,29.917 180.111,29.917 C173.994,29.917 169.276,25.478 169.276,18.959 L169.276,18.878 C169.276,12.839 173.554,7.880 179.591,7.880 C186.309,7.880 189.707,13.159 189.707,19.238 C189.707,19.678 189.667,20.118 189.627,20.598 L174.113,20.598 ZM179.552,11.839 C176.592,11.839 174.513,14.119 174.073,17.398 L184.909,17.398 C184.589,14.279 182.750,11.839 179.552,11.839 ZM158.355,66.201 C155.956,68.440 153.157,69.841 149.759,69.841 C144.561,69.841 140.642,66.680 140.642,61.841 L140.642,61.761 C140.642,58.161 142.761,55.562 146.600,53.922 C145.001,51.882 144.281,50.122 144.281,48.082 L144.281,48.002 C144.281,44.243 147.320,40.964 152.318,40.964 C156.756,40.964 159.755,43.963 159.755,47.722 L159.755,47.802 C159.755,51.482 157.315,53.681 153.597,55.082 L158.395,59.961 C159.474,58.361 160.474,56.521 161.394,54.562 L165.112,56.521 C163.993,58.762 162.753,60.961 161.314,62.920 L165.712,67.400 L162.073,70.000 L158.355,66.201 ZM155.396,48.082 L155.396,48.002 C155.396,46.122 154.077,44.843 152.197,44.843 C150.198,44.843 148.879,46.242 148.879,48.202 L148.879,48.283 C148.879,49.682 149.439,50.722 150.998,52.442 C153.877,51.402 155.396,50.081 155.396,48.082 ZM149.319,56.961 C146.720,58.082 145.601,59.801 145.601,61.601 L145.601,61.681 C145.601,64.041 147.560,65.760 150.279,65.760 C152.197,65.760 153.957,64.840 155.556,63.321 L149.319,56.961 ZM160.513,17.438 C160.513,14.079 158.954,12.279 156.235,12.279 C153.596,12.279 151.717,14.119 151.717,17.518 L151.717,29.437 L146.879,29.437 L146.879,17.398 C146.879,14.119 145.280,12.279 142.601,12.279 C139.922,12.279 138.083,14.279 138.083,17.559 L138.083,29.437 L133.245,29.437 L133.245,8.320 L138.083,8.320 L138.083,11.519 C139.442,9.639 141.281,7.880 144.520,7.880 C147.559,7.880 149.678,9.359 150.797,11.599 C152.517,9.359 154.755,7.880 157.954,7.880 C162.552,7.880 165.351,10.799 165.351,15.959 L165.351,29.437 L160.513,29.437 L160.513,17.438 ZM123.486,22.838 C123.486,24.718 124.446,25.478 126.085,25.478 C127.165,25.478 128.124,25.238 129.084,24.758 L129.084,28.718 C127.885,29.397 126.525,29.797 124.726,29.797 C121.168,29.797 118.649,28.238 118.649,23.598 L118.649,12.479 L115.970,12.479 L115.970,8.320 L118.649,8.320 L118.649,2.520 L123.486,2.520 L123.486,8.320 L129.164,8.320 L129.164,12.479 L123.486,12.479 L123.486,22.838 ZM106.771,21.398 L106.771,29.437 L101.933,29.437 L101.933,8.320 L106.771,8.320 L106.771,13.079 C108.090,9.919 110.530,7.759 114.248,7.919 L114.248,13.039 L113.968,13.039 C109.730,13.039 106.771,15.799 106.771,21.398 ZM92.174,26.838 C90.734,28.557 88.535,29.877 85.337,29.877 C81.338,29.877 77.820,27.597 77.820,23.358 L77.820,23.278 C77.820,18.598 81.458,16.359 86.376,16.359 C88.935,16.359 90.574,16.719 92.214,17.239 L92.214,16.839 C92.214,13.919 90.375,12.319 87.016,12.319 C84.657,12.319 82.897,12.839 80.978,13.639 L79.659,9.759 C81.978,8.719 84.257,7.999 87.696,7.999 C93.933,7.999 96.972,11.279 96.972,16.918 L96.972,29.437 L92.174,29.437 L92.174,26.838 ZM92.294,20.598 C91.054,20.118 89.335,19.758 87.456,19.758 C84.417,19.758 82.618,20.998 82.618,23.038 L82.618,23.118 C82.618,25.118 84.417,26.238 86.696,26.238 C89.895,26.238 92.294,24.438 92.294,21.798 L92.294,20.598 ZM65.261,29.877 C61.782,29.877 59.583,28.117 58.104,26.158 L58.104,35.837 L53.266,35.837 L53.266,8.320 L58.104,8.320 L58.104,11.839 C59.663,9.639 61.862,7.880 65.261,7.880 C70.259,7.880 75.097,11.839 75.097,18.838 L75.097,18.918 C75.097,25.918 70.299,29.877 65.261,29.877 ZM70.178,18.838 C70.178,14.759 67.420,12.079 64.141,12.079 C60.862,12.079 57.984,14.799 57.984,18.838 L57.984,18.918 C57.984,22.998 60.862,25.678 64.141,25.678 C67.460,25.678 70.178,23.078 70.178,18.918 L70.178,18.838 ZM33.590,20.598 C34.110,24.038 36.549,25.958 39.668,25.958 C42.027,25.958 43.707,25.078 45.386,23.438 L48.224,25.958 C46.225,28.358 43.466,29.917 39.588,29.917 C33.471,29.917 28.753,25.478 28.753,18.959 L28.753,18.878 C28.753,12.839 33.031,7.880 39.068,7.880 C45.786,7.880 49.184,13.159 49.184,19.238 C49.184,19.678 49.144,20.118 49.104,20.598 L33.590,20.598 ZM39.028,11.839 C36.069,11.839 33.990,14.119 33.550,17.398 L44.386,17.398 C44.066,14.279 42.227,11.839 39.028,11.839 ZM10.435,29.437 L-0.000,29.437 L-0.000,1.440 L10.435,1.440 C19.231,1.440 25.309,7.479 25.309,15.359 L25.309,15.439 C25.309,23.318 19.231,29.437 10.435,29.437 ZM20.151,15.439 C20.151,9.959 16.313,5.919 10.435,5.919 L4.917,5.919 L4.917,24.957 L10.435,24.957 C16.313,24.957 20.151,20.998 20.151,15.519 L20.151,15.439 ZM213.863,69.440 L209.025,69.440 L209.025,48.323 L213.863,48.323 L213.863,69.440 ZM269.688,56.361 C272.247,56.361 273.886,56.722 275.526,57.242 L275.526,56.842 C275.526,53.922 273.687,52.322 270.328,52.322 C267.969,52.322 266.210,52.841 264.291,53.642 L262.971,49.762 C265.290,48.722 267.569,48.002 271.008,48.002 C277.245,48.002 280.284,51.283 280.284,56.922 L280.284,69.440 L275.486,69.440 L275.486,66.840 C274.046,68.560 271.847,69.880 268.649,69.880 C264.650,69.880 261.132,67.600 261.132,63.361 L261.132,63.281 C261.132,58.602 264.770,56.361 269.688,56.361 ZM265.930,63.121 C265.930,65.121 267.729,66.241 270.008,66.241 C273.207,66.241 275.606,64.441 275.606,61.801 L275.606,60.602 C274.366,60.121 272.647,59.762 270.768,59.762 C267.729,59.762 265.930,61.001 265.930,63.041 L265.930,63.121 ZM341.669,47.882 C345.667,47.882 348.146,49.363 350.105,51.522 L347.106,54.761 C345.627,53.202 344.067,52.123 341.628,52.123 C338.110,52.123 335.552,55.162 335.552,58.842 L335.552,58.922 C335.552,62.681 338.151,65.721 341.868,65.721 C344.147,65.721 345.826,64.641 347.347,63.080 L350.265,65.961 C348.186,68.280 345.746,69.920 341.628,69.920 C335.351,69.920 330.713,65.000 330.713,59.001 L330.713,58.922 C330.713,52.921 335.351,47.882 341.669,47.882 ZM359.025,69.440 L354.188,69.440 L354.188,48.323 L359.025,48.323 L359.025,69.440 ZM421.687,47.882 C425.686,47.882 428.165,49.363 430.125,51.522 L427.125,54.761 C425.646,53.202 424.087,52.123 421.647,52.123 C418.130,52.123 415.571,55.162 415.571,58.842 L415.571,58.922 C415.571,62.681 418.170,65.721 421.888,65.721 C424.167,65.721 425.846,64.641 427.366,63.080 L430.284,65.961 C428.205,68.280 425.766,69.920 421.647,69.920 C415.371,69.920 410.732,65.000 410.732,59.001 L410.732,58.922 C410.732,52.921 415.371,47.882 421.687,47.882 ZM442.483,47.882 C449.200,47.882 452.599,53.162 452.599,59.241 C452.599,59.682 452.559,60.121 452.518,60.602 L437.005,60.602 C437.525,64.041 439.964,65.961 443.082,65.961 C445.441,65.961 447.120,65.081 448.800,63.441 L451.639,65.961 C449.639,68.360 446.881,69.920 443.002,69.920 C436.885,69.920 432.167,65.481 432.167,58.961 L432.167,58.881 C432.167,52.841 436.445,47.882 442.483,47.882 ZM447.800,57.401 C447.481,54.282 445.641,51.841 442.443,51.841 C439.484,51.841 437.405,54.122 436.965,57.401 L447.800,57.401 Z"/>
</svg>