<svg xmlns="http://www.w3.org/2000/svg" viewBox="0 0 659.9 132.6"><path d="M35.7 29.9c-.4.3.5.8.4.7 0 1.3-.2 2.6.3 3.3.3.4 1.2.7 1.3.3.1-.4.8-1.2 1-1.3.3-.2 0-.5-.2-.2-.5.5-.7.3-1.1-.1-.2-.2-.2-2-.1-2.1 0 0 .9-.1 1.1-.1s.1-.5 0-.5c-.3 0-1 0-1.1-.1-.1-.3.2-1.5.2-2 0-.4-.2-.5-.3-.1-.2.3-1 1.9-1.5 2.2m2.3-4.6c.5 0 1.3.3 2.2.2 1.1-.1 1.9-1.8 1.5-3.1-.4-1.2-1.8-1-2.8-1.3-.9-.2-1.2-.8-.3-1.4 1.1-.7 2.5.4 2.6.7.2.4.4.4.4-.1 0-1-.1-.4-.2-1.4 0-.3-.3-.4-.3 0 0 .3-.4.2-.7.2-.3 0-1.2-.1-2 .3-.5.3-1.7 1.2-1 2.3.4.6 2.6 1.1 3.1 1.5.6.4.7 1.3.1 1.7-.7.5-2.5.1-2.7-.2-.4-.4-.5-.7-.6-1.2s-.5-.4-.5 0 .1 1.9.2 2.3c.1.4.4.2.5 0 .1-.4.3-.5.5-.5m2.6 1.4c-.2.4-.5.8-1.1 1 .4.3.8.7 1.1.9.4-.4.7-.8 1.1-1.1-.4-.1-.9-.3-1.1-.8m-5.6-.6c.4-.3.6-.8.8-.9.3-.2 0-.5-.2-.3s-.7-.2-.7-.3c-.2-.2-.4-2.7-.3-2.8 0 0 1.6-.2 1.8-.2.2 0 .2-.5 0-.5-.3 0-1.5.2-1.5 0-.1-.3-.2-1.2.2-1.9.2-.3 0-.7-.1-.3s-1.2 1.9-1.8 2.2c-.5.2-.5.3-.1.4.3.1.6.4.5.4-.1 1.3-.2 2.9.2 3.6.2.5.9.9 1.2.6m-4.4 2.7c-.4.4-.7.7-1.3 1.2.3.3.7.7.8 1.3V35h1.1c-.1-.4 0-3.7 0-4.2.3-.3.3-.3.6-.5.2.2.8.3.8.7s.1 1.9 0 2.5c-.2.7-.1 1.2.3 1.9.3-.3 1.4-1.1 1.6-1.3s.1-.4-.2-.3c-.3.1-.4.1-.4-.1 0-.4-.2-2.1-.2-3.2s-.6-1.4-.9-1.6c-.3.4-1 .8-1.4 1.2-.3-.2-.5-.7-.8-1.3m-4.3.8c.2.5.8 1.4 1.1 1.6-.5.5-1.6 1.2-1.9 1.5-.7-.8-1-2 .8-3.1m-2 2.2c-.3 2.1 1.7 3.3 2.6 3.7.2-.5.7-1.2 1.2-1.8.4-.4 0-.5-.4-.2-.4.5-1.7 0-2.1-.6.6-.5 2.3-1.8 3-2.4-.5-.4-1.2-1.5-1.3-2.2-.6.5-2.7 1.4-3 3.5m-.5-10c-.8 1.2-1.2 3 .1 4 .6.5 1.1.9 2.4.7.2-.5.4-.7.8-1.2-.9.1-1.5 0-2.2-.5-1.3-1-.9-2.6-.5-3.2.7-1 1.7.4 1.9.6.2-.3.6-.7 1-1-.4-.5-.7-1-1-1.3-.8.4-2 1.2-2.5 1.9m6-3c-.1-.1-.3-.3-.3-.6V16c0-.2-.4-.2-.4 0 0 .3 0 .9-.3 1.3-.8 1.2-2.3 1.7-3.3.2-.4-.5-.4-1.2-.5-1.8-.1-.7.5-1.6.5-1.7 1.3-1.7 3.2-.4 3.3.3.1.5.2 1.1.2 1.4 0 .2.4.2.4 0v-3.1c0-.2-.4-.2-.4 0 0 .4-.3.5-.6.4-.7-.2-2.2-.5-3 0s-1.9 1.5-1.9 2.8c0 2.2.8 2.4 1.8 2.9.9.5 2.1.2 3.3-.1.4-.1.5.2.7.5.5.4.8.1.5-.3m.6 6.2v.4c-.2 0-.3.1-.6.2-.3-.3-1.7-.7-.8-1.5.6.3.8.1 1.3-.3.1.6.1 1.1.1 1.2m0-1.5c-.8.5-1.1.5-1.6-.1-.3-.3-.3-.9-.1-1.2.3-.4.7-.8.9-.8.2 0 .8.8.8 1.2v.9m0-3c-.7.1-1.8.9-2.1 1.7-.1.3.1 1.4.2 1.5s.2.1.3.2c-.5.4-.9.8-.9 1.5 0 .6.5 1.2 1.2 1.5.4-.5.9-.9 1.5-1 0 .5.2.9.5 1.1.2-.3 1.2-1.1 1.4-1.3.2-.2.1-.4-.2-.2-.1.1-.5-.1-.6-.2 0-.3 0-3.2.1-3.4-.5-.4-.9-1.4-1.4-1.4m5.3-7.2c.3-.3 0-.5-.3-.2-.2-.2-.7-.7-.9-1-.3.2-.9.6-1.3.8-.3-.3-.6-.3-1.2-.8-.3.2-1 .7-1.4 1.2.6.2 1.1.2 1.2.8v3.8c.3.1.8 0 1.3 0v-4.3c.2-.1.4-.2.5-.3.2.2.6.7.9.9.3-.2.9-.6 1.2-.9m2 1.3c-.4-1.4-.3-1.8.6-2.5.2.5.7.8 1 1-.6.4-1.3 1.2-1.6 1.5m2.7 1.7c-1.7.4-2.5-.9-2.7-1.3.7-.7 1.8-1.8 2.6-2.4-.5-.4-.7-1.1-1.5-1.2-.7 0-2.4.8-2.7 3-.3 2.1 1.7 3.2 3.2 3.2.5 0 1.2-.7 1.5-.8.7-.4.4-.7-.4-.5m4.8-2.6c-.1.1-.4.3-.7.6-.2 0-.4.1-.6 0-.6-.1-.9-.5-1.1-.9-.3-.4.4-.7.8-.6.4.1 1.1.5 1.6.9M44 15.4c.4.2.8.3 1.2.6.6.3.3 1-.4 1.3-.7.3-1.9-.6-2.1-.9.3-.2.8-.6 1.3-1m2.9-2.4c-.5-.3-1-1.1-2.1-1.2-1.1 0-2.4 1-2.8 1.6-.6.9.1 1.6.8 2.2-.5.4-1.1 1-1.7 1.6.2.3 1.5.9 2.3.9 1.1 0 2.1-.6 2.8-1.1 1.2-.9.8-1.9-.4-2.6-.1-.1-.2-.1-.3-.1.6-.6 1.2-1.1 1.4-1.3m1.4 6.6l-.7-.7-.7.6v.9l.4.4h.4l.5-.5.1-.7zm-.3-4.9c-.3 0-.7.7.9.7.3 0 .5-.6-.9-.7m0 1c-.3 0-.7.5.9.7.2 0 .6-.6-.9-.7m1 10.8l.6-.6c-.7-.1-.7-.1-1-.4v-3.1l-.6-.9h-.3l-1.3 1.2c-.4.3 0 .5.4.1l.7.4v2.9c.1.3.4.5.8.9l.7-.5zM44.9 32c.5.3.8.3 1.4.2 0 .3-.1.7-.1.8 0 .2.1.3.1.4-.3.1-.7.2-1.1.3-.2-.2-1.2-.9-.3-1.7m1.5-.1c-.5 0-1-.2-1.6-.7-.1-.1-.2-.8-.1-1 .3-.4.3-.5.5-.5s1.3.7 1.2 1v1.2m-1.9-.2c-.5.5-.8 1-.8 1.7s.2 1.3.9 1.6c.6-.4 1.4-1 2.1-1.1.4.4.9.7 1.2 1 .2-.3 1-.9 1.2-1.1.2-.2 0-.5-.2-.2-.2.2-.7.1-.8-.2 0-.3-.3-3.2-.1-3.4-.4-.5-1.2-1.6-1.7-1.5-.7.1-1.8 1.1-2 1.4-.3.3-.1 1.6.2 1.8-.1-.1-.1-.1 0 0m-2-7.1c.5 1.3 1.5 1.7 2.3 1.7.2-.4.7-1.1.9-1.4.4-.5 0-.8-.3-.2-.2.4-1.2 0-1.6-.4-.5-.5-.8-1.7-.4-2.1.4-.4 1-.2 1.7-.3.5 0 .6-.5.7-.7-.2-.1-.6-.3-1.1-.6-.5.3-1.2.9-1.5 1.2-.3.4-1.1 1.6-.7 2.8m-.3 9.3l.6-.6c-.7-.1-.3-.1-.7-.4v-2.7l-.9-1.2h-.3l-1.3 1.2c-.4.3 0 .5.4.1l.9.5v2.8c.1.3.4.4.8.9l.5-.6zm11.2 15.4s.5-.6.5-1c0-.6-.5-1-.5-1 .5.1 1.5.7 1.9 1l-1.9 1zm3.4-1.1c-1.2-.2-2.1-1.1-3.2-1.5-1.5-.6-3.1.6-3.1.8 0 .4.4.6 1.7-.2-1 1.1.1 2 .1 2-.4-.1-1-.2-1.3-.4-.1.4.5.5.7.7 2 .9 3.3-1 5.1-1.4m13.7-18.6c-.3.3-.9.7-1.4 1.2.4 0 .8.1 1 .5s0 2.1.1 2.7c0 .6.4.8.9 1.3.5-.1 1.9-.7 2.4-1 0 .5.6 1.1 1 1.2.3-.3.5-.4.9-.8-.4-.2-.3-.3-.5-.8-.1-.5 0-2.3 0-3.1-.3-.4-.8-1-1.3-1.4-.4.3-.8.7-1.4 1.3.4-.1 1.2.1 1.3.5 0 .4.1 1.4 0 2.2s-2.2.4-2.2-.1.1-2.1.1-2.8c-.2-.2-.4-.5-.9-.9m1-5.9c.2-.8.7-1.1.9-1.3.3.4.7.8 1.2.8s1-.2 1.2-.4c-.4-.3-1.4-1.4-1.6-1.5-.5.3-2.6 1.4-2.8 2.6-.3 1.9.3 2.2 1.2 3.3.5.6 1.2.6 1.6.5.4-.3 1.8-1.6 1.9-1.7.1-.2-.1-.3-.2-.1-.2.2-.1.2-.3.3-.2 0-1.2.2-1.7-.1-.7-.5-1.6-1.4-1.4-2.4m-5.9-.2c.1 1.3-.6 2.6-1.3 3.2 1.2-.3 1.4-1.1 2.1-1.9.4.6 1.1 1.2 1.6 1.5.4-.2 1.4-1.4 1.6-1.6-.7-.2-2.1-.9-2.5-1.7-.3-.6-.2-.9.1-1.3.2.3 2 1.1 2.7-.2-.8-.3-1.6-.9-1.8-1.3-.2.2-1 1-1.4 1.3-.1-.5-.8-.9-1.3-1-.2.2-1.5 1.2-2.1 1.5-.2.1-.1.5.1.4s.7-.4 1.1-.6c.5 0 1.1.5 1.1 1.7m-.2 6c-.5.3.7.7.6.7 0 1.3-.3 3.5.2 4.2.3.4.9.7 1.4.5.4-.2.9-1 1.1-1.1.3-.2 0-.5-.2-.2-.3.2-.9.1-1-.2-.1-.2-.2-3.2 0-3.2h1c.2 0 .2-.5 0-.5-.3 0-1-.1-1-.2-.1-.3 0-1.2.2-1.5.2-.4-.2-.5-.3-.2-.3.4-1.1 1.3-2 1.7m-4.8.9c.3-.4.5-.5.7-.5s1 .6 1 .9V32c-.6.1-1 .1-1.7-.4-.1-.1-.1-1 0-1.2m.4 1.9c.4.2.7.1 1.3 0v1c-.3.2-.7.4-1.1.6-.3-.2-.8-.4-.2-1.6m-.6-.3c-.4.3-1 1.2-1 1.9s.3 1.3.7 1.7c.7-.5 1.1-1.1 2.2-1.5.1.5.5.6.9.9.3-.3 1.2-1.4 1.4-1.6.2-.2.1-.4-.2-.2-.3.2-.5.1-1-.5 0-.3 0-2.7.1-2.8-.5-.5-.9-1.2-1.4-1.1-.8.1-1.8 1.4-2 1.8-.2.3 0 1.2.2 1.3.1 0 .1 0 .1.1m-4.5-4.5c0 .6.3 6.1.2 6.9 0 .4.5.9 1.1 1.3.3-.3.8-1.1 1.3-1.5.3-.2.1-.4-.1-.3-.4.2-.8 0-.9-.4v-5.9c-.4-.1-1.3-.1-1.6-.1m-.4-4c0 2.2.9 2.4 1.9 3 1 .5 2.6.4 3.8.1.5-.1.7-.2.7.2 0 .2.4.2.4 0v-2.3c0-.2-.3-.2-.3 0 0 .3 0 .4-.3.9-.8 1.2-2.9 1.2-4.1-.3-.4-.5-.7-1.2-.3-1.3.4-.1 1.8.1 2.7.2.5 0 1.8.2 1.9.2.1.1.3.2.3 0v-1.4c0-.3-.2-.1-.4 0s-1.5.3-2 .4c-.5.1-2.2.2-2.6.1-.4-.1-.3-1 .1-1.5 1.1-1.5 3.4-1.4 4.3-.1.3.4.3.5.3.9 0 .2.3.2.3 0v-2.7c0-.2-.3-.2-.3 0s-.4.3-.7.2c-.7-.2-2.8.1-3.7.6-.7.3-2 1.4-2 2.8m8.9-13.1c-.4-.1-1.8.1-2.3.1-.5.1-.5.3-.1.4.4 0 .5.1.7.7.2.6-.8 3.1-1.1 3.7-.3-.4-1.4-2.8-1.4-3.1 0-.2.5-.5.7-.5.4-.1.4-.4.1-.5-.8-.1-3.8-.4-4.3-.4-.4 0-.5.4-.1.4.5 0 1-.1 1.5.6.6.9 2.5 4.9 2.9 6.6.2-.4 2.1-5.8 2.2-6.3.1-.6.5-1.1 1.1-1.3.5-.1.5-.3.1-.4m2.5 1l.6-.5v-.8l-.7-.7-.7.6v.9l.5.5h.3zm.8 7l1-1.3c-.7-.1-1-.3-1.5-.8v-3.2l-1-1h-.3l-1.6 1.4c-.2.2.3.2.5 0l1.1.7v3.1c.1.4.4.7.8 1.2l1-.1zm6.6-5.4c-.3 0-2.3 0-2.4-.1-.1-.4-.2-1 .2-1.7.2-.4-.2-.5-.3-.2-.1.4-1.1 1.8-2.2 2.2-.5.2.7.7.6.7 0 1.3.2 3.4.5 4.2.2.5.7 1.3 1.1 1 .2-.2.8-1.2.9-1.3.3-.2 0-.6-.2-.4-.3.2-.5-.1-.6-.4-.1-.2-.3-3.2-.2-3.2 0 0 2.4-.3 2.6-.3.1 0 .1-.5 0-.5m3.6 5.7c-.3 0-.6.1-1 .3-.3-.3-1.2-1.4-.6-2.6-.1-.1-.2-.1-.3-.2.6.3 1.3.6 1.9.8v1.7m0-1.9c-.6-.2-1.9-.8-2.3-1.2-.1-.1-.1-.1 0-.4.3-.4.6-.8.8-.8.2 0 1.5.7 1.4 1 .1.4.1.9.1 1.4m.8 3.2l1.3-1.4s-.6-.4-.9-.9c0-.3 0-3.1.1-3.2-1-.9-1.7-1-2.1-.9-.8.1-1.6 1.1-1.8 1.4-.2.3-.1.6 0 .7.2.1.4.3.6.4 0 0-.1 0-.1-.1-.4.3-.9 1.3-.9 2s.6 1.6 1 2c.5-.3 1.1-.9 2.1-1.1.1.6.3.9.7 1.1m0 7.4c-.3-.2-1.5-1.1-1.8-1.8-.4-1-.4-2 .7-2.6.8.3 1.7 1.1 1.8 1.8.1.9-.2 2-.7 2.6m1.1-.4c.3-.6.9-1.6.8-2.4 0-1-.6-2.4-2-2.8-1.8.6-2.9 2-2.9 3.7 0 1 .8 3 2.5 3 .5-.6 1.1-1.1 1.6-1.5m1.7 4.9c-.2-.2-.8-.7-1.3-1.1-.3.2-.9.7-1.3.9-.3-.3-.7-.8-1.2-1.2-.3.2-1.3 1.2-1.8 1.4.6 0 1.5.2 1.6.8v3.9c.4.1.8 0 1.4 0v-4.1c.2-.1.4-.2.5-.3.2.2.8.9 1.2 1.1.3-.2.9-.8 1.2-1 .3-.5 0-.7-.3-.4m0-6.1c.2.1.6.1 1.1.2.3 0 .2-.4 0-.5s-.7-.2-1-.2-.5.4-.1.5m1.1-1.3c-.2-.1-.7-.2-1-.2s-.4.4-.1.5c.2.1.7.1 1.1.2.3 0 .2-.4 0-.5m7.2 70.3c-.6 2.8-1.5 5.3-3.2 7.7-1.2 1.7-1.6-1.6-.6-4.8 1.4-.5 2.8-1.6 3.8-2.9m-1.6.6c-3.7 3.7-9.3 2.3-13.7 4.3-4 1.5-6.9 5.1-11.1 6.1-1.2.4-1.4 1-.6 1 .5 0 3 2.7 7.1.6 1.4-.7 5.6-3 6.3-3.2-2.3 2.2-3.4 4.1-5.5 5.3-1.3.7-6.4 2.5-11.5 1.5-2.3-.4-4 1.6-3.4 1.6 1.2-.3 2.6-.2 3.4.9 1.5 1.2 3.6 2.6 5.5.4.6-.7 3.5-2.2 6.3.6-2.9-.2-2.6 5.1-8.2 4.5-2.1 0-6.6-4.7-7.9-3.3-2.3 2.6 4.9 5 1.8 8.2-2.8 2.9-6.2-2.3-6.2-2.3 1.8.7 5 1.2 3.6-1.6-.6-1.1-1.6-2.2-1.6-4.3-.2-1-6.7 8.3-11 4.1-1.7-1.7-5.1-5.3-8.2-6.7 8.1-.7 9.4 2.6 9.8 3.1 2.6 3.5 5-.1 5.6-.7.8-1 2-2.3 1.6-2.5-3.2-1.5-6.8-1.8-9.5-.6 5.8-7.9 10.3-.5 10.3-.5.6.4-.2-4.7-5.9-5-3.6-.2-6.7 3-9.2 3-2 0-8.1-4.1-9.5-7.7 3.5 2.6 8 4.2 10.8 2.5 5.3-3.1 11.9 1.6 12.2 1-1.5-1.2-4.8-5.6-13.9-3.1-3.5 2-5-1.5-7.2-1.6 3.7-3.3 6.2-1.6 7.5-1.5.3 0-1.5-1.5-2.8-1.6-10-1-16.3-3.8-16.3-3.8-.1 0 .8-2 5.1-.6 0 0-3.9-2.4-3.8-5.4.1-1.9 1-3.9-.4-5.4 5.8-.2 1.7 7.9 5.8 9.9.1 0-1.2-1.9.6-3.5.8 2.4 2.9 3.6 4.4 4 .3-.2.8-.9.8-.9-1.5-2.5-1.7-5.5-1.3-8.9h.1c.3 0 .9 1.2 1.3 2 .8 1.8.8 4.4 2.5 6.6.9 1.2 1.5 2.4 2.4 3 .4-.8.1-2.3 0-2.7-.2-1.4-1.1-3.8 1.3-5.9 1.1 3.2 2.6 2.3 2.8 3.8.3 2.1.2 1.8 0 3.4.1 2.3 2.2 2.9 4 4.3 4.1 2.2 6.8 3.4 8.6 6.3.9-4.8-12.2-5.8-10.5-15.1-.2-3.7.5-4-2.2-6.3 5.2.2 8.1 8.7 8.4 10.3.5 2.9 2.3 3 4.7 6.8.3.1-4.3-10 1.2-18.7 0 0 1.9 4.5 1 7.5-.5 1.8 0 3.7.1 4.9.1 1.1-.2-4.1 3.7-6.8.2 2 2.1 5.1.3 8.4-2.2 4-2.4 2.6-2.4 7.5.2-.1.8-3.4 2.3-5.3 3.2-4 .9-6.1 4-9.6.2 1.7.7 1 .9 2.6.4 3.4-3.2 7.2-2.4 7.1.9-.1 2.4-.9 2.9-3.5 0 0 1.3 2.4.1 3.2-2.2 1.4-2.6 3-2.3 4.7 1.8-2.1 4.2-4.4 3.7-7.4.2-1.8 2.2-2.5 2.5-6.7.1-.7.8-1.5 1.5-1.9-.3 2.4 1.5 4.8-.6 7.7.5.3 2.2-2.2 4.8-1.3-5.2.9-3.7 6.5-7.6 9.1-1.2.8-1 1.7-1.3 1.8 3.5-.2 6.3-4.4 6.7-4.7 3.6-2.4 4.3-2.8 5.7-6.7.6-1.5.2-2.1 2.1-4.1.9 2-.4 6-.7 6.9-.6 1.9-2.9 3.5-2.4 3.5 9.5-4.2 9.4-7 11.7-10 .7-1.1 4.1-3.1 5.3-3.3-.3.6-1.6 1.7-1.7 2.8-.1 2.1-.8 3.4-1.9 5.1.6.7 1.7-1.4 2.9-.3-1.4.4-2.1 2.1-3.3 3.1m-8.7-3c.3-1 .3-1.7.4-2.5.1-.4.1-.3.1-.6 0-.1 2.7 2.2 2.8 2.3-.7.8-1.2 1.1-1.9 1.7-.4-.4-1.4-.8-1.4-.9m.8 1.4c-1.2 1.1-2.1 1.5-1.8.9.3-.6.5-1.1.7-1.6.1 0 1.1.7 1.1.7m12.2-10.5c-1.1.3-4.1 1.5-4.8 2.7.4-6.5-1.7-12.8-2.4-14.4-1.3-3 .6 7 .7 9.2 0 .1-10.7-13.8-4.3-3.1 1.7 2.8 4.3 4.6 4.3 4.6 0 1.9-.1 3.4-.5 4.4-.7.5-14.6-18.6-6.9-5.3 1 1.6 6.6 6.6 6.5 6.7-.4.8-1 1.9-1.9 2.7-.1-.1-3.2-2.4-3.2-2.6-.2-1.5-.2-2.9-2.1-1.8 0 0-6.9-8-3.7-2.4 1.4 2.5 2.3 2.7 2.7 3.2 0 0-1.1 1.4-1.4 3-.1.6-6-6.5-3.7-2 .7 1.4 3.4 3 3.4 3.1-.3.9-.5 1.8-.8 2.4-.4.7-5.5 4.8-5.5 4.8s1-3.2 3.2-4.8c1.2-.9 1.2-.7 2.1-1.2 0-.5-.5-1.3-1.1-1.5-.7-.3-3.2.2-3.2.2.2-1.2-.8-3.8-.8-6.7-.9.1-2.5 1.5-2.9 2.3-.3 4.8-1.3 3.3-2.3 6.8-1.1-1.4.1-3.5-1-4.8-1.4-1.8-1.6-3.1-1.8-5.4.3-.2 1.8-1.8.5-5.1-.2-5.3 2.1-7.3-2.1-11 .4-.1.6-2.8.6-2.8 3.1 1.7 2.5-1.9 3.7-2.6 1.9-1.1 1.6-2.3.7-3.7 5.5 1.6-.2 5.3 2.2 5.4 1.8.1 3-.4 3.8-1.6.8-1.3-.1-2.1 2.2-4.1.2-.2.9-1.6-1-2-.4-.1 0-1.7 0-1.7-1.5 1.3-1.9 3-4.3 1.9-1.2-.6-2 0-2.5.2 0 0-.3-1 .8-1.3 2.6-.9 3.2-1.9 3.1-2.5-.4-1.4-.5 0-.4-1.4 0-.6.7-1.3 1.2-2 1.8-2.1 3-1.3 3.5-1.1 1-.8 1.2-.7 2.2-1.1 1.6-.6 5.2.4 7.2 1.3 1 .4 2.1.7 3.2.4 0 .6-.4.9-.8 1-.6.2-1.4 0-1.3.5 0 .3.9.3 1.4.5 2.9.8 6.7 3.4 4.2 2.9-.3-.1 1.8 1.6 3.4 3.7l5.6 5.4c-.3.3-2.2 0-8.4-5.8-.9.8 7.6 7.1 11 13.9-.3.2-4.6-1.4-6.2-3-2.4-2.5-5.2-8.8-6.3-7.9-.1.1 4.6 7.4 6.9 11.8 1.2 2.2 2.1 5.4 2.2 7.7C97.8 91 96 90.1 96 90.1c-2.8-9.3-4-20-8.1-25-1.6-2.1 4.3 8.6 4.6 18.2m4.3-62.9c0-.2-.1-.5-.1-.8-.1-.6-1.8-1-3.1-.4-1.7.8-6 3.2-7.6 2.8v-6.1c3.9 1.7 5.4.2 6.6.2 3.8 0 4 3.6 4 3.6.2.2.2.5.2.7m-4 8.3c3.4-.5 3.9 3.5 3.9 3.5-.8-.7-2.5-1-3.6-.2-3.8 2.4-7.2 2.5-7.2 2.5v-6.1c0-.1.7 1.2 6.9.3m-8 12.3c-6.1.4-18.8-3.1-22-3.1-6.6 0-9.9 2.6-9.9 2.6V9.2S61.6 5.1 68 7.4C75.8 10.3 84.8 9 84.8 9v32zm-25.3 4.7c.2 1.2-.9 1.5-.9 1.5 1.7.4 2.6-.6 2.9-1.3.7 2.8-2.1 2.9-3 3.1 0 0 1.4.4 1.5 1.3.2 2.4 1.7 2.2 2 2-.1.3-.5 1.7-2.2.4-.3.3.5.7.6 1.9.2 1.5.1 2.8 1.9 3.8-1 .8-2.3-1.3-2.4-1.1-.1.3 1.5 1.1-.3 5.2-.8-.5-.3-.4-1.3-1.5-.7-.6-1-.7-.4.2 1 1.3 1.3 4.2.9 5-.8-.4-.6-1-1.6-2-.1.4.3 2.3 1.3 3.3 1.8 1.6 2.4 3.5 2.4 3.9.1 1.5-.3 3.4-.5 5.3-.9-.1-1.6-2.5-1.8-2.4-.3.2.1 2.4 1.7 3.9.8 2.3.5 3.5.3 3.6-.3.1-1.1-2.3-1.6-1.9 2.3 5.8.7 7.8.1 9.6-.5-1.8-.7-3.2-1.3-5.3-1.2 1-1.5 2.4-3.1 3.8 0-2.4-1.4-8.1-2.5-9.4 0-.1-2 5.1-2.8 7.4-1.1 3-1.3 6.7 0 9.7-2.8-4-3.1-11.5-.7-12.5.2-.5-.1-2.3-.7-2.1-.2.9-.1 1.6-.8 2.4-1.9-.5-1-2.8-.8-3.6 2.4-2.9.9-3.6.8-3.5-.3.7-.5 1.5-1.2 1.8-1.6-2.7-.6-6.9 2.4-10 .1-1.2-1.3.9-2.3.8-.2-2.3.6-6.2 4.7-6.3-.8-.2-1.2-.4-1.4-1 1.3-.2 5.2-.5 4.6-3.6-.4.4-.5.9-1.5 1.6-.7.4-1.4.5-1.8-.2 1.8-.6 1.2-2.8-1.2-2.2-.7.2-1.8-.6-1.9-1.4.5.5 1.6.1 2.2-.3 2.7-1.8 4.3.8 4.7 1.3.1 0 1.2-2.5-2.6-3.2-.3-.9-1.2-2.5-3.8-2.3-.9-3-3.4-1.5-3.4-.2-2.8-2 0-4.6 1.2-5 .8.1.6 2.5 2 2.1.3-.1-1.1-1.7-.5-2.4 1.2-.7 1.2.9 1.8.3.3-1.1 1.5-1.7 2.5-1.8 2.9-.2 5.1 2.8 7.8 1.3m-8-5.2s-4.1-2.2-9-2.6c-4.7-.3-14.2 3.4-21.5 2.9v-32s8.3 1.1 11.7-.2c11.6-4.5 18.8.5 18.8.5v31.4zm-32-6.7h-4v-3.9h4v3.9zm0-13.5h-4v-3.9h4v3.9zm-8.6 14.6c-4.6 0-4.6-6.8 0-6.8 4.4 0 4.5 6.8 0 6.8m0-13.5c-4.5 0-4.4-6.8 0-6.8 4.4-.1 4.4 6.8 0 6.8m29.9 31.7c-.8-1.4 1-2.8 1-2.8-.1 4 5 1.2 7.7 2.5.6.3 1.1.9 1.3 1.4-2.8-1.8-8.1 2.2-10-1.1M27 86.8c0 1.4-.1 2.4.3 3.8.6 2.1.3 1.4-.6.7-.7-.8-1.4-1.4-1.7-2.3 0-.6.5-.7 2-2.2M16.8 58.7c-.2-.1-6.7 4-10.9 2.1C9.1 59.1 20 52.1 23 50.1c1.4.3 2-.2 2.4-.5-1.1.1-4.9.7-3-2.7.7 3 6 .2 7.9-.2 5.3-1.2 5.3 4.5 4.8 6.8-.2.9 1.6 1.5 2.5 1.4-1.5 3.8-4.1.2-4.4 1.6-.1.6-1.9 1-1.9 2.5 0 2 .8.9.9 2.4s-.6.3-.5 1.9c.3 2.5 4.5-.3 6.2.3.9.3 1.4 1.1 2.3 1 .2-.2.1-1.2.1-1.5-.1-.8-1.6-.9-2.3-2-.6-1 .7-3.8 1.4-4.7 1 4.8 5.5 3.3 6.1 8.3.4 1.4-1.5 3 .1 5.3-1.2 1.1-2.6 6.6-.1 9.1-.4 1.2-1 3.8 1.2 5.4-.7 1.6-.6 3.5.1 5.5-1.4 0-1.1-7.7-9.3-7.9-.2-.1-.2.9 0 1.3 1 1.7 2.3 1.6 2 5.7-.1 1.4-.9-.2-1.3-.6-1-.9-1.8-1-2.2-3.8-3.3 2.6-3 5.8-2.8 7.4 0 0-.7-2-1.6-4.1 0-.1 3.4-4.2 3.9-5.2 6.9-12.4-4.5 4-4.5 4-.6-1.4-1.1-2.6-1.5-3 .1-.2 2-2.3 2.8-4.1 5.3-11.1-3.2 3.7-3.5 3.4-.6-.6-1.2-1.3-1.6-1-.1 1.7-.5 1.5-.4 3.2-.9 1.2-2.8 3.1-4.1 4 0 0-.3-3.1-.2-3.2.7-.8 3.3-3.6 3.8-4.5 8.8-13.8-4.1 3.3-4.1 3.2-.1-.5-.8-1.4-1.5-2.2 0 0 2.8-3.9 3.5-5.3 5.3-11-4.3 4.9-4.4 4.8-.2-.1-.3-.1-.5-.2-.3-.1.3-3.2.7-5 .7-3.7-1.2-.7-1.7 5.1-.5.1-1.7.2-2.1.6.3 1.5.7.4 1.3 1.8.8 1.8-1.1 4.7.5 6.8.6.8.7.7.5 1.2-1-.1-1.6-.1-2.2.8-1.2-5.5-1.2-8.2-.9-13.8.1-2.6 1-6.4.6-6.5S9.8 87.8 8.4 90.7c-2.4-.8 1.5-13.8 6.6-20 .5-2-2.6 2-4.5 3.6-1.7 1.5-3.9 3.4-6.2 2.7 3-3.2 10-9.2 10.7-10.7.6-1.3-4.7 4-10.4 2 3.6-2.1 12.2-6.5 12.2-9.6m-.1 36.4c1 .6 2.1.9 3.1 1.4 1.3 3.3 0 6.6-.7 5.2-1.2-2.4-1.7-4.3-2.4-6.6m87.7-18.5V2.5C44.9-3.2 0 2.5 0 2.5v74.1c4.7 50.2 51.8 56.1 52.2 56 8.4-1.4 47.8-9.4 52.2-56m27.7 18c0 13.7 6.6 23.4 15.1 29.2 7.8 5.2 16.9 7.1 26.5 7.1 6.8 0 14.5-1.6 16.8-2.4 1.2-.4 2.4-.8 3.7-1.1 1.6-2 4.4-9 5.1-14.6-.4-.7-2-1-2.8-.4-2.4 6.3-8.5 15.2-22.2 15.2-17.4 0-31.6-12.3-31.6-34.7 0-22 13.8-32.3 30.1-32.3 15.4 0 20.2 8.3 21.8 15.5.7.6 2.3.5 2.9-.2-.9-6.5-1.4-13.2-1.5-15.6-1 .1-1.7-.1-3-.4-5-1.4-13.1-2.6-18.8-2.6-11.1 0-21 3-28.7 9-8.1 6.4-13.4 16.5-13.4 28.3m30.1-92.1v-.1l-.1-.1c-.2-.3-.7-.4-.8-.4s-.3 0-.4.1h-.1l-.1.1c-.6 1-.8 1.1-3.2 1.1h-18.3c-2 0-2.9-.1-3.1-1.1V2l-.1-.1c-.1-.1-.3-.2-.6-.2-.1 0-.5 0-.7.1l-.1.1V2c-.3 1.8-1 4.6-1.7 6.5v.1l.1.1c.3.5 1.2.8 1.7.4l.1-.1v-.1c.5-1 .9-2 1.9-2.9s3.2-1 5.2-1h2.4c1 0 1 0 1 1.1v19.8c0 4.8-.3 5-2.4 5.2l-1.6.1h-.2c-.3.2-.4.5-.4.9 0 .3.1.7.4.8h.2c2.7-.1 4.4-.1 6.1-.1 1.7 0 3.2 0 5.8.1h.2c.3-.1.4-.5.4-.9s-.1-.7-.3-.8l-1.6-.2c-2.2-.2-2.3-.5-2.3-5.2V5.9c0-.5 0-.9.1-1s.6-.1.9-.1h3.1c2.4 0 4 .3 4.9 1 .4.3.8 1.4 1 3v.1l.1.1c.2.2.5.3.8.3.4 0 .8-.2.9-.5v-.2c.1-.8.4-4.4.8-6.1m36.5 23.6v-16c0-4.7.1-5 2.4-5.2l.9-.1.2-.1c.2-.1.3-.5.3-.8 0-.2-.1-.7-.4-.9h-.2c-2.1.1-3.6.1-5.2.1-1.9 0-3.5-.1-5.3-.1h-.2c-.4.2-.4.7-.4.9 0 .4.1.7.3.8l1 .1c2.3.2 2.4.5 2.4 5.2v5.1c0 1.1 0 1.1-1.9 1.1h-12.7c-1.9 0-1.9 0-1.9-1.1V10c0-4.7.1-5 2.4-5.2l.8-.1.2-.1c.2-.1.3-.5.3-.8 0-.2-.1-.7-.4-.9h-.2c-2 .1-3.5.1-5.1.1-1.2 0-2.2 0-3.3-.1-.7 0-1.5 0-2.3-.1h-.2c-.4.2-.4.7-.4.9 0 .4.1.7.3.8l.1.1 1.2.1c2 .1 2.3.6 2.3 5.2v16c0 4.6-.1 4.8-2.3 5.2l-.9.1-.1.1c-.3.3-.3.7-.2 1s.2.6.4.7h.2c.6 0 1.2 0 1.8-.1 1 0 2.1-.1 3.4-.1 1.7 0 3.1 0 5.6.1h.2c.3-.1.4-.5.4-.9s-.1-.7-.3-.8l-1.4-.2c-2.1-.2-2.4-.4-2.4-5.2v-6.2c0-1.1 0-1.1 1.9-1.1h12.7c1.9 0 1.9 0 1.9 1.1v6.2c0 4.7 0 4.8-2.4 5.2l-1 .1-.1.1c-.3.3-.3.7-.2 1s.2.6.4.7h.2c2.1-.1 3.7-.1 5.3-.1 1.7 0 3.3 0 5.3.1h.2c.4-.2.4-.7.4-.9 0-.4-.1-.7-.3-.8l-1.2-.2c-2.4 0-2.5-.2-2.5-4.9m37 .7v-.2c-.2-.4-.7-.6-1-.6-.2 0-.4.1-.6.2l-.1.1c-1.3 2.5-2.4 3.8-3 4.1-1 .5-2.3.6-5.5.6-3.7 0-4.6-.4-5.1-.9-.6-.7-.8-2.1-.8-4.4v-6.2c0-.9 0-.9 1.1-.9h2.6c1.5 0 2.7 0 3.3.2.6.2.9.6 1.1 1.4l.4 1.7.1.1c.2.2.5.3.8.3.4 0 .7-.2.9-.4v-.2c0-.4 0-1-.1-1.6 0-.8-.1-1.7-.1-2.6 0-.9.1-1.9.1-2.7 0-.7.1-1.3.1-1.8v-.2c-.1-.3-.5-.4-.9-.4s-.7.1-.8.3l-.4 2c-.2 1-.4 1.2-.8 1.3-.5.2-1.8.2-3.7.2h-2.6c-1.1 0-1.1 0-1.1-.9V6.4c0-1.4 0-1.4 1-1.4h3.2c1.9 0 3.3 0 4.2.3 2 .5 2.4 1.8 3 3.7l.1.3.1.1c.2.2.4.3.7.3.3 0 .7-.1.9-.4l.1-.1-.1-.7c-.2-2.6-.4-4.8-.7-5.4l-.1-.3-.3.1c-.5.1-3.2.1-5.9.1h-8.3c-1.7 0-3.2 0-5.2-.1h-.2c-.4.2-.4.7-.4.9 0 .4.1.7.3.8l.9.1c2.3.3 2.4.6 2.4 5.2v16c0 4.8-.3 5-2.4 5.2l-1.6.1-.1.1c-.3.3-.3.7-.2 1 .1.3.2.6.4.7h.2c2.6-.1 4.1-.1 6-.1h4c3.9 0 7.7 0 11.9.1h.2l.1-.2c.5-1 1.6-4.5 1.9-6m4.3 34.6c.6-.4.4-2.3-.2-2.7-4.6.2-8.2.3-12.3.3-4.6 0-8.2-.2-13.4-.3-.6.3-.9 2.2-.2 2.7l2.8.2c5.5.4 6.3 2.2 6.3 13.4v38.3c0 11.2-.2 12.2-6.2 13.3l-1.8.3c-.6.6-.4 2.3.2 2.7 4.1-.1 7.8-.3 12.3-.3 4.1 0 7.8.1 13.5.3.6-.3.9-2.2.2-2.7l-3.1-.3c-6-.6-6.5-2.1-6.5-13.3v-15c0-3.2.2-3.4 5.3-3.4h30.4c5.1 0 5.3.2 5.3 3.4v15c0 11.2 0 12.2-6.5 13.3l-2 .3c-.6.6-.4 2.3.2 2.7 4.7-.2 8.5-.3 12.9-.3 4.1 0 7.8.1 12.9.3.6-.3.8-2.2.2-2.7l-2.6-.3c-6.2-.7-6.4-2.1-6.4-13.3V75c0-11.2.2-12.8 6.4-13.4l2.2-.2c.6-.4.4-2.3-.2-2.7-4.8.2-8.4.3-12.5.3-4.4 0-8-.1-12.9-.3-.6.3-.8 2.2-.2 2.7l2 .2c6.3.6 6.5 2.2 6.5 13.4v12.2c0 3.3-.2 3.4-5.3 3.4h-30.4c-5.1 0-5.3-.1-5.3-3.4V75c0-11.2.2-12.8 6.4-13.4l2-.2zm50.9-56.8c.2-.2.3-.6.2-.9 0-.3-.2-.5-.4-.6l-.1-.1h-.1c-1.5.1-2.7.1-4.6.1-1.7 0-3.3 0-5-.1h-.1l-.1.1c-.2.1-.3.4-.4.7 0 .3 0 .7.2.9l.1.1 1.2.1c1 .1 1.7.4 1.9.8.5.9.8 4.1.8 9v5.1c0 5.2-1.5 11.4-8.5 11.4-5.9 0-8.7-3.7-8.7-11.5v-9.6c0-4.7.2-5.1 2.3-5.2l1.2-.1h.1c.2-.1.3-.4.3-.8 0-.3-.1-.7-.4-.8h-.2c-2.1.1-3.6.1-5.4.1s-3.4 0-5.5-.1h-.2c-.3.1-.4.5-.4.8 0 .4.1.7.3.8h.1l1.2.1c2.2.2 2.3.5 2.3 5.2v10.5c0 5.4 1.1 8.7 3.6 10.7 2 1.7 4.8 2.5 8.5 2.5 3.5 0 6.8-1.3 8.7-3.3 2.1-2.3 3.2-5.8 3.2-10.8v-5c0-2.2 0-7.5.6-8.9.2-.4 1-.8 1.9-.9l1.2-.1.2-.2zm39.8.1c.2-.2.3-.6.3-.9 0-.3-.2-.6-.4-.7l-.1-.1h-.1c-1.5.1-2.6.1-4.5.1-1.6 0-3 0-5.2-.1h-.2c-.3.1-.4.3-.5.7s0 .8.3 1l.1.1.9.1c1.5.2 2.3.4 2.5.7.5.8.8 4.1.8 9v10.8c-1.5-1.6-3.1-3.4-5.1-5.6l-6.2-6.9c-4.4-4.9-6.9-8.1-7.5-9.6l-.1-.3h-.3c-.5.1-1.3.1-2 .1-.8 0-3.1 0-5-.1h-.2c-.2.1-.4.4-.4.7-.1.4 0 .8.3 1l.1.1.9.1c1.2.1 2.1.5 2.5 1 .8.9.9 1.7.9 3v13.2c0 2.1 0 7.2-.5 8.6-.1.2-.5.5-1.7.7l-1.3.1-.1.1c-.2.2-.3.5-.3.8s.2.6.4.8l.1.1h.1c1.5-.1 2.7-.1 4.6-.1 1.5 0 3 0 5.2.1h.1l.1-.1c.2-.1.3-.4.4-.7 0-.3 0-.7-.2-.9l-.1-.1-1.5-.1c-1.1-.1-1.8-.3-2-.7-.5-.8-.8-4.1-.8-9V12c0-.8 0-1.6.1-2.2.7.8 1.9 2.2 2.9 3.4.7.9 1.4 1.6 1.8 2.1L320.1 27c3.4 3.9 5.1 5.8 5.6 6.7l.1.1h.2c.6 0 1-.3 1.2-.7v-.2c-.1-.5-.1-2.3-.1-7.7V14c0-2.3 0-7 .6-8.4.1-.1.6-.5 2.2-.7l.8-.2zm-5.5 108.4V75.2c0-11.3.2-13.1 6.5-13.6l2.7-.2c.6-.4.4-2.3-.2-2.7-5.3.2-8.9.3-13.2.3-4.5 0-8.1-.1-13.4-.3-.6.3-.9 2.2-.2 2.7l2.7.2c6.3.5 6.5 2.3 6.5 13.6v37.9c0 11.3-.2 12.8-6.5 13.5l-2.7.3c-.6.6-.4 2.3.2 2.7 5.3-.2 8.9-.3 13.4-.3 4.3 0 7.9.1 13.2.3.6-.3.9-2.2.2-2.7l-2.7-.3c-6.3-.8-6.5-2.2-6.5-13.5M347.4 26V10.2c0-4.8.2-5.1 2.4-5.3l1.2-.1.1-.1c.2-.1.3-.5.3-.8 0-.2-.1-.7-.4-.9h-.2c-2.1.1-3.7.1-5.5.1-1.9 0-3.4 0-5.6-.1h-.2c-.4.2-.4.7-.4.9 0 .4.1.7.3.8h.1l1.2.1c2.2.2 2.4.5 2.4 5.3v15.8c0 4.8-.1 5-2.4 5.3l-1.2.1-.1.1c-.3.3-.3.7-.2 1 .1.3.2.6.4.7h.2c2.3-.1 3.7-.1 5.6-.1 1.8 0 3.3 0 5.5.1h.2c.4-.2.4-.7.4-.9 0-.4-.1-.7-.3-.8l-1.3-.2c-2.4-.2-2.5-.4-2.5-5.2M361 66.4c-8.1 6.3-13.4 16.4-13.4 28.2 0 13.7 6.6 23.4 15.1 29.2 7.8 5.2 16.9 7.1 26.5 7.1 6.8 0 14.5-1.6 16.8-2.4 1.2-.4 2.4-.8 3.7-1.1 1.6-2 4.4-9 5.1-14.6-.4-.7-2-1-2.8-.4-2.4 6.3-8.5 15.2-22.2 15.2-17.4 0-31.6-12.3-31.6-34.7 0-22 13.8-32.3 30.1-32.3 15.4 0 20.2 8.3 21.8 15.5.7.6 2.3.5 2.9-.2-.8-6.5-1.4-13.2-1.5-15.6-1 .1-1.7-.1-3-.4-5-1.4-13.1-2.6-18.8-2.6-11 .1-20.9 3-28.7 9.1m29-61.7c.2-.2.3-.7.2-.9 0-.3-.2-.6-.4-.7l-.1-.1h-.1c-1.5.1-2.8.1-4.3.1-1.7 0-3.4 0-4.6-.1h-.1l-.1.1c-.2.1-.4.4-.4.8s.1.7.3.9l.1.1.9.1c1.5.2 1.7.5 1.7.5 0 .3 0 .7-.4 1.6-.8 1.9-2.9 7-4.1 9.9-.3.8-.7 1.7-1.2 2.8-.8 2-1.9 4.4-2.7 6.3-2.1-4.8-4-9.6-6-14.6-1.3-3.2-2-5.5-2.2-6.1.1-.1.5-.3 1.8-.5l.8-.1.1-.1c.2-.2.3-.5.3-.9s-.2-.6-.4-.8l-.1-.1h-.1c-2 .1-3.5.1-5.3.1s-3.3 0-4.6-.1h-.1l-.1.1c-.3.2-.4.5-.5.8 0 .3.1.7.3.9l.1.1.9.1c1.7.2 2.3 1 3.3 3.4l7.8 19.2c.9 2.3 1.6 4.3 2 5.9v.2l.2.1c.3.1.5.2.8.2s.5-.1.7-.2l.1-.1v-.1c.8-2.4 2.9-7.6 4.6-11.5l2.4-5.5c2.1-4.7 3.8-8.2 4.9-10.2.6-.9 1.2-1.3 2-1.4l1.6-.2zm30.4 22.1v-.2c-.2-.4-.7-.6-1-.6-.2 0-.4.1-.6.2l-.1.1c-1.3 2.5-2.4 3.8-3 4.1-1 .5-2.3.6-5.5.6-3.7 0-4.6-.4-5.1-.9-.6-.7-.8-2.1-.8-4.4v-6.2c0-.9 0-.9 1.1-.9h2.6c1.5 0 2.7 0 3.3.2.6.2.9.6 1.1 1.4l.4 1.7.1.1c.2.2.5.3.8.3.4 0 .7-.2.9-.4v-.2c0-.4 0-1-.1-1.6 0-.8-.1-1.7-.1-2.6 0-.9.1-1.9.1-2.7 0-.7.1-1.3.1-1.8v-.2c-.1-.3-.5-.4-.9-.4s-.7.1-.8.3l-.4 2c-.2 1-.4 1.2-.8 1.3-.5.2-1.8.2-3.7.2h-2.6c-1.1 0-1.1 0-1.1-.9V6.4c0-1.4 0-1.4 1-1.4h3.2c1.9 0 3.3 0 4.2.3 2 .5 2.4 1.8 3 3.7l.1.3.1.1c.2.2.4.3.7.3.3 0 .7-.1.9-.4l.1-.1-.1-.7c-.2-2.6-.4-4.8-.7-5.4l-.1-.3-.3.1c-.5.1-3.2.1-5.9.1h-8.3c-1.7 0-3.2 0-5.2-.1h-.2c-.4.2-.4.7-.4.9 0 .4.1.7.3.8l.9.1c2.3.3 2.4.6 2.4 5.2v16c0 4.8-.3 5-2.4 5.2l-1.6.1-.1.1c-.3.3-.3.7-.2 1 .1.3.2.6.4.7h.2c2.6-.1 4.1-.1 6-.1h4c3.9 0 7.8 0 11.9.1h.2l.1-.2c.4-1 1.5-4.5 1.9-6m22.9-10c-1.3 1-3 1.1-4.4 1.1-2 0-2.6-.1-2.8-.1-.1-.2-.1-.7-.1-1.2V6.2c0-1 0-1.1 2.5-1.1 5 0 6.7 3.5 6.7 6.5.1 2.4-.5 4.1-1.9 5.2m13.3 16.5c.2-.2.3-.4.3-.7 0-.2-.2-.4-.4-.5h-.1c-1.1-.1-2.1-.5-2.9-1.2-3.1-2.6-5.5-6.3-8.8-11.7-.2-.4-.3-.5-.3-.6 1.5-.6 5.6-2.8 5.6-7.7 0-3.7-2.1-5.6-3.9-6.5-2.2-1.2-5.1-1.4-7.6-1.4-4.1 0-7.2.1-9.9.4h-.1c-.3.1-.4.4-.5.8 0 .4.1.7.4.9l.1.1 1.5.2c1.4.2 1.7.5 1.7 4.8v15.9c0 4.7-.1 4.9-2.4 5.2l-1.2.1-.1.1c-.3.3-.3.7-.2 1 .1.3.2.5.4.6h.2c2-.1 3.6-.1 5.5-.1 1.8 0 3.4.1 5.3.1h.2c.3-.2.4-.6.4-.8 0-.4-.1-.7-.3-.9l-.1-.1-1-.1c-2.3-.3-2.4-.5-2.4-5.2v-5.6c0-.6 0-.6 1.7-.6s2.3.4 2.9 1.3c.7 1 1.5 2.2 2.2 3.4.8 1.3 1.5 2.4 2.1 3.3 3 4.3 5.3 5.7 9.5 5.7.9 0 1.6-.1 2.2-.2zm11.2-24.2c0-1.7.6-4.6 4.9-4.6 3.9 0 5.1 2.5 5.7 4.8l.1.1c.1.2.4.3.7.3s.8-.1 1-.4l.1-.1v-.1c0-1.8-.4-4.3-.8-5.5l-.1-.2h-.3c-.3 0-.9-.1-1.5-.3-1.1-.3-2.7-.6-4.2-.6-5.6 0-9.4 3.2-9.4 8 0 4 3.1 6.7 4.9 7.9l4.2 2.8c3.1 2 3.5 4 3.5 5.9 0 2.4-1.6 4.8-5.2 4.8-4.5 0-6.4-3.5-7.3-6.4v-.1c-.1-.2-.4-.3-.7-.3-.3 0-.7.1-.9.4l-.1.1v.1c.1 2 .7 5.3 1.2 6.4v.1h.1c.9.5 3.3 1.7 7.1 1.7 5.9 0 9.8-3.4 9.8-8.5 0-3.5-1.9-6.4-5.7-8.8l-3.5-2.2c-1.4-1-3.6-2.8-3.6-5.3m-4.4 88.6h-13.1c-3 0-3.1-.1-2.2-2.5l6.7-18.5c1.2-3.2 2.2-5.7 2.5-6.3h.2c.6 1.3 1.6 4.1 2.4 6.7l5.7 17.3c1.1 2.8.9 3.3-2.2 3.3m27.5 28.9c-4.6-.5-6-2.1-9-11.3l-14.6-42.8c-1.6-4.7-3.3-9.6-4.7-14.3-.2-.7-1-1-1.6-1-1.2 1.4-3 3.3-5.5 4 .3 1.7-.3 3.7-1.8 7.5l-10.9 29c-4.5 11.9-7.4 18.8-9.4 23.7-1.5 3.8-3.8 5-6.4 5.2l-3.5.3c-.6.5-.4 2.2.2 2.7 2.9-.1 6.7-.3 10.2-.3 5 .1 8.3.1 11.1.3 1-.4 1-2.1.2-2.7l-3.5-.3c-2.6-.2-3.1-.9-3.1-2.1s.7-4 2.3-8.8l3.7-11.2c.7-2.2 1.4-2.6 4-2.6h16.1c3.2 0 3.6.3 4.4 2.7l4.7 14.5c.9 2.6 1.4 4.5 1.4 5.6s-1.5 1.7-3.7 1.9l-3.1.3c-.7.5-.6 2.2.2 2.7 3.1-.1 7.1-.3 12.2-.3 4.8 0 8.5.1 12.9.3.5-.4.7-2.1 0-2.7l-2.8-.3zM498.2 26V10.2c0-4.8.1-5.1 2.4-5.3l1.2-.1.1-.1c.2-.1.3-.5.3-.8 0-.2-.1-.7-.4-.9h-.2c-2.1.1-3.7.1-5.5.1-1.9 0-3.4 0-5.6-.1h-.2c-.4.2-.4.7-.4.9 0 .4.1.7.3.8l.1.1 1.2.1c2.3.2 2.4.5 2.4 5.3V26c0 4.8-.1 5-2.4 5.3l-1.2.1-.1.1c-.3.3-.3.7-.2 1s.2.6.4.7h.2c2.3-.1 3.7-.1 5.6-.1 1.8 0 3.2 0 5.5.1h.2c.4-.2.4-.7.4-.9 0-.4-.1-.7-.3-.8l-1.3-.2c-2.4-.3-2.5-.5-2.5-5.3m40.4-23.5v-.1l-.1-.1c-.2-.3-.6-.4-.8-.4-.1 0-.3 0-.4.1h-.1l-.1.1c-.6 1-.8 1.1-3.2 1.1h-18.3c-2 0-2.9-.1-3.1-1.1V2l-.1-.1c-.1-.1-.3-.2-.6-.2-.1 0-.5 0-.7.1l-.1.1V2c-.3 1.8-1 4.6-1.7 6.5v.1l.1.1c.3.5 1.2.8 1.7.4l.1-.1v-.1c.5-1 .9-2 1.9-2.9s3.2-1 5.2-1h2.4c1 0 1 0 1 1.1v19.8c0 4.8-.3 5-2.4 5.2l-1.6.1h-.2c-.3.2-.4.5-.4.9 0 .3.1.7.4.8h.2c2.7-.1 4.3-.1 6.1-.1 1.7 0 3.2 0 5.8.1h.2c.4-.2.4-.7.4-.9 0-.4-.1-.7-.3-.8l-1.6-.2c-2.2-.2-2.3-.5-2.3-5.2V5.9c0-.5 0-.9.1-.9.1-.1.6-.1.9-.1h3.1c2.4 0 4 .3 4.9 1 .4.3.8 1.4 1 3V9l.1.1c.2.2.5.3.8.3.4 0 .8-.2.9-.5v-.2c0-.9.3-4.5.8-6.2m18.1 56.4c-1.8-.4-7.4-1.6-13.5-1.6-16.1 0-26.6 5-33.7 12.4-6.6 7-9.6 16.2-9.6 25.2 0 9.4 3.4 17.8 9.8 24.1 8.2 8.3 19.8 11.8 32.4 11.8 5.7 0 13.4-1.3 19-2.8 2-.5 3.9-1 5.2-1 .4-.3.4-1 .1-1.3-1.9-.7-2.6-3.3-2.6-7.5v-6c0-5.4.1-8.4 4.6-8.9l1.7-.2c.7-.6.6-2.2-.1-2.7-3.5.2-7.1.3-11.3.3-6.3 0-12.1-.1-15.2-.3-.7.3-.9 2.2 0 2.7l4.7.5c6.6.7 6.9 1.4 6.9 10.3v4.3c0 3.4-.5 5.3-1.1 6.1-1.2 1.8-5.1 3.2-11.7 3.2-21.4 0-31.9-16.1-31.9-36.5 0-16 9-30.6 29.7-30.6 10.8 0 18.8 3.6 21.8 15.1.6.6 2.6.5 2.9-.3-1-6.4-1.6-11.9-1.6-15.4-1.2.3-4.5-.4-6.5-.9m15.5-54.2c.2-.2.3-.5.3-.9 0-.3-.2-.6-.5-.8l-.1-.1h-.1c-3.2.2-5 .2-8.3 0h-.2c-.2.1-.4.4-.5.7-.1.4.1.7.3 1l.1.1.9.1c.9.1 1.4.3 1.6.4-.1.6-1.7 3.5-2.6 5.3l-.2.4c-1.1 2.1-2.3 4.3-3.9 7-1.2-2.1-2.3-4.4-3.4-6.7-.4-.9-.9-1.8-1.3-2.6-.3-.6-1.3-2.9-1.3-3.3 0-.1.2-.3 1.6-.5l.7-.1.1-.1c.2-.2.3-.7.2-1.1-.1-.3-.3-.5-.5-.6h-.2c-1.1.1-2.7.1-4.7.1-2.1 0-3.7 0-5.1-.1h-.1l-.1.1c-.2.1-.4.4-.4.7-.1.4 0 .7.2 1l.1.1 1.4.2c1.2.2 1.8.3 3.3 3.2l5.2 10.2c1.3 2.4 1.4 2.9 1.4 5.3V26c0 4.8-.1 5.1-2.4 5.3l-1.5.1-.1.1c-.3.3-.3.7-.2 1s.2.6.4.7h.2c2.4-.1 3.9-.1 5.8-.1 1.8 0 3.4.1 6 .1h.2c.2-.1.4-.4.4-.7s0-.7-.2-1l-.1-.1-1.8-.1c-2-.2-2.3-.5-2.3-5.3v-2.3c0-3.3.1-3.6 2-7l2.8-4.8c.3-.4.5-.9.7-1.3 1.7-3 3-5.2 4.9-5.6l1.3-.3zm23.5 86.8c0-23.3 14.4-30.8 25.4-30.8 20.3 0 28.1 18.9 28.1 36.5 0 20.9-12.1 30.5-24.9 30.5-20.9 0-28.6-20.5-28.6-36.2m-10.6 3.4c0 19.1 14.2 36.1 37.9 36.1 20.5 0 36.9-15.6 36.9-37.1 0-18.7-12.3-36.5-36.9-36.5-21.9 0-37.9 16.2-37.9 37.5m36.2-75.5c0 9.1-5.4 12.4-10 12.4-9.1 0-11.6-9.3-11.6-14.7 0-9.2 5.5-12.5 10.3-12.5 8.4-.1 11.3 7.9 11.3 14.8m5.2-1.4c0-7.5-4.9-15.5-15.7-15.5-9.2 0-16.1 6.9-16.1 16 0 7.6 5.5 15.4 16.1 15.4 8.9-.1 15.7-6.9 15.7-15.9m29.7-8.6v-.2c-.1-1.6-.1-3.7-.1-5.8V3l-.4.1c-.5.1-3.3.1-5.9.1h-8.2c-1.7 0-3.2 0-5.1-.1h-.2c-.4.2-.4.7-.4.9 0 .4.1.7.3.8l.9.1c2.2.3 2.4.5 2.4 5.2v16c0 4.7-.1 4.9-2.4 5.2l-1.2.1-.1.1c-.3.2-.3.7-.2 1s.2.6.4.7h.2c2.1-.1 3.6-.1 5.5-.1 1.8 0 3.3 0 5.9.1h.2c.3-.1.4-.5.4-.9s-.1-.7-.3-.8l-1.7-.2c-2.3-.2-2.4-.5-2.4-5.2v-6.2c0-.9 0-.9 1.1-.9h3c1.6 0 2.7 0 3.3.2s1 .6 1.2 1.4l.5 1.8.1.1c.4.4 1.4.4 1.7-.1l.1-.1v-.1c0-.5 0-1.1-.1-1.7 0-.8-.1-1.7-.1-2.6 0-.9.1-1.8.1-2.7 0-.7.1-1.3.1-1.8v-.1l-.1-.1c-.2-.3-.7-.4-.8-.4-.4 0-.7.1-.9.3l-.5 1.9c-.2 1.1-.5 1.2-.9 1.3-.5.2-1.8.2-3.7.2h-3c-1.1 0-1.1 0-1.1-.9V6.2c0-1.4 0-1.4 1-1.4h2.7c1.8 0 3.3 0 4.2.3 1.9.5 2.5 1.8 2.9 3.9v.1l.1.1c.2.1.4.2.7.2.2.4.6.3.8 0" fill="#8b0021"/></svg>
